<?xml version="1.0" encoding="UTF-8" standalone="no"?>
<!-- Created with Inkscape (http://www.inkscape.org/) -->

<svg
   xmlns:dc="http://purl.org/dc/elements/1.1/"
   xmlns:cc="http://creativecommons.org/ns#"
   xmlns:rdf="http://www.w3.org/1999/02/22-rdf-syntax-ns#"
   xmlns:svg="http://www.w3.org/2000/svg"
   xmlns="http://www.w3.org/2000/svg"
   xmlns:sodipodi="http://sodipodi.sourceforge.net/DTD/sodipodi-0.dtd"
   xmlns:inkscape="http://www.inkscape.org/namespaces/inkscape"
   width="10886.315mm"
   height="9427.8164mm"
   viewBox="0 0 38573.559 33405.649"
   id="svg2"
   version="1.1"
   inkscape:version="0.91 r13725"
   sodipodi:docname="3deasy dogecoin accepted tile.svg">
  <defs
     id="defs4" />
  <sodipodi:namedview
     id="base"
     pagecolor="#ffffff"
     bordercolor="#666666"
     borderopacity="1.0"
     inkscape:pageopacity="0.0"
     inkscape:pageshadow="2"
     inkscape:zoom="0.015625"
     inkscape:cx="24458.932"
     inkscape:cy="10842.742"
     inkscape:document-units="px"
     inkscape:current-layer="layer1"
     showgrid="false"
     inkscape:window-width="1440"
     inkscape:window-height="856"
     inkscape:window-x="0"
     inkscape:window-y="0"
     inkscape:window-maximized="1"
     showguides="true"
     fit-margin-top="0"
     fit-margin-left="0"
     fit-margin-right="0"
     fit-margin-bottom="0" />
  <metadata
     id="metadata7">
    <rdf:RDF>
      <cc:Work
         rdf:about="">
        <dc:format>image/svg+xml</dc:format>
        <dc:type
           rdf:resource="http://purl.org/dc/dcmitype/StillImage" />
        <dc:title></dc:title>
      </cc:Work>
    </rdf:RDF>
  </metadata>
  <g
     inkscape:label="Layer 1"
     inkscape:groupmode="layer"
     id="layer1"
     transform="translate(3150.6479,20090.088)">
    <text
       xml:space="preserve"
       style="font-style:normal;font-weight:normal;font-size:222.89576721px;line-height:125%;font-family:Sans;text-align:end;letter-spacing:0px;word-spacing:0px;text-anchor:end;fill:black;fill-opacity:1;stroke:none;stroke-width:1px;stroke-linecap:butt;stroke-linejoin:miter;stroke-opacity:1"
       x="28234.174"
       y="98.65564"
       id="text4279"
       sodipodi:linespacing="125%"><tspan
         id="tspan4285"
         sodipodi:role="line"
         x="28234.174"
         y="98.65564"
         style="font-style:normal;font-variant:normal;font-weight:normal;font-stretch:normal;font-family:Blackout;-inkscape-font-specification:Blackout;text-align:center;text-anchor:middle" /></text>
    <path
       style="opacity:1;fill:#26a69a;fill-opacity:1;fill-rule:nonzero;stroke:none;stroke-width:20;stroke-linecap:butt;stroke-linejoin:miter;stroke-miterlimit:4;stroke-dasharray:none;stroke-dashoffset:0;stroke-opacity:1"
       d="m 6492.7384,-20090.088 -9643.3863,16702.8321 9643.3863,16702.8169 3132.3233,0 c 102.0469,-333.107 137.7902,-760.202 49.3165,-954.33 -91.9015,-201.854 -77.0708,-305.657 82.1018,-575.515 337.157,-571.547 432.638,-1428.655 450.012,-4041.4144 16.517,-2486.8011 17.443,-2496.4903 231.115,-2496.4903 368.394,0 869.644,425.3816 1409.125,1195.8257 285.643,407.8692 593.676,847.6395 684.486,977.2608 l 165.102,235.6903 135.219,-321.5932 c 74.417,-176.892 135.234,-536.3848 135.234,-798.8619 0,-595.4594 72.73,-791.5502 293.244,-791.5502 263.417,0 479.84,298.7179 829.077,1144.0905 l 318.303,770.6239 1142.57,18.6456 c 1041.229,17.0148 1212.813,47.6164 1934.521,344.7172 948.028,390.2465 1328.737,377.8067 2214.275,-72.1915 330.827,-168.1153 773.39,-336.8663 983.385,-375.0284 210.078,-38.1484 547.857,-152.7317 750.582,-254.6265 759.443,-381.7181 1091.388,-204.6601 1275.066,680.1323 181.053,871.9244 68.916,1467.7846 -405.657,2155.5191 -439.217,636.676 -415.775,750.112 155.689,752.987 767.113,3.87 945.857,587.47 446.501,1458.013 -255.649,445.782 -460.654,664.223 -959.029,948.096 l 3834.225,0 9643.386,-16702.8169 -9643.386,-16702.8321 -19286.7866,0 z m 4491.2196,2741.054 0.02,0 c 82.184,-0.05 164.881,2.073 248.047,6.468 1579.258,83.429 2951.672,1048.956 3613.434,2428.931 l -403.418,0 c -230.715,-436.634 -539.039,-831.704 -897.91,-1140.331 -844.764,-726.519 -1911.95,-1057.097 -3008.977,-932.036 -1082.2652,123.374 -2081.4334,716.995 -2724.6059,1618.677 -852.2697,1194.859 -973.3768,2775.042 -313.2033,4086.323 402.6859,799.87 1018.0213,1404.9637 1819.8688,1789.5287 621.3063,297.9851 1250.0764,418.3459 1939.5384,371.2686 848.026,-57.899 1636.135,-386.2785 2295.797,-956.5693 381.732,-330.052 699.842,-748.536 930.391,-1211.942 l 397.696,0 c -402.479,892.506 -1094.719,1621.1659 -1992.697,2068.3316 -429.57,213.9203 -820.452,335.6912 -1313.934,409.3612 -143.001,21.3556 -820.894,40.7739 -924.198,26.4827 -23.663,-3.2763 -104.245,-12.771 -179.118,-21.1336 -903.6591,-100.8306 -1796.2887,-528.5746 -2462.2949,-1179.9302 -736.1245,-719.9527 -1184.5609,-1664.2907 -1279.3236,-2694.1007 -23.0962,-250.881 -7.9199,-783.686 29.178,-1025.514 193.4093,-1259.877 924.0189,-2356.447 2014.4806,-3023.435 671.839,-410.937 1416.9339,-619.688 2211.2349,-620.38 z m -615.183,1474.185 c 368.255,1.202 704.209,7.353 811.163,17.761 914.965,89.137 1527.509,338.483 1973.858,803.506 429.072,447.04 653.373,1062.403 679.51,1864.195 20.775,638.141 -100.346,1252.702 -340.584,1727.994 -104.825,207.44 -216.92,366.584 -370.951,526.834 -365.091,379.827 -812.09,581.998 -1497.64,677.369 -186.25,25.901 -1061.546,37.954 -1411.364,19.42 -122.157,-6.483 -386.5282,-19.366 -587.4565,-28.667 -200.9698,-9.288 -384.7451,-19.102 -408.3944,-21.769 -23.6215,-2.682 -67.1466,-5.293 -96.7254,-5.834 l -53.7256,-0.966 0,-1117.623 0,-1117.663 -394.0611,0 -394.0335,0 0,-515.831 0,-515.804 394.0335,0 394.0611,0 0,-1144.741 0,-1144.698 297.3359,-11.693 c 236.1464,-9.288 636.718,-13.007 1004.974,-11.79 z m -184.688,1105.472 0,603.711 0,603.739 515.873,0 515.832,0 0,515.804 0,515.831 -515.832,0 -515.873,0 0,587.485 c 0,549.198 1.658,587.623 25.087,589.433 296.769,22.973 808.205,28.762 1049.562,11.9 641.224,-44.755 961.297,-184.77 1188.196,-519.826 193.7,-286.015 310.135,-870.97 274.033,-1376.491 -48.778,-682.579 -253.853,-1059.985 -694.604,-1278.259 -199.919,-99.005 -395.361,-155.606 -695.945,-201.522 -201.301,-30.741 -304.067,-37.264 -691.396,-43.94 l -454.933,-7.865 z m 15156.179,500.918 c 68.238,0 133.74,65.502 131.018,139.186 l -38.231,1588.352 c -2.724,70.962 -60.015,125.53 -133.7,125.53 -79.144,0 -125.557,-60.041 -131.016,-122.806 -90.065,60.041 -210.134,111.901 -360.227,111.901 -332.954,0 -488.519,-308.393 -488.519,-611.327 0,-384.801 163.733,-736.871 594.934,-736.871 103.706,0 201.965,21.838 278.372,46.401 l 13.642,-406.64 c 2.724,-73.685 60.044,-133.726 133.727,-133.726 z m -3236.553,62.792 c 79.143,0 131.016,65.475 131.016,133.699 l 0,292.014 231.973,0 c 73.684,0 130.989,57.333 130.989,133.741 0,68.224 -57.305,130.989 -130.989,130.989 l -231.973,0 0,974.303 c 0,70.962 -60.056,128.254 -131.016,128.254 -68.226,0 -130.978,-57.292 -130.978,-128.254 l 0,-974.303 -229.249,0 c -73.683,0 -131.016,-62.765 -131.016,-130.989 0,-81.867 65.516,-133.741 136.462,-133.741 l 223.803,0 0,-292.014 c 0,-68.224 57.293,-133.699 130.978,-133.699 z m -7110.186,392.97 c 196.505,0 387.537,100.968 436.66,125.53 l 0,1135.314 c 0,70.962 -54.569,136.462 -130.976,136.462 -70.961,0 -114.611,-40.926 -128.267,-95.508 -90.063,40.926 -196.505,76.393 -305.67,76.393 -300.197,0 -526.71,-240.142 -526.71,-597.658 0,-281.094 177.376,-780.533 654.963,-780.533 z m 1408.917,32.743 c 204.688,0 305.657,65.516 414.822,191.06 24.561,30.022 35.494,60.028 35.494,92.773 0,70.962 -60.056,128.266 -131.003,128.266 -46.4,0 -68.239,-13.642 -84.618,-32.744 -65.488,-76.421 -125.53,-125.53 -229.249,-125.53 -136.449,0 -267.453,166.47 -319.299,286.555 -30.021,81.866 -43.649,160.997 -43.649,221.039 0,270.19 240.141,349.333 332.941,349.333 155.551,0 242.905,-65.501 302.947,-147.367 19.102,-24.576 54.569,-68.226 117.348,-68.226 70.948,0 128.253,57.292 128.253,130.989 0,32.746 -13.642,60.043 -30.021,81.868 -95.509,128.266 -283.832,256.547 -485.783,256.547 -327.495,0 -622.233,-248.365 -622.233,-597.685 0,-128.266 38.204,-248.323 65.488,-316.561 68.239,-180.112 278.386,-450.317 548.562,-450.317 z m 1460.501,0 c 204.688,0 305.656,65.516 414.821,191.06 24.562,30.022 35.495,60.028 35.495,92.773 0,70.962 -60.056,128.266 -131.004,128.266 -46.4,0 -68.238,-13.642 -84.617,-32.744 -65.488,-76.421 -125.53,-125.53 -229.249,-125.53 -136.436,0 -267.453,166.47 -319.299,286.555 -30.021,81.866 -43.65,160.997 -43.65,221.039 0,270.19 240.141,349.333 332.941,349.333 155.551,0 242.906,-65.501 302.948,-147.367 19.102,-24.576 54.582,-68.226 117.347,-68.226 70.948,0 128.253,57.292 128.253,130.989 0,32.746 -13.642,60.043 -30.021,81.868 -95.509,128.266 -283.832,256.547 -485.783,256.547 -327.495,0 -622.232,-248.365 -622.232,-597.685 0,-128.266 38.203,-248.323 65.488,-316.561 68.238,-180.112 278.386,-450.317 548.562,-450.317 z m 2513.601,0 c 62.78,0 111.888,49.137 125.53,109.18 100.983,-62.779 234.71,-109.18 409.376,-109.18 302.921,0 458.485,327.495 458.485,619.511 0,308.378 -120.083,725.937 -605.867,725.937 -95.495,0 -185.572,-21.811 -259.257,-46.372 l 0,417.544 c 0,68.225 -62.792,131.003 -131.016,131.003 -70.948,0 -130.976,-62.778 -130.976,-131.003 l 0,-1582.879 c 0,-76.408 57.317,-133.741 133.725,-133.741 z m -1044.917,2.738 c 360.238,0 523.986,264.729 523.986,392.997 0,46.399 -27.299,92.785 -84.604,125.53 l -731.398,420.266 c 79.144,111.903 196.492,169.221 352.057,169.221 90.049,0 210.147,-51.858 270.189,-114.624 24.562,-24.562 54.584,-43.663 90.065,-43.663 73.683,0 128.252,54.582 128.252,128.267 0,32.744 -13.642,62.765 -32.744,81.88 -98.246,111.888 -286.568,201.951 -455.762,201.951 -414.836,0 -676.815,-311.102 -676.815,-652.254 0,-373.88 242.878,-709.571 616.774,-709.571 z m 4115.001,0 c 360.239,0 523.987,264.729 523.987,392.997 0,46.399 -27.298,92.785 -84.604,125.53 l -731.397,420.266 c 79.143,111.903 196.49,169.221 352.042,169.221 90.063,0 210.134,-51.858 270.176,-114.624 24.562,-24.562 54.583,-43.663 90.064,-43.663 73.684,0 128.279,54.582 128.279,128.267 0,32.744 -13.669,62.765 -32.77,81.88 -98.246,111.888 -286.541,201.951 -455.749,201.951 -414.822,0 -676.828,-311.102 -676.828,-652.254 0,-373.88 242.905,-709.571 616.8,-709.571 z m -8447.616,223.789 c -292.014,0 -395.733,332.954 -395.733,515.804 0,147.382 68.224,341.123 259.27,341.123 109.165,0 231.958,-68.211 300.197,-111.874 l 8.196,-712.309 c -46.386,-19.102 -114.624,-32.744 -171.93,-32.744 z m 5890.6,19.115 c -212.871,0 -335.678,114.612 -384.801,177.391 l 0,592.197 c 62.765,24.576 171.916,65.502 275.623,65.502 253.809,0 341.15,-199.229 341.15,-461.221 0,-133.727 -49.123,-373.869 -231.972,-373.869 z m -1557.985,13.629 c -210.149,0 -357.504,191.046 -368.423,431.2 l 616.786,-341.137 c -43.677,-60.042 -122.835,-90.063 -248.363,-90.063 z m 4115.001,0 c -210.147,0 -357.53,191.046 -368.45,431.2 l 616.773,-341.137 c -43.663,-60.042 -122.792,-90.063 -248.323,-90.063 z m 1470.646,5.459 c -283.832,0 -335.691,278.358 -335.691,469.404 0,155.552 49.123,373.882 226.525,373.882 221.054,0 371.159,-147.368 371.159,-207.396 l 10.906,-564.928 c -60.043,-27.285 -171.917,-70.962 -272.899,-70.962 z M 4476.2813,-4461.5336 c 143.9546,0 280.5423,22.1437 409.7212,66.443 129.1791,44.284 247.2869,107.0355 354.3235,188.2393 107.0364,77.5123 199.2973,171.6396 276.8103,282.3667 77.513,110.7406 136.5737,230.6726 177.1685,359.8654 36.9182,114.4185 55.3705,239.9199 55.3705,376.4804 0,151.3213 -25.8332,293.4104 -77.4993,426.2937 -47.9894,132.8695 -116.2971,252.8432 -204.8676,359.8798 88.5705,107.0364 156.8782,226.9825 204.8676,359.852 51.6661,129.1791 77.4993,269.4572 77.4993,420.7789 0,140.2641 -18.4523,267.5774 -55.3705,381.9947 -40.5948,129.1791 -99.6555,249.15276 -177.1685,359.87963 -77.513,110.72704 -169.7739,206.67838 -276.8103,287.88182 -107.0366,77.51283 -225.1444,138.42592 -354.3235,182.71114 -129.1789,44.28522 -265.7666,66.44164 -409.7212,66.44164 -177.1548,0 -343.2382,-33.24167 -498.2642,-99.66941 -151.3218,-66.44165 -286.0434,-156.86427 -404.1512,-271.28158 -114.4173,-118.10794 -204.8399,-254.66778 -271.2816,-409.69374 -66.4279,-155.0121 -99.6694,-321.0957 -99.6694,-498.2642 l 304.5232,0 625.5911,0 c 0,95.9652 33.2416,178.993 99.6694,249.1251 66.4416,66.4279 147.6174,99.6694 243.5827,99.6694 77.513,0 145.7929,-22.1425 204.8536,-66.4416 59.0471,-47.9757 99.6557,-107.0503 121.7983,-177.1685 11.0713,-25.8469 16.6277,-59.047 16.6277,-99.6418 0,-95.9653 -33.2278,-184.5496 -99.6695,-265.7529 -66.4277,-81.2034 -147.6451,-121.7982 -243.6101,-121.7982 l -265.7392,0 0,-797.2448 265.7392,0 c 95.965,0 177.1824,-40.6087 243.6101,-121.8121 66.4417,-81.1894 99.6695,-169.7744 99.6695,-265.739 0,-36.9045 -5.5564,-70.1463 -16.6277,-99.6696 -22.1426,-70.1328 -62.7512,-127.3268 -121.7983,-171.6125 -59.0607,-47.989 -127.3406,-71.9971 -204.8536,-71.9971 -95.9653,0 -177.1411,33.2265 -243.5827,99.6696 -66.4278,66.4413 -99.6694,147.645 -99.6694,243.6096 l -930.1143,0 c 0,-173.4786 33.2415,-337.737 99.6694,-492.7497 66.4417,-155.0263 156.8643,-289.7479 271.2816,-404.1647 118.1078,-118.1083 252.8294,-210.3678 404.1512,-276.8108 155.026,-66.4413 321.1094,-99.6696 498.2642,-99.6696 z m 1527.2877,0 830.4448,0 c 321.1233,0 603.4762,53.533 847.0864,160.5686 243.5964,103.3475 446.612,247.2875 609.0189,431.8236 162.4067,180.8581 284.1912,398.6224 365.3946,653.303 81.1896,250.9779 121.7982,522.2871 121.7982,813.8731 0,276.8242 -31.3618,540.7249 -94.113,791.7022 -62.7375,247.3006 -166.0974,465.0641 -310.0381,653.30393 -143.9546,188.23986 -332.1947,337.6956 -564.7335,448.42264 -232.5252,110.72687 -516.7302,166.11106 -852.6014,166.11106 l -121.8121,0 -830.4448,0 0,-4119.10813 z m 3222.359,0 2524.618,0 0,930.1156 -1594.504,0 0,664.3886 1173.725,0 0,930.1143 -1173.725,0 0,664.3752 1594.504,0 0,930.11443 -2524.618,0 0,-4119.10813 z m 3933.535,0 1240.166,0 1206.953,4119.10813 -1057.456,0 -370.951,-1085.15413 -802.773,0 -365.408,1085.15413 -1057.456,0 1206.925,-4119.10813 z m 3873.41,0 c 203.002,0 380.198,29.552 531.52,88.5986 155.025,55.3703 284.177,127.3267 387.523,215.9117 107.05,88.5834 190.092,190.0919 249.153,304.5223 59.047,110.727 97.817,221.4541 116.269,332.1811 l -813.845,321.1101 c -11.071,-40.596 -27.685,-84.8936 -49.827,-132.8691 -22.157,-51.6805 -53.546,-97.8323 -94.141,-138.4401 -36.904,-44.2857 -83.042,-81.1767 -138.412,-110.7135 -51.666,-29.5232 -112.551,-44.2993 -182.67,-44.2993 -73.822,0 -142.13,23.9945 -204.881,71.97 -59.047,44.2993 -88.571,112.5796 -88.571,204.8544 0,70.1175 27.672,132.869 83.042,188.2393 59.061,51.667 149.483,121.7981 271.282,210.3831 169.787,95.9652 332.194,191.9442 487.22,287.9093 158.717,95.9652 298.953,204.8399 420.751,326.6381 121.812,121.8122 219.63,260.2104 293.452,415.2225 73.823,151.3356 110.713,332.1808 110.713,542.5634 l 0,77.5128 c -7.394,132.8695 -46.123,258.3721 -116.255,376.47988 -66.428,114.41732 -160.569,215.92501 -282.367,304.50935 -118.108,84.89389 -262.049,153.17381 -431.823,204.85383 -169.787,47.97567 -361.731,71.97037 -575.804,71.97037 -166.084,0 -322.948,-22.15642 -470.593,-66.44164 -143.941,-44.28522 -274.972,-107.03659 -393.08,-188.24003 -118.108,-81.20328 -219.616,-178.99306 -304.509,-293.42411 -81.204,-118.10775 -140.237,-250.97735 -177.155,-398.60865 l 885.815,-370.951 c -7.381,3.6904 0,29.5234 22.143,77.4991 25.833,47.9895 60.913,99.6417 105.198,155.0122 44.299,51.6661 97.803,99.6694 160.541,143.9684 66.442,40.5949 136.587,55.3428 210.41,44.2715 62.751,-7.3809 123.623,-35.0523 182.684,-83.0417 62.737,-47.9757 92.288,-123.6365 88.598,-226.9827 -3.691,-62.7373 -29.524,-119.9597 -77.5,-171.6398 -44.299,-55.3565 -108.888,-112.579 -193.782,-171.6397 -188.24,-125.4887 -363.556,-234.3636 -525.963,-326.6382 -158.703,-95.9652 -298.981,-195.607 -420.779,-298.953 -118.108,-103.3461 -212.221,-219.6017 -282.353,-348.7946 -66.428,-129.1786 -99.669,-291.5997 -99.669,-487.2203 0,-180.8462 36.918,-339.5623 110.74,-476.1212 73.823,-136.5605 171.64,-250.9773 293.438,-343.2521 121.812,-92.2748 262.049,-162.394 420.765,-210.3831 158.703,-47.9755 322.948,-73.8361 492.722,-77.5275 z m 1237.499,0 1040.842,0 481.663,974.4149 476.121,-974.4149 1040.856,0 -1107.283,2059.5683 0,2059.53983 -874.758,0 0,-2059.53983 -1057.441,-2059.5683 z m 6027.436,0 5.529,0 c 225.144,0 418.925,31.391 581.333,94.1408 162.392,62.738 300.792,143.9282 415.222,243.5826 118.108,99.656 212.22,212.2491 282.34,337.7369 73.822,125.4895 131.045,250.9638 171.639,376.4533 l -802.773,448.4637 c -22.142,-66.441 -53.532,-134.7213 -94.128,-204.854 -36.918,-70.1176 -83.041,-132.8691 -138.411,-188.2394 -55.37,-55.3567 -118.108,-99.656 -188.239,-132.869 -70.133,-33.2148 -143.942,-47.9908 -221.454,-44.2993 -188.226,14.7607 -339.563,90.4358 -453.979,227.0099 -110.728,132.869 -166.111,300.8189 -166.111,503.8204 l 0,802.7735 c 0,203.0017 57.222,374.6415 171.639,514.8919 114.417,136.5599 265.754,212.2207 453.993,226.9825 158.702,11.0714 289.734,-29.5373 393.08,-121.8119 107.036,-92.2748 188.253,-203.0017 243.61,-332.1808 l 802.773,448.4501 c -33.213,66.4418 -81.19,151.3355 -143.94,254.6817 -59.048,103.34593 -143.942,204.86752 -254.682,304.52304 -110.727,99.65569 -252.844,186.36023 -426.307,260.18278 -169.789,70.11819 -380.156,105.19814 -631.134,105.19814 l -5.571,0 c -280.514,0 -516.702,-44.28522 -708.633,-132.86956 -188.239,-88.58435 -343.265,-206.69211 -465.063,-354.3233 -118.109,-151.32181 -204.841,-324.7999 -260.211,-520.4206 -55.355,-199.3112 -88.597,-406.0171 -99.67,-620.104 l 0,-852.6012 c 3.691,-203.0024 36.92,-402.3127 99.67,-597.9333 66.443,-199.3121 162.394,-376.4804 287.881,-531.4915 129.18,-155.0263 289.735,-278.6498 481.666,-370.9245 191.929,-95.9646 415.249,-143.9689 669.931,-143.9689 z m 3260.577,0 5.528,0 c 217.777,0 422.631,42.4484 614.562,127.342 195.62,84.8936 369.099,206.7052 520.434,365.4077 132.869,140.2638 232.511,298.9664 298.953,476.1364 66.427,177.1548 101.508,359.8519 105.198,548.0912 l 0,963.3422 c 0,199.3112 -31.389,402.3127 -94.141,609.0048 -59.046,203.0017 -162.379,382.03626 -310.01,537.04835 -151.335,162.40688 -324.814,286.02948 -520.434,370.92337 -191.931,84.89389 -396.785,127.34084 -614.562,127.34084 l -5.528,0 c -214.073,0 -418.914,-42.44695 -614.534,-127.34084 -191.931,-84.89389 -365.408,-206.67821 -520.421,-365.38075 -143.955,-155.02599 -247.301,-330.34247 -310.053,-525.96327 -59.06,-195.6207 -90.408,-404.1788 -94.112,-625.6325 l 0,-963.3422 c 0,-177.1683 35.079,-356.1756 105.212,-537.0337 70.131,-184.536 169.76,-346.9301 298.953,-487.1939 155.013,-158.7025 328.49,-280.5141 520.421,-365.4077 191.93,-84.8936 396.769,-127.342 614.534,-127.342 z m -6059.352,3355.0634 758.503,0 0,764.04473 -758.503,0 0,-764.04473 z m 4106.876,5932.5213 c 63.843,-0.9951 118.785,57.0983 117.251,116.0622 l -1.01,93.3251 c -1.41,66.3312 -49.759,116.2005 -116.048,117.2371 -63.843,0.9951 -118.73,-54.6101 -117.265,-118.4809 l 1.023,-90.8927 c 1.451,-63.8845 54.666,-116.2832 116.049,-117.2508 z m 2170.252,10.2005 c 71.197,-1.1057 118.757,57.0844 119.725,118.4673 l 4.132,262.7258 208.67,-3.2757 c 66.304,-1.0366 118.688,49.7171 119.766,118.467 0.954,61.383 -49.717,118.6608 -116.007,119.6974 l -208.71,3.262 13.739,876.527 c 1.01,63.8432 -52.205,116.2418 -116.048,117.2508 -61.383,0.9537 -118.674,-49.7173 -119.671,-113.5466 l -13.71,-876.527 -206.251,3.2067 c -66.288,1.0366 -118.743,-54.624 -119.696,-115.993 -1.161,-73.6705 57.043,-121.2454 120.886,-122.2406 l 201.329,-3.1376 -4.134,-262.7258 c -0.952,-61.3829 49.691,-121.0796 115.98,-122.1577 z m -4463.756,6.6484 c 577.74,2.3635 857.192,185.6275 862.292,511.4918 7.006,446.8606 -548.12,597.975 -896.583,615.7223 l 6.704,427.2059 c 1.064,68.7501 -49.662,121.1348 -118.412,122.2129 -63.829,0.9953 -123.581,-49.6619 -124.659,-118.4118 l -21.95,-1401.9373 c -1.741,-110.492 4.989,-152.3445 235.774,-155.9658 19.267,-0.2904 38.189,-0.4009 56.834,-0.318 z m -1714.421,29.1504 c 400.198,2.4049 1089.204,142.3928 1101.23,910.653 8.623,549.9856 -373.094,796.6506 -846.963,804.0729 -135.04,2.1147 -273.065,-30.1318 -295.277,-37.1532 -51.79,-13.9186 -94.347,-64.8106 -95.19,-118.8265 l -22.489,-1436.3123 c -1.078,-68.7499 52.136,-121.1624 120.886,-122.2405 12.274,-0.1934 24.893,-0.2626 37.803,-0.1934 z m -2750.799,42.6818 c 58.923,-0.9261 121.108,49.6896 122.186,118.4395 0.414,27.0079 -1.783,41.7559 -23.304,78.9367 l -817.59,1424.9368 c -21.48,39.6273 -60.416,62.3503 -104.604,63.0415 -68.75,1.0781 -121.259,-57.0567 -122.213,-118.4394 -0.387,-24.5478 1.893,-36.863 18.563,-69.054 l 208.005,-361.8149 -559.675,-924.4474 c -15.149,-26.7729 -20.415,-48.791 -20.76,-70.8922 -0.996,-63.8432 52.122,-121.1625 120.858,-122.2406 41.742,-0.6496 81.383,20.8295 104.106,59.7657 l 494.104,814.9782 475.665,-832.6286 c 21.479,-39.6274 60.471,-59.8903 104.659,-60.5813 z m 1701.085,7.7541 c 272.538,-4.2709 486.363,164.2866 489.874,387.7169 2.072,132.5794 -60.001,246.4991 -164.274,331.6418 138.911,88.6809 210.066,239.8368 212.719,409.2514 5.93,378.1107 -298.87,517.9603 -510.026,521.2636 -211.156,3.3036 -411.753,-104.0508 -485.411,-260.072 -12.702,-26.8283 -20.579,-58.6186 -20.815,-73.3526 -0.995,-63.8432 49.786,-113.7539 116.09,-114.7905 49.096,-0.7602 81.397,23.2898 104.12,62.2259 25.239,43.8154 110.451,152.9804 277.404,150.3681 132.579,-2.0733 283.46,-90.4089 280.46,-281.9107 -3.69,-235.7042 -235.289,-283.6383 -326.141,-282.2146 -66.29,1.0366 -118.687,-52.1638 -119.698,-116.007 -1.035,-66.2896 49.745,-118.6744 118.482,-119.7525 132.592,-2.0733 283.224,-105.1015 281.385,-222.9605 -1.188,-76.1169 -90.851,-155.7585 -250.438,-153.2567 -122.766,1.9212 -198.15,49.7448 -236.976,79.835 -29.151,20.097 -43.691,32.6197 -75.606,33.1173 -81.022,1.2715 -118.825,-59.5308 -119.71,-115.9931 -0.608,-39.2956 15.895,-83.7605 98.563,-136.6291 70.519,-45.3079 190.051,-96.2968 329.998,-98.4807 z m -3382.901,18.5904 c 105.586,-1.6449 121.577,79.1577 122.158,115.9792 14.665,309.2088 31.071,571.7274 -5.667,891.5652 -45.405,393.6465 -242.532,666.8771 -677.105,673.6773 -414.946,6.5101 -653.995,-360.5708 -679.483,-890.6391 -11.486,-262.6014 -9.454,-446.833 -10.269,-655.5707 -0.609,-39.2817 25.197,-115.7995 125.861,-117.3752 98.205,-1.5342 119.076,76.7113 119.698,115.993 -1.493,218.6065 -1.258,390.4951 9.689,618.7216 17.858,355.8162 114.237,707.9556 435.872,702.9245 203.79,-3.1928 398.415,-121.6738 432.389,-461.1248 27.312,-295.1244 11.141,-542.895 6.027,-869.4503 -0.608,-39.2817 15.259,-123.0421 120.83,-124.7007 z m -2258.713,35.3978 c 500.877,-7.8509 563.034,354.6273 564.264,433.2047 2.239,142.4065 -45.294,243.8314 -108.059,313.5765 168.184,75.951 251.198,202.3657 254.17,391.4212 5.225,333.9084 -342.824,533.3855 -1076.944,544.8853 -85.944,1.3407 -145.199,-19.8344 -146.968,-132.7728 l -22.267,-1421.5919 c -1.009,-63.8432 54.555,-121.1901 118.398,-122.1853 l 417.406,-6.5377 z m 8392.011,109.1926 -34.374,0.5392 10.076,643.2968 c 218.315,-15.7017 661.609,-93.8641 657.257,-371.3104 -2.834,-181.6882 -230.329,-278.8284 -632.959,-272.5256 z m -1611.822,35.08 18.922,1208.0028 c 41.867,6.7173 93.546,13.2689 142.655,12.4949 373.191,-5.8467 610.995,-188.848 605.273,-554.685 -7.354,-468.9481 -356.312,-640.3253 -766.85,-665.8127 z m 7268.626,82.9449 c 244.937,3.4001 378.138,119.9184 380.972,300.6808 1.603,103.1248 -31.93,157.6796 -115.414,158.979 -78.563,1.2301 -116.228,-52.219 -117.181,-113.5881 -0.193,-12.2877 2.059,-24.5891 1.741,-44.2299 -0.76,-49.0953 -48.003,-85.198 -165.862,-83.3597 -125.212,1.9627 -212.939,45.0869 -211.944,108.9301 1.354,85.9305 127.12,118.329 201.122,139.269 229.498,70.0768 409.597,123.761 413.716,386.4731 2.764,176.7816 -163.61,373.3974 -431.229,377.5855 -311.821,4.8929 -465.576,-248.1023 -466.999,-338.9534 -1.009,-63.8432 49.758,-116.2143 113.588,-117.2095 56.477,-0.8846 96.283,32.8546 111.735,79.2823 33.422,95.2464 120.279,152.8282 238.137,150.9899 157.141,-2.4603 207.107,-103.9403 206.375,-150.5891 -1.106,-71.1965 -40.996,-109.8701 -226.029,-163.4573 -266.443,-76.8634 -385.865,-175.6896 -388.795,-362.2847 -3.995,-255.3451 250.328,-325.6431 432.016,-328.4904 8.127,-0.1237 16.144,-0.1237 24.051,-0.027 z m -14044.972,18.3139 -292.18,4.5613 6.689,427.2059 390.385,-6.0953 c 125.226,-1.9627 214.308,-116.3387 212.566,-226.8306 -0.497,-31.9146 -22.833,-203.4578 -317.46,-198.8413 z m 11799.969,16.5172 c 326.556,-5.1141 382.229,256.7825 386.211,824.0177 l 1.879,277.4877 c 0.968,61.3828 -44.796,118.5915 -111.086,119.6281 -63.83,0.9952 -118.744,-54.6239 -119.669,-113.5465 l -5.017,-321.6347 c -8.459,-540.1582 -79.904,-553.7728 -158.469,-552.5426 -78.563,1.2301 -176.145,44.5064 -278.675,240.1272 -69.124,133.6988 -110.99,281.7032 -108.681,429.0166 l 3.206,206.2498 c 1.078,68.7499 -39.808,123.4016 -113.464,124.5488 -63.843,1.009 -118.688,-52.15 -119.615,-111.0863 l -15.632,-996.8186 c -1.036,-66.2896 57.07,-118.7713 120.913,-119.7803 61.384,-0.9537 113.741,49.7863 114.792,116.0898 l 2.212,139.9463 c 91.14,-138.9649 234.142,-259.0906 401.095,-261.703 z m -1713.883,21.949 c 184.15,-2.8888 237.723,123.9684 239.381,229.5397 l 1.134,73.6705 c 0.995,63.8432 -47.284,116.1588 -113.575,117.1956 -85.93,1.3407 -116.365,-59.5585 -117.25,-116.0346 l -0.512,-31.9284 c -0.386,-24.5615 -5.515,-39.1989 -34.983,-38.7428 -78.563,1.2301 -160.775,83.567 -232.897,182.9186 -36.09,47.2292 -61.84,128.6815 -60.652,204.7984 l 5.391,500.9042 c 0.926,58.9226 -54.694,113.823 -116.076,114.7905 -61.383,0.9537 -121.149,-52.136 -122.074,-111.0586 l -15.578,-994.3722 c -1.037,-66.2896 54.625,-118.7435 118.454,-119.7526 66.289,-1.0366 121.12,49.6897 122.158,115.9793 l 0.539,34.3612 c 74.775,-87.1193 181.688,-160.0019 326.54,-162.2688 z m 611.245,2.6954 c 68.749,-1.0781 121.176,52.1359 122.213,118.4394 l 3.013,977.3713 c 1.05,66.3035 -52.136,121.1486 -118.427,122.1852 -66.288,1.0367 -121.147,-52.136 -122.184,-118.4256 l -3.014,-977.3851 c -1.05,-66.2897 52.11,-121.1486 118.399,-122.1852 z m -10566.493,629.6824 -412.458,6.4548 8.072,515.6106 c 402.534,-13.6698 740.008,-104.9217 737.009,-296.4375 -2.585,-164.5077 -182.85,-227.9777 -332.623,-225.6279 z m 12452.9,1260.1388 c 53.877,0.1102 104.562,33.2415 126.637,82.5994 l 461.926,1032.8108 c 30.572,68.3491 2.322,147.8248 -68.572,179.5182 -68.334,30.5741 -148.943,-0.221 -179.517,-68.5701 l -461.9,-1032.797 c -29.426,-65.8196 -0.911,-151.5015 67.438,-182.0615 17.719,-7.9338 36.034,-11.5413 53.988,-11.4998 z m -276.493,661.445 c 46.096,1.7417 90.133,26.2892 110.368,71.5421 9.053,20.249 12.176,34.0569 13.905,51.5139 l 127.713,1154.9269 c 6.054,61.0926 -14.94,116.0483 -75.702,143.2221 -58.218,26.0265 -113.712,17.4433 -160.858,-40.4428 l -466.225,-587.3736 55.853,776.9681 c 5.792,67.2709 -23.635,116.8915 -76.793,140.665 -70.879,31.7074 -125.849,10.712 -165.683,-44.382 l -657.286,-905.9536 c -16.391,-23.0412 -25.721,-37.0842 -34.775,-57.3332 -23.773,-53.1588 5.611,-130.1052 71.432,-159.5457 65.82,-29.4406 128.1,-5.6392 164.272,48.0587 l 415.514,582.7019 -64.245,-754.9915 c -6.054,-61.0926 26.18,-118.0386 81.88,-142.9455 60.749,-27.1738 118.771,-19.71 161.137,34.2505 l 454.682,595.5838 -94.374,-747.6243 c -7.451,-57.416 21.409,-121.9502 77.098,-146.8573 19.778,-8.832 41.147,-12.7713 62.087,-11.9835 z M 8471.365,8264.2109 c 272.5395,-4.271 486.3912,164.2865 489.902,387.717 2.0733,132.5792 -60.0006,246.5404 -164.2728,331.6692 138.9098,88.6949 210.0508,239.8508 212.7045,409.2653 5.9159,378.0968 -298.8562,517.9465 -510.0126,521.2498 -211.1567,3.3172 -411.767,-104.0785 -485.4375,-260.0997 -12.7024,-26.8143 -20.5532,-58.6184 -20.7882,-73.3526 -0.9952,-63.8293 49.7864,-113.74 116.0899,-114.7766 49.0951,-0.7741 81.4107,23.2898 104.12,62.2259 25.2388,43.8015 110.4504,152.9803 277.4047,150.368 132.5792,-2.0871 283.4587,-90.3811 280.4594,-281.8967 -3.6904,-235.7042 -235.2896,-283.6661 -326.1407,-282.2424 -66.2896,1.0366 -118.6883,-52.1638 -119.6972,-115.9931 -1.0366,-66.3035 49.7171,-118.6606 118.4671,-119.7387 132.5794,-2.0734 283.2237,-105.129 281.3715,-222.9742 -1.1886,-76.117 -90.851,-155.7586 -250.4381,-153.2567 -122.7659,1.9211 -198.1503,49.7724 -236.9759,79.8488 -29.1502,20.1107 -43.6632,32.5919 -75.5778,33.1032 -81.0238,1.2578 -118.8265,-59.5307 -119.7111,-116.0067 -0.6083,-39.2818 15.8674,-83.7606 98.536,-136.629 70.5191,-45.3081 190.0506,-96.2832 329.9968,-98.4808 z m 19652.499,291.6412 c 58.19,1.1748 111.459,39.9867 136.091,95.0529 41.879,93.6568 -2.365,198.5233 -75.785,231.3502 -78.469,35.0937 -159.92,-4.423 -195.014,-82.9034 -38.493,-86.0688 -0.193,-197.3624 75.744,-231.3227 19.627,-8.7769 39.573,-12.5641 58.964,-12.177 z m -2799.326,140.6512 c 232.206,4.3816 458.553,160.3889 564.801,397.9727 165.295,369.5827 30.021,800.6589 -291.475,944.448 -296.175,132.455 -639.205,-30.035 -784.113,-354.061 -164.164,-367.0533 -32.552,-799.5531 288.931,-943.342 64.783,-28.9705 132.179,-43.3867 199.366,-44.9625 7.491,-0.1796 14.998,-0.2073 22.49,-0.056 z m -17854.0966,13.1723 c 63.843,-1.0091 118.6743,49.7033 119.7525,118.4532 0.5805,36.8353 -20.8711,78.9091 -52.4816,99.0475 l -595.5424,392.4441 565.6319,364.4409 c 34.762,24.0084 54.9418,58.0932 55.5639,97.3749 0.9676,61.3829 -54.6239,118.7298 -116.0068,119.6974 -19.6409,0.3041 -46.7595,-6.6623 -66.5937,-18.6319 l -719.4141,-460.2541 c -37.2083,-23.9671 -52.4676,-58.1071 -53.1311,-99.8491 -0.5666,-36.8352 11.1681,-71.3899 52.4817,-99.0474 l 746.2282,-493.0533 c 19.4473,-12.5779 41.424,-20.2768 63.5115,-20.6222 z M 25285.574,8951.019 c -31.708,0.622 -62.808,7.1597 -92.234,20.3182 -182.269,81.5212 -242.725,360.6952 -135.178,601.1817 88.307,197.4453 274.419,314.7098 438.954,241.1222 179.726,-80.3879 252.581,-359.0227 147.286,-594.4505 -72.662,-162.4897 -221.412,-270.8807 -358.828,-268.1716 z m -1054.07,198.9795 c 46.096,1.7415 90.092,26.2891 110.326,71.5419 9.054,20.249 12.204,34.0571 13.933,51.5141 l 127.686,1154.9265 c 6.054,61.093 -14.942,116.049 -75.688,143.209 -58.232,26.04 -113.712,17.429 -160.872,-40.457 l -466.211,-587.3736 55.88,776.9816 c 5.778,67.285 -23.676,116.906 -76.834,140.679 -70.879,31.708 -125.822,10.712 -165.642,-44.382 l -657.327,-905.9535 c -16.379,-23.041 -25.68,-37.084 -34.748,-57.3332 -23.773,-53.1588 5.585,-130.105 71.404,-159.5456 65.819,-29.4405 128.115,-5.6394 164.273,48.0586 l 415.54,582.7017 -64.271,-754.9912 c -6.054,-61.0925 26.192,-118.0387 81.88,-142.9456 60.747,-27.1738 118.771,-19.71 161.135,34.2504 l 454.698,595.5564 -94.39,-747.5968 c -7.449,-57.4159 21.411,-121.9502 77.112,-146.8571 19.766,-8.846 41.162,-12.7715 62.116,-11.9836 z"
       id="path4307"
       inkscape:connector-curvature="0" />
  </g>
</svg>
