<?xml version="1.0" encoding="UTF-8" standalone="no"?>
<!-- Created with Inkscape (http://www.inkscape.org/) -->

<svg
   xmlns:dc="http://purl.org/dc/elements/1.1/"
   xmlns:cc="http://creativecommons.org/ns#"
   xmlns:rdf="http://www.w3.org/1999/02/22-rdf-syntax-ns#"
   xmlns:svg="http://www.w3.org/2000/svg"
   xmlns="http://www.w3.org/2000/svg"
   xmlns:sodipodi="http://sodipodi.sourceforge.net/DTD/sodipodi-0.dtd"
   xmlns:inkscape="http://www.inkscape.org/namespaces/inkscape"
   width="4906.7051mm"
   height="4249.2954mm"
   viewBox="0 0 17385.963 15056.558"
   id="svg2"
   version="1.1"
   inkscape:version="0.91 r13725"
   sodipodi:docname="Doge Tile.svg">
  <defs
     id="defs4" />
  <sodipodi:namedview
     id="base"
     pagecolor="#ffffff"
     bordercolor="#666666"
     borderopacity="1.0"
     inkscape:pageopacity="0.0"
     inkscape:pageshadow="2"
     inkscape:zoom="0.027146617"
     inkscape:cx="8979.2341"
     inkscape:cy="8479.8024"
     inkscape:document-units="px"
     inkscape:current-layer="layer1"
     showgrid="false"
     inkscape:window-width="1440"
     inkscape:window-height="856"
     inkscape:window-x="0"
     inkscape:window-y="0"
     inkscape:window-maximized="1"
     showguides="false"
     fit-margin-top="0"
     fit-margin-left="0"
     fit-margin-right="0"
     fit-margin-bottom="0" />
  <metadata
     id="metadata7">
    <rdf:RDF>
      <cc:Work
         rdf:about="">
        <dc:format>image/svg+xml</dc:format>
        <dc:type
           rdf:resource="http://purl.org/dc/dcmitype/StillImage" />
        <dc:title></dc:title>
      </cc:Work>
    </rdf:RDF>
  </metadata>
  <g
     inkscape:label="Layer 1"
     inkscape:groupmode="layer"
     id="layer1"
     transform="translate(8328.6324,7451.8519)">
    <path
       style="opacity:1;fill:#f44336;fill-opacity:1;fill-rule:nonzero;stroke:none;stroke-width:20;stroke-linecap:butt;stroke-linejoin:miter;stroke-miterlimit:4;stroke-dasharray:none;stroke-dashoffset:0;stroke-opacity:1"
       d="M -3982.072,-7451.8519 -8328.6324,76.329113 -5505.3524,4966.347 c -58.0424,-148.2147 36.7541,-978.4453 133.3177,-1147.3929 12.9821,-22.7081 29.723,-124.5962 37.0696,-226.3175 21.3311,-295.6857 69.8508,-539.0621 132.0157,-662.0268 66.8834,-132.3653 98.1971,-216.1399 98.1971,-262.7332 0,-67.57 37.7618,-141.0336 90.1794,-175.3736 22.2241,-14.5618 41.2721,-20.9769 68.2842,-20.1665 l 0,-0.214 c 16.2116,0 35.2838,3.4408 59.6144,9.1011 108.9068,24.5176 139.4532,66.8486 120.7421,166.9164 -8.0122,42.8638 -15.4043,165.5734 -16.4737,272.7109 -1.9514,202 -30.3913,303.8767 -108.6046,389.3269 -37.4572,40.8886 -89.3266,167.3939 -115.7587,282.4558 -8.6217,37.4478 -29.9716,120.634 -47.4745,184.9078 -55.4812,203.6202 -79.9242,467.4632 -53.1072,572.0702 12.9634,50.5333 22.6893,126.4496 21.676,168.8697 -0.8822,42.3536 1.3367,190.9233 5.419,330.1479 6.6701,235.1965 12.9045,270.4799 88.228,496.6311 44.587,133.8969 90.7702,269.6363 102.5359,301.7567 105.3644,287.8165 138.9292,403.3562 149.1416,512.669 9.9665,106.6715 21.9834,138.4699 74.3529,196.8278 34.3479,38.3135 86.4928,120.7448 115.9753,183.3982 40.0048,85.0842 69.1771,120.5895 115.1064,139.813 33.8507,13.9402 105.0036,79.8119 158.0307,145.8949 53.0244,66.1162 119.3008,131.9326 147.1899,146.3278 27.8865,14.4062 99.844,66.3381 159.9797,115.3174 60.133,49.0018 147.746,105.6061 194.6644,125.7283 81.8491,35.0615 134.1304,80.5671 234.9849,205.0742 44.5817,55.0063 53.5857,57.6589 226.9618,63.2971 190.3816,6.2154 218.4017,17.4808 264.4673,106.6492 3.2454,6.282 8.8328,10.888 12.7894,16.6929 l 5355.2169,0 c 4.0689,-3.4408 10.0627,-7.6027 13.6585,-10.8324 84.6401,-76.0277 267.5335,-170.0685 413.3896,-212.4441 155.4668,-45.2282 235.2894,-144.0193 241.0533,-298.4937 2.1388,-56.7042 17.2863,-98.4139 47.4745,-130.5007 31.9686,-34.0625 40.8498,-60.467 32.0837,-95.3842 -15.5006,-61.7764 91.8824,-273.0105 190.328,-374.3654 38.6042,-39.7564 70.2333,-79.546 70.2333,-88.4471 0,-8.9902 33.9015,-37.6588 75.2217,-63.7299 62.7076,-39.5789 76.7403,-60.8886 85.8433,-128.7694 5.983,-44.7398 28.6589,-100.0789 50.2922,-123.1311 64.2153,-68.4469 118.7583,-210.7349 119.226,-310.847 0.3476,-81.8986 8.8652,-101.1551 69.3697,-156.5164 52.4577,-48.0805 75.6308,-91.1553 96.6813,-179.2694 35.6821,-149.5134 36.6631,-299.0266 2.1654,-338.3941 -62.2878,-71.1885 -57.7242,-116.9937 18.4279,-188.8036 53.7809,-50.7331 76.7964,-91.9542 89.3107,-159.5466 16.1928,-87.4815 106.3054,-290.2582 175.1538,-393.8885 18.0295,-27.1481 39.1174,-84.1073 46.8249,-126.594 26.4533,-145.8394 103.5544,-240.6908 290.2602,-357.6731 63.5684,-39.8117 106.8055,-58.4692 145.0246,-57.4479 l -0.2675,-0.2139 c 29.7257,2.1093 56.5161,13.5849 87.1426,37.725 48.255,37.9582 51.1583,50.0117 51.1583,206.1508 0,181.2894 14.1744,214.8859 151.7429,360.4922 43.1222,45.6054 63.5042,82.942 55.9305,102.7536 -17.3558,45.2058 50.9365,103.8745 136.9988,117.7149 141.3539,22.8084 160.8673,29.8895 201.8186,73.264 35.0885,37.1812 38.8661,56.671 26.2315,131.3663 -29.0387,171.6778 -20.6094,219.4362 56.1444,319.959 39.7214,52.0427 72.1847,109.9902 72.1847,128.9803 0,18.8904 -26.178,59.4235 -58.3126,89.7456 -74.2297,70.0453 -74.0053,114.3632 0.8556,153.0427 70.538,36.482 101.0791,106.0498 93.2112,213.0989 l -5.8521,78.4691 77.6064,6.282 c 82.4106,6.7814 135.1489,44.2292 142.6372,96.4717 L 9057.3304,76.334193 4710.7702,-7451.8467 l -8692.9064,0 z m 2135.887,4756.9201 c 5.7371,0.032 11.8753,-0.057 18.6444,2.1644 75.4383,7.3252 119.2929,68.2582 216.7735,301.102 38.8179,92.7534 117.1221,243.9757 174.0712,336.0078 56.949,92.0323 150.5157,246.0958 207.6705,342.5009 104.7764,176.7055 252.55451,377.5733 328.41523,446.1201 55.35565,49.9784 54.09646,138.8027 -2.59321,174.7299 -67.85118,42.9748 -135.97232,51.1437 -484.49432,58.0916 l -323.8623,6.5039 -131.5827,73.70779 c -72.3665,40.47759 -163.3132,101.83237 -202.035,136.56079 -38.7216,34.69525 -105.434,81.44359 -148.2726,103.84117 -172.8041,90.32305 -275.8347,24.81728 -250.5923,-159.33558 16.0458,-117.04889 73.6151,-206.00667 194.4479,-300.87987 l 99.7155,-78.2585 14.0889,-253.8428 c 7.7261,-139.6018 8.7849,-262.2114 2.5933,-272.2668 -6.2157,-10.1001 -3.9513,-144.0972 4.9832,-297.8502 17.73,-305.8633 28.1349,-339.2598 162.3669,-519.1841 59.5422,-79.8232 79.4404,-98.7135 119.6592,-98.6246 l 0,-1.0879 z m 6066.0234,179.9242 0,0.2218 c 45.2341,2.6639 94.056,33.1635 155.6459,96.0276 100.3092,102.443 178.5518,274.6756 266.1997,585.722 111.302,394.9877 147.853,651.7606 151.3097,1063.28541 3.6625,438.11781 -31.9018,688.897149 -141.7737,996.9471 l -76.0879,213.53176 9.9717,285.70777 c 11.7872,338.14986 30.6962,459.94916 107.7386,694.75756 81.6433,248.8483 91.2702,282.5223 105.7868,369.8263 7.1033,42.8748 30.6239,137.9592 52.2411,211.1343 32.0862,108.6137 37.0616,163.9859 27.0977,301.7567 -14.2813,197.5272 3.4353,288.5602 76.7377,394.3104 34.0459,49.146 56.5746,111.5882 62.4321,172.5547 7.9801,83.3304 2.7722,101.9431 -40.9701,145.6728 -35.9466,35.9384 -70.6208,50.2893 -122.6962,50.2893 -81.4935,0 -217.8241,59.079 -270.5357,117.282 -53.3855,58.9903 -98.5742,46.4598 -159.33,-44.2293 -30.493,-45.5167 -88.9337,-104.5626 -129.8476,-131.1443 -68.99,-44.8619 -73.7862,-53.7632 -64.5976,-122.2655 9.2553,-69.1906 5.8093,-75.6945 -56.3635,-101.6659 -48.5652,-20.2889 -66.3328,-39.8784 -66.3328,-73.0532 0,-64.4623 -53.2704,-131.7991 -104.0518,-131.7991 -57.9141,0 -129.631,-52.4424 -129.631,-94.7291 0,-18.8681 12.6559,-51.1993 28.397,-71.9765 39.1654,-51.7874 36.1658,-106.4715 -9.1057,-164.3079 -20.9462,-26.7594 -38.3099,-66.3936 -38.5854,-87.7924 0,-21.4319 -17.8557,-67.7143 -39.2349,-102.7535 -21.3793,-35.0727 -39.0212,-84.2295 -39.0212,-109.2576 0,-25.1057 -16.2756,-66.3602 -36.2005,-91.9098 -19.9063,-25.5386 -51.3243,-76.2715 -70.0167,-112.7203 -18.7005,-36.4156 -77.0397,-109.3466 -129.6336,-161.9331 -52.5942,-52.5975 -117.3202,-138.2255 -143.7228,-190.3348 -64.6243,-127.5263 -160.827,-203.4873 -370.0347,-291.7791 -157.4453,-66.4268 -187.2511,-87.6699 -292.212,-208.537 -142.6693,-164.28592 -391.4943,-400.99194 -457.3965,-435.28753 -28.2873,-14.71712 -145.6823,-28.80173 -282.2427,-33.81839 -207.8471,-7.43635 -246.8628,-3.96225 -349.6581,35.12809 -130.0935,49.19023 -303.0499,204.20851 -303.0499,271.61222 0,22.28635 21.9968,83.70771 48.7737,136.57174 26.7769,52.81965 48.5572,112.93131 48.5572,133.53074 0,40.85503 35.9066,61.35483 107.7357,61.34383 52.1182,0 106.4393,65.7164 106.4393,128.5585 0,63.1636 34.7917,79.2238 194.881,91.044 170.9886,12.5752 207.9164,24.7395 235.4178,76.0829 23.1278,43.2526 -22.3069,132.6654 -67.418,132.6654 -14.153,0 -41.7053,17.3584 -61.1303,39.0235 -39.1762,43.2747 -28.659,79.1351 52.0273,179.4915 36.2087,45.0392 39.2323,60.4557 20.1576,102.3096 -29.0814,63.8407 -68.6612,62.1316 -227.8308,-9.3121 -71.618,-32.1646 -137.1754,-58.3135 -145.6716,-58.3135 -19.7751,0 -41.3711,100.1674 -47.4743,219.8024 -2.8739,56.4823 -17.8104,106.4938 -37.7192,126.3833 -29.83,29.8227 -38.0053,30.2111 -85.4102,3.6847 -51.3428,-28.8127 -74.8929,-77.3814 -121.6108,-250.8018 -18.6069,-68.9906 -60.0662,-122.6427 -209.836,-271.1903 C 1048.2985,1468.4967 902.22869,1343.6564 826.43749,1292.8678 646.79763,1172.4004 596.45997,1117.2501 516.01436,953.17505 439.76064,797.66835 374.92508,729.22153 250.46443,672.89458 121.01786,614.2926 -102.70655,618.29925 -304.26304,682.42849 -618.18835,782.68494 -757.72169,906.1158 -902.34521,1211.7904 c -95.47019,201.8222 -132.97279,238.2379 -244.95669,238.2379 -56.2672,0 -102.7793,13.4408 -135.2665,39.0237 -58.0051,45.6718 -160.263,50.5775 -236.0703,11.4874 -80.1114,-41.3879 -236.5193,-175.6733 -277.9064,-238.4487 -59.6385,-90.4672 -47.0868,-186.3504 44.6567,-344.0325 44.6967,-76.89319 114.2615,-179.21399 154.5632,-227.39426 115.2294,-137.8483 158.552,-255.51875 173.2023,-469.53868 9.7553,-142.110251 23.0395,-203.509416 55.0616,-255.352205 25.2824,-40.888487 42.2693,-100.234205 42.2693,-148.059395 0,-59.35695 13.9204,-96.39384 54.6285,-143.94153 30.1133,-35.19465 65.5173,-101.2108 78.6892,-146.76066 13.1425,-45.57202 43.3253,-94.96223 66.9823,-109.90125 24.2532,-15.38308 127.98151,-33.25243 237.80257,-40.96602 107.10754,-7.43635 224.23503,-25.79387 260.34748,-40.75534 100.33044,-41.60952 150.83118,-34.25095 195.74982,28.82391 30.66938,43.0748 61.50183,59.37914 132.44882,70.02305 127.56716,19.09003 177.49578,48.99053 274.219803,163.66437 70.455064,83.60772 82.464042,110.30066 77.606455,171.4667 -5.215841,65.31705 -0.0086,74.32939 52.676882,91.69908 32.1344,10.76582 97.90834,49.023674 146.1046,85.405858 82.99337,62.6532627 93.62552,65.372656 200.0861,53.55216897 61.81996,-6.99230677 148.32354,-25.05013097 192.27976,-40.54415197 43.9482,-15.549629 99.51238,-28.180159 123.34317,-28.180159 48.99293,0 290.46874,-175.162696 309.34044,-224.364156 46.4505,-121.02238 -66.4878,-386.87414 -217.20935,-511.14846 C 739.81897,-901.86087 406.94987,-1076.247 177.19692,-1161.0313 48.862489,-1208.3458 -1.5580502,-1235.8378 2.4761421,-1256.626 c 4.5715311,-23.6185 38.9462469,-28.6464 180.3563179,-26.2267 255.11294,4.3285 551.96852,70.0228 739.63663,163.875 246.51521,123.29774 382.50901,198.6259 476.90711,263.82078 85.1054,58.7688 95.8525,60.82197 372.6361,74.35157 l 285.0578,13.87367 75.2218,-90.1787 c 44.4669,-53.28563 250.6644,-214.96342 503.7856,-394.96522 690.6142,-491.1038 878.9213,-640.1954 1187.9302,-941.4526 160.6587,-156.6497 311.6958,-294.9532 335.5666,-307.384 19.9383,-10.3218 39.7028,-15.2054 60.2641,-14.0954 z m -7674.2807,2058.501 c 37.8849,2.10933 72.4521,11.01018 99.9347,30.13336 45.6699,31.97613 99.7156,135.88387 99.7156,191.84452 0,16.6484 -58.4755,88.61342 -129.8475,159.97933 -108.9816,108.991228 -137.2156,151.877289 -177.1055,267.49456 -56.0454,162.39904 -75.6548,187.08291 -207.0209,261.65639 -88.6904,50.37803 -104.4207,69.77896 -146.1046,179.04743 -31.1453,81.64354 -73.0402,146.87157 -125.2974,195.10738 -73.1153,67.53679 -79.5179,82.02105 -93.4304,212.22203 -10.7204,100.2564 -31.6988,169.3582 -74.353,244.9527 -32.6958,57.9472 -59.3951,118.6139 -59.3951,134.8294 0,16.2932 -17.591,47.1037 -39.0212,68.5025 -43.0525,43.0857 -88.9282,48.613 -164.3158,19.9447 -43.7852,-16.6484 -49.8565,-30.1449 -49.8565,-109.9015 0,-50.0671 18.8876,-143.0647 42.0529,-206.5836 41.2667,-113.1976 41.4136,-118.5808 9.1028,-255.58534 -41.7399,-177.06081 -23.8574,-236.31774 96.0344,-320.8248 91.0456,-64.17364 110.4706,-95.27289 145.0217,-232.16651 16.2652,-64.51798 40.3286,-96.71574 109.2543,-146.10594 48.6106,-34.86155 146.8158,-114.77355 218.2921,-177.759919 132.2858,-116.616066 136.1462,-123.630562 196.3995,-353.988241 16.118,-61.62107 37.4785,-88.53589 96.6813,-121.83242 50.637,-28.43548 104.557,-42.12041 153.2586,-40.96603 z m 447.2082,1536.7197 c 168.5131,0 268.1191,48.1912 395.1836,190.7568 92.6899,103.9743 97.3308,114.6182 97.3308,220.2463 0,85.1395 -13.276,136.2167 -57.2296,219.8138 -93.0052,176.7829 -153.2532,241.2566 -340.1194,363.533 -205.9515,134.7739 -264.0046,143.8529 -393.0128,62.2096 -94.8606,-60.0674 -109.5296,-113.886 -46.6082,-170.8234 35.9414,-32.5086 38.195,-50.5333 26.448,-206.1509 -12.0117,-159.0693 -9.5147,-177.1493 37.7192,-267.4943 41.7748,-79.8567 46.1832,-100.6005 24.4938,-118.5808 -20.1629,-16.6815 -40.0879,-10.3883 -84.9743,27.3145 -123.6347,104.0634 -136.9724,32.2978 -26.015,-139.3911 91.2114,-141.1334 172.6863,-181.4335 366.7839,-181.4335 z m 3407.05934,636.2332 0,0.2139 c 100.42134,2.1092 130.78861,13.7735 229.34658,60.4777 74.36897,35.1947 180.2601,105.4063 235.20138,155.8618 94.59064,86.8712 186.9436,163.6422 270.7524,224.797 36.8877,26.8705 36.7701,28.4242 -3.0343,113.1532 -55.0188,117.0824 -320.74521,385.6314 -458.26282,463.0348 -61.7638,34.7619 -166.91441,79.1131 -233.68286,98.4139 -153.61154,44.4623 -354.229649,48.0361 -508.121889,9.3232 -233.399491,-58.7688 -485.339091,-150.4122 -525.464311,-191.2006 -22.37913,-22.8083 -68.66924,-58.9907 -102.9691,-80.4226 -34.29185,-21.4432 -107.85076,-80.9886 -163.44701,-132.4543 -99.76368,-92.3206 -100.70473,-94.2075 -65.0334,-133.9635 84.05204,-93.6526 366.42041,-256.5288 484.49161,-279.6367 45.27154,-8.7683 63.44539,-2.3767 82.80891,29.2676 28.03339,45.8718 2.40607,117.7037 -42.05276,117.7037 -14.05947,0 -61.98571,26.1492 -106.43651,58.3139 -68.04367,49.3124 -80.64079,69.3902 -80.64079,126.383 0,86.8378 93.17373,186.3616 237.15029,253.4101 162.55142,75.6831 164.28112,74.3958 177.10814,-121.8329 6.11409,-93.7299 21.7589,-228.5594 34.89871,-299.5813 22.66251,-122.4762 21.73751,-131.2555 -17.99206,-173.8531 -56.83404,-61.0438 -53.08592,-137.8816 9.53874,-200.5236 69.506017,-69.5346 154.392166,-88.8688 417.0762,-94.9401 54.174,-1.997 95.29107,-2.0639 128.76485,-1.9543 z M -3400.8966,3161.2559 c 107.6021,0 210.4644,7.7027 266.1997,22.1089 194.659,49.9784 593.0053,222.7882 681.3241,295.6858 90.1207,74.3738 90.3239,75.2284 103.4022,225.4407 15.8961,182.6991 -19.1042,553.5684 -59.831,632.3373 -16.2516,31.41 -58.585,69.135 -93.8635,83.8856 -82.8116,34.584 -124.1666,124.7515 -90.8291,197.9155 16.1207,35.3832 17.0671,57.1147 2.8177,71.3216 -11.1962,11.4539 -20.374,39.745 -20.374,63.5188 0,31.9204 14.8589,46.4822 56.7939,55.7054 102.4452,22.5198 91.5109,127.0378 -13.2226,127.0378 -45.186,0 -47.9931,5.2833 -37.5026,69.8013 17.3878,107.1265 45.8571,130.1787 141.9875,115.7501 104.8058,-15.6716 122.5306,11.787 57.6628,88.88 -75.0239,89.1574 -66.7978,163.4533 27.7473,253.4098 42.7318,40.6332 110.6017,84.2409 150.874,96.9045 104.4262,32.8084 522.2883,45.1836 669.4035,19.7229 250.6937,-43.3411 477.268,-93.941 518.0937,-115.7614 70.35613,-37.6587 359.11394,-28.1024 460.21166,15.3941 97.37098,41.7206 129.41715,85.3727 129.41715,176.0173 0,79.0908 -68.42862,147.005 -177.75776,176.2392 -46.74995,12.4531 -251.50652,86.5827 -455.00925,164.7522 -611.238,234.6863 -1124.1586,389.7042 -1443.7249,436.3754 -163.2786,23.8182 -290.7254,24.1623 -433.7664,2.1627 -134.2398,-21.7538 -527.8757,-144.4853 -545.8409,-170.1682 -5.9831,-8.657 -76.612,-58.9241 -156.9452,-111.8548 -80.3309,-52.8862 -216.3833,-166.55 -302.1864,-252.3333 -147.0831,-147.0712 -321.0447,-381.0916 -321.0447,-431.8137 0,-16.6593 40.2082,-19.8999 145.0246,-12.1421 169.4273,12.8194 241.5213,-9.6338 289.394,-90.8222 51.2012,-86.6489 41.5234,-152.0659 -33.3828,-226.9723 -36.4146,-36.4156 -83.9105,-66.116 -105.5704,-66.116 -56.7271,0 -188.2509,-163.1094 -226.0958,-280.2806 -74.5667,-230.8905 -121.2926,-545.1111 -140.2525,-943.1951 -10.3112,-216.2953 8.1086,-279.0929 89.7439,-304.9977 27.4826,-8.7681 39.4515,-29.623 39.4515,-68.2916 0,-83.2194 18.1738,-115.262 84.1109,-149.3579 92.8849,-48.0583 316.2966,-120.0233 448.5074,-144.5853 75.0427,-13.8069 187.4301,-20.7102 295.0323,-20.3774 l 0,-1.2993 z"
       id="path4201"
       inkscape:connector-curvature="0" />
  </g>
</svg>
