<?xml version="1.0" encoding="UTF-8" standalone="no"?>
<!-- Created with Inkscape (http://www.inkscape.org/) -->

<svg
   xmlns:dc="http://purl.org/dc/elements/1.1/"
   xmlns:cc="http://creativecommons.org/ns#"
   xmlns:rdf="http://www.w3.org/1999/02/22-rdf-syntax-ns#"
   xmlns:svg="http://www.w3.org/2000/svg"
   xmlns="http://www.w3.org/2000/svg"
   xmlns:sodipodi="http://sodipodi.sourceforge.net/DTD/sodipodi-0.dtd"
   xmlns:inkscape="http://www.inkscape.org/namespaces/inkscape"
   width="5197.1938mm"
   height="4500.8989mm"
   viewBox="0 0 18415.254 15948.067"
   id="svg2"
   version="1.1"
   inkscape:version="0.91 r13725"
   sodipodi:docname="Doge Full Body Tile.svg">
  <defs
     id="defs4" />
  <sodipodi:namedview
     id="base"
     pagecolor="#ffffff"
     bordercolor="#666666"
     borderopacity="1.0"
     inkscape:pageopacity="0.0"
     inkscape:pageshadow="2"
     inkscape:zoom="0.022097087"
     inkscape:cx="11657.337"
     inkscape:cy="5513.5201"
     inkscape:document-units="px"
     inkscape:current-layer="layer1"
     showgrid="false"
     inkscape:window-width="1440"
     inkscape:window-height="856"
     inkscape:window-x="0"
     inkscape:window-y="0"
     inkscape:window-maximized="1"
     showguides="false"
     fit-margin-top="0"
     fit-margin-left="0"
     fit-margin-right="0"
     fit-margin-bottom="0" />
  <metadata
     id="metadata7">
    <rdf:RDF>
      <cc:Work
         rdf:about="">
        <dc:format>image/svg+xml</dc:format>
        <dc:type
           rdf:resource="http://purl.org/dc/dcmitype/StillImage" />
        <dc:title></dc:title>
      </cc:Work>
    </rdf:RDF>
  </metadata>
  <g
     inkscape:label="Layer 1"
     inkscape:groupmode="layer"
     id="layer1"
     transform="translate(10688.653,16226.779)">
    <path
       style="opacity:1;fill:#26a69a;fill-opacity:1;fill-rule:nonzero;stroke:none;stroke-width:20;stroke-linecap:butt;stroke-linejoin:miter;stroke-miterlimit:4;stroke-dasharray:none;stroke-dashoffset:0;stroke-opacity:1"
       d="m -6084.8428,-16226.779 -4603.8102,7974.0276 4603.8102,7974.04024 9207.6264,0 4603.8165,-7974.04024 -4603.8165,-7974.0276 -9207.6264,0 z m 8110.504,3070.131 c 57.0518,0 86.231,123.185 83.2682,351.558 l -3.1212,238.556 220.0118,105.695 c 227.6068,109.368 446.3252,285.234 554.952,446.259 89.7744,133.072 264.9881,207.813 615.092,262.385 417.2516,65.041 437.3708,74.729 437.3708,210.68 0,137.674 -77.5801,366.274 -176.6719,520.713 -107.9801,168.258 -233.407,247.054 -441.7326,277.477 -348.3948,50.874 -467.355,81.813 -559.7162,145.608 -154.2035,106.516 -353.0931,356.008 -474.4552,595.193 -117.1654,230.841 -260.4284,708.7205 -320.9511,1070.409 -75.3301,450.3965 -159.4495,748.7345 -277.4727,984.1118 -98.0096,195.4576 -273.0648,455.5581 -398.5247,592.0991 -71.4897,77.8105 -85.4524,118.1347 -121.791,351.5582 -89.8735,577.5563 -242.05783,2069.0113 -242.05783,2372.094 0,206.5143 30.87496,266.0281 176.59933,340.371 116.3933,59.3883 149.9738,113.8687 149.4921,242.7579 -0.7522,213.7542 7.2519,208.8238 -338.90609,208.8238 l -308.2949,0 -62.4297,-156.95 c -34.29966,-86.3208 -75.52802,-218.9804 -91.57586,-294.7994 -30.73646,-145.2822 -83.34086,-847.2875 -127.86183,-1706.6365 -14.64239,-282.4739 -30.21516,-517.1868 -34.60983,-521.5762 -14.0683,-14.0801 -137.37044,650.5973 -164.06187,884.4879 -14.18718,124.3019 -37.401115,422.3901 -51.614563,662.4155 -32.623756,551.0615 -21.538033,602.6081 150.000233,695.9629 151.34636,82.3807 193.89433,176.6047 151.22747,335.0227 l -27.47666,102.0731 -361.34796,0 -361.32823,0 -49.27195,-131.8316 c -141.15156,-377.772 -154.38837,-494.2538 -204.66334,-1801.75 -15.14397,-393.6219 -33.57388,-785.0314 -40.98418,-869.7955 l -13.42821,-154.1144 -218.03878,-16.9605 c -610.16275,-47.4501 -1325.94345,-197.9439 -1668.94055,-350.8879 -79.804,-35.5877 -156.7441,-64.7101 -170.9839,-64.7101 -25.0617,0 -705.071,-333.6522 -824.3282,-404.4635 -35.9361,-21.3275 -62.6013,-25.1797 -68.3553,-9.8722 -31.2115,83.1164 -359.7511,575.4731 -476.4678,714.0577 -76.366,90.6653 -346.402,362.5938 -600.0998,604.2913 -499.8205,476.1563 -767.1048,765.7454 -830.8873,900.1465 -22.3298,47.0113 -46.1706,149.0329 -52.9739,226.7252 -13.613,154.9282 54.0693,733.8642 94.6509,809.6607 13.9628,26.1313 91.5298,80.8789 172.3102,121.6624 174.303,87.9882 219.3849,172.4647 176.6719,331.0787 l -26.0448,96.7632 -399.1318,0 c -358.3455,0 -400.4712,-4.4937 -412.3488,-43.9483 -26.5925,-88.4303 -141.026,-703.7644 -176.309,-947.9484 -72.1232,-499.5096 -73.3834,-561.8516 -15.7246,-787.3903 29.4762,-115.397 50.1035,-220.4078 45.7814,-233.3622 -11.8776,-35.6082 -399.7718,364.7298 -451.9538,466.4413 -58.3848,113.7749 -136.4665,453.9076 -156.0776,679.8654 -20.0401,230.9577 23.5703,319.9054 211.6776,431.7087 168.7008,100.2801 214.9507,188.7183 175.4249,335.5123 l -26.6849,99.1215 -414.1702,0 c -309.0735,0 -416.8095,-7.958 -424.543,-31.3825 -54.8215,-166.0693 -124.3448,-1092.1029 -105.4594,-1404.6849 17.427,-288.7921 80.7079,-492.94 274.82,-886.7435 180.2747,-365.7406 261.504,-573.9764 305.4707,-783.0596 53.6404,-254.9014 110.2236,-841.2952 128.0267,-1326.3004 8.6113,-234.7923 26.4342,-500.3404 39.5918,-590.114 69.2858,-471.9803 312.2937,-893.6432 659.6856,-1144.6579 l 72.2881,-52.221 -77.7386,-107.332 c -121.89,-168.259 -184.1614,-362.131 -198.5001,-618.068 -21.4654,-382.864 76.3132,-670.585 307.3645,-904.309 178.4206,-180.47 374.3407,-267.883 632.1824,-282.053 404.1929,-22.214 737.7145,151.027 912.8621,474.122 84.6011,156.075 87.3066,169.552 87.3066,437.353 0,246.933 -6.9418,290.323 -65.2276,408.059 l -65.2143,131.741 477.1277,0 c 262.4146,0 715.5166,18.112 1006.8861,40.236 1008.0276,76.541 1837.95148,19.162 2184.31396,-151.021 170.91126,-83.968 545.8326,-467.371 591.508422,-604.884 48.5395,-146.154 110.546932,-223.315 302.699248,-376.625 146.25217,-116.682 177.58258,-156.106 214.09277,-269.268 128.79889,-399.35 445.75784,-661 890.882,-735.44 98.94,-16.546 146.7735,-51.269 384.7336,-279.294 149.4592,-143.221 281.8476,-260.402 294.1805,-260.402 z m -7131.6885,2234.914 c -31.5415,0 -76.3529,84.565 -75.6468,142.748 0.5279,38.358 8.3605,35.619 49.6679,-17.193 26.9951,-34.527 49.3381,-76.895 49.668,-94.158 0.2639,-17.264 -10.3533,-31.397 -23.6891,-31.397 z"
       id="path4403"
       inkscape:connector-curvature="0" />
  </g>
</svg>
