<?xml version="1.0" encoding="UTF-8" standalone="no"?>
<!-- Created with Inkscape (http://www.inkscape.org/) -->

<svg
   xmlns:dc="http://purl.org/dc/elements/1.1/"
   xmlns:cc="http://creativecommons.org/ns#"
   xmlns:rdf="http://www.w3.org/1999/02/22-rdf-syntax-ns#"
   xmlns:svg="http://www.w3.org/2000/svg"
   xmlns="http://www.w3.org/2000/svg"
   xmlns:sodipodi="http://sodipodi.sourceforge.net/DTD/sodipodi-0.dtd"
   xmlns:inkscape="http://www.inkscape.org/namespaces/inkscape"
   width="5330.7637mm"
   height="4616.5776mm"
   viewBox="0 0 18888.533 16357.952"
   id="svg2"
   version="1.1"
   inkscape:version="0.91 r13725"
   sodipodi:docname="Inkscape Tile.svg">
  <defs
     id="defs4" />
  <sodipodi:namedview
     id="base"
     pagecolor="#ffffff"
     bordercolor="#666666"
     borderopacity="1.0"
     inkscape:pageopacity="0.0"
     inkscape:pageshadow="2"
     inkscape:zoom="0.027146617"
     inkscape:cx="6741.9319"
     inkscape:cy="9100.6013"
     inkscape:document-units="px"
     inkscape:current-layer="layer1"
     showgrid="false"
     inkscape:window-width="1440"
     inkscape:window-height="856"
     inkscape:window-x="0"
     inkscape:window-y="0"
     inkscape:window-maximized="1"
     showguides="false"
     fit-margin-top="0"
     fit-margin-left="0"
     fit-margin-right="0"
     fit-margin-bottom="0" />
  <metadata
     id="metadata7">
    <rdf:RDF>
      <cc:Work
         rdf:about="">
        <dc:format>image/svg+xml</dc:format>
        <dc:type
           rdf:resource="http://purl.org/dc/dcmitype/StillImage" />
        <dc:title></dc:title>
      </cc:Work>
    </rdf:RDF>
  </metadata>
  <g
     inkscape:label="Layer 1"
     inkscape:groupmode="layer"
     id="layer1"
     transform="translate(-4597.9277,17772.746)">
    <path
       style="opacity:1;fill:#26a69a;fill-opacity:1;fill-rule:nonzero;stroke:none;stroke-width:20;stroke-linecap:butt;stroke-linejoin:miter;stroke-miterlimit:4;stroke-dasharray:none;stroke-dashoffset:0;stroke-opacity:1"
       d="m 9320.0543,-17772.746 -4722.1266,8178.9724 4722.1266,8178.979 9444.2787,0 4722.127,-8178.979 -4722.127,-8178.9724 -9444.2787,0 z m 4780.3177,2247.223 c 219.327,0.643 253.692,4.684 377.976,45.354 152.751,49.963 281.729,116.292 377.991,194.526 35.385,28.745 185.714,171.345 334.009,316.794 l 269.54,264.415 -148.28,82.153 -148.28,82.173 -142.741,-131.439 c -223.516,-205.673 -345.684,-296.165 -502.026,-372.077 -161.88,-78.573 -267.812,-104.685 -414.925,-104.685 -147.077,0.657 -225.081,22.904 -421.468,120.665 -235.771,117.32 -415.727,255.209 -717.512,550.25 -138.06,134.993 -253.874,245.789 -257.351,244.286 -3.484,-0.643 -76.855,-31.431 -162.993,-68.366 -86.139,-36.907 -154.912,-70.877 -152.801,-75.642 16.162,-36.122 804.368,-784.966 908.9,-863.545 322.537,-242.418 444.368,-286.493 799.961,-284.862 z m 1895.7,1358.636 0,0.03 c 18.352,0 305.768,290.601 1846.327,1867.072 1664.521,1703.315 1882.722,1950.436 2000.516,2265.295 81.908,218.8913 84.198,320.1914 10.681,470.338 -129.662,264.7869 -406.698,509.8173 -794.924,703.0639 -220.7,109.862 -734.191,309.3964 -955.392,371.3189 -75.066,21.0289 -366.792,122.7352 -648.283,226.0591 -281.498,103.3374 -588.429,212.0556 -682.085,241.6463 -124.278,39.2287 -193.364,76.8668 -255.844,139.1211 -184.652,183.9944 -80.805,334.784 439.935,638.8334 484.459,282.8784 569.442,512.484 291.034,786.5298 -133.78,131.6963 -432.302,292.3201 -680.089,366.0397 -591.498,176.0283 -882.311,313.0647 -1086.195,511.6854 -133.471,130.0313 -142.12,144.7522 -142.12,242.4043 0,125.6185 44.338,188.8676 224.303,319.1764 225.099,163.0062 241.847,223.3992 81.55,294.2964 -56.947,25.1914 -170.084,92.2714 -251.443,149.1652 -81.366,56.8532 -226.69,136.4476 -322.958,176.7931 -470.136,197.0503 -1165.75,299.8328 -1364.91,201.6866 -45.783,-22.5585 -93.575,-73.4624 -122.027,-130.1667 -240.009,-478.3383 -613.964,-819.4438 -964.566,-879.6337 -67.83,-11.6414 -182.265,-31.4452 -254.206,-43.8582 -218.095,-37.787 -315.535,-143.5339 -279.467,-303.4741 10.707,-47.4656 61.421,-157.3208 112.588,-244.0152 51.168,-86.7417 134.221,-227.5616 184.593,-312.9158 60.256,-102.0853 96.19,-194.4717 105.186,-270.2759 l 13.695,-115.236 -128.425,-100.779 c -70.631,-55.4386 -197.267,-135.6287 -281.476,-178.1941 -163.367,-82.5522 -1042.192,-388.517 -1438.317,-500.7614 -303.101,-85.8619 -631.654,-245.3215 -725.3108,-351.9686 -144.1628,-164.2176 -73.4009,-267.9138 309.1308,-453.2619 312.654,-151.4799 555.555,-307.5892 620.259,-398.4528 97.789,-137.3342 38.847,-259.731 -154.308,-320.1984 -46.129,-14.4502 -147.187,-50.7821 -224.555,-80.9007 -77.375,-30.139 -323.103,-90.9989 -545.9928,-135.2226 -542.8781,-107.7571 -646.761,-135.6219 -860.1479,-230.208 -100.0833,-44.3658 -216.5605,-95.3712 -258.7395,-113.3544 -128.367,-54.7212 -219.8154,-138.3495 -288.2578,-263.7649 -122.4333,-224.367 -77.5876,-566.7182 109.1906,-834.0162 99.9283,-142.985 402.8413,-483.881 971.8631,-1093.597 479.0463,-513.31 2255.6863,-2297.83 2287.6373,-2297.83 14.958,0 100.971,32.67 191.136,72.508 l 163.866,72.393 -291.788,285.863 c -356.684,349.444 -402.057,427.807 -408.526,706.564 -5.589,240.597 19.136,328.943 100.664,359.907 33.859,12.88 303.722,29.794 599.65,38.072 l 538.075,14.673 278.713,-515.719 278.714,-515.706 188.109,697.907 c 103.42,383.908 193.546,712.465 200.311,730.123 9.136,23.777 69.585,-5.117 234.852,-112.38 416.982,-270.56 795.762,-474.142 904.63,-486.426 89.828,-10.118 120.561,-0.05 261.873,85.212 375.457,226.851 548.956,122.81 557.811,-334.513 4.809,-248.333 39.697,-347.833 122.013,-347.833 53.956,0 186.268,90.254 343.806,234.37 189.389,173.247 295.623,243.278 368.564,243.278 54.068,0 72.053,-14.518 99.647,-80.549 32.599,-78.017 31.165,-85.476 -46.492,-233.118 -120.976,-229.999 -343.085,-509.865 -634.839,-800.08 l -262.124,-260.882 148.28,-86.071 c 81.598,-47.317 155.666,-86.065 164.605,-86.065 z m 2776.55,6983.7828 c 59.423,0.1557 118.869,1.6853 178.089,0.467 115.675,4.44 242.443,-5.8951 344.188,59.4454 82.641,60.5757 154.778,135.8994 216.505,217.5108 38.356,54.8701 83.598,134.1126 37.45,197.6528 -56.617,61.9564 -149.246,63.7161 -227.318,66.5994 -4.034,-1.6244 -7.787,-1.6312 -11.686,-1.6312 -27.326,5.726 -50.892,13.4688 -69.109,22.5044 -16.754,12.3521 -31.289,27.9055 -41.721,45.6044 -102.554,32.9207 -212.402,31.1677 -319.045,35.4249 -136.554,-0.6362 -275.775,2.6126 -409.161,-30.5382 -10.397,-4.2234 -26.524,-7.8241 -29.029,-20.7108 -2.176,-5.4891 -5.402,-9.3876 -8.421,-13.7734 l -0.727,0 c -13.444,-12.0001 -48.213,-25.6516 -86.956,-35.9326 -24.061,-1.6379 -48.417,-2.0034 -68.872,-4.1354 -65.169,-5.3942 -150.653,-26.4908 -168.638,-99.5133 -13.789,-87.026 46.695,-163.5612 97.518,-227.5819 73.722,-83.0936 155.475,-175.1078 271.179,-193.5039 78.262,-12.5753 157.19,-16.0881 236.36,-17.726 l -0.01,0.3046 c 19.792,-0.4129 39.599,-0.5144 59.407,-0.467 z m -7296.978,925.0824 c 11.412,-0.061 22.827,0 34.225,0.1827 l 0.01,0 c 26.063,0.5076 52.001,1.3875 77.901,3.1472 90.679,9.5433 189.357,19.5535 263.247,78.0446 47.698,40.3928 23.126,109.598 2.023,157.3276 -62.171,130.099 -156.537,244.1776 -266.763,336.5166 -41.032,33.1712 -87.946,62.0851 -140.494,70.4844 -28.318,15.1203 -52.955,29.875 -76.91,45.7398 -13.958,20.7243 -26.71,43.2693 -51.264,52.799 -82.499,40.5552 -182.317,49.8074 -270.293,22.369 -15.282,-5.6786 -30.017,-13.2387 -42.103,-24.4063 -64.585,-59.2017 -140.546,-103.5133 -213.874,-150.5255 -70.448,-48.6027 -112.139,-140.4274 -84.947,-224.4347 39.174,-126.7623 155.375,-210.3297 269.805,-265.5246 156.013,-71.432 328.193,-100.8061 499.434,-101.7198 z m 6445.806,32.3318 c 9.39,0.5009 18.768,1.7665 28.025,3.7699 89.982,18.6601 164.3,78.2273 231.587,137.5847 61.959,57.442 126.368,121.8621 146.641,206.7087 9.377,46.0646 3.155,96.1495 -18.097,138.1261 -26.58,44.332 -83.341,51.3912 -129.8,58.5385 -113.387,12.6701 -230.983,20.8191 -341.928,-11.4112 -19.379,-6.4028 -39.187,-14.2539 -54.159,-28.6297 -42.904,-47.9259 -53.823,-114.6877 -60.187,-176.5426 -5.307,-79.5471 -0.892,-163.2634 34.304,-236.1099 31.444,-58.0985 97.881,-94.6335 163.614,-91.872 l 0,-0.1625 z"
       id="path4197"
       inkscape:connector-curvature="0" />
  </g>
</svg>
