<?xml version="1.0" encoding="UTF-8" standalone="no"?>
<!-- Created with Inkscape (http://www.inkscape.org/) -->

<svg
   xmlns:dc="http://purl.org/dc/elements/1.1/"
   xmlns:cc="http://creativecommons.org/ns#"
   xmlns:rdf="http://www.w3.org/1999/02/22-rdf-syntax-ns#"
   xmlns:svg="http://www.w3.org/2000/svg"
   xmlns="http://www.w3.org/2000/svg"
   xmlns:sodipodi="http://sodipodi.sourceforge.net/DTD/sodipodi-0.dtd"
   xmlns:inkscape="http://www.inkscape.org/namespaces/inkscape"
   width="6237.6709mm"
   height="5401.979mm"
   viewBox="0 0 22101.983 19140.87"
   id="svg2"
   version="1.1"
   inkscape:version="0.91 r13725"
   sodipodi:docname="Linux Tile.svg">
  <defs
     id="defs4" />
  <sodipodi:namedview
     id="base"
     pagecolor="#ffffff"
     bordercolor="#666666"
     borderopacity="1.0"
     inkscape:pageopacity="0.0"
     inkscape:pageshadow="2"
     inkscape:zoom="0.027146617"
     inkscape:cx="15468.868"
     inkscape:cy="9511.3509"
     inkscape:document-units="px"
     inkscape:current-layer="layer1"
     showgrid="false"
     inkscape:window-width="1440"
     inkscape:window-height="856"
     inkscape:window-x="0"
     inkscape:window-y="0"
     inkscape:window-maximized="1"
     showguides="false"
     fit-margin-top="0"
     fit-margin-left="0"
     fit-margin-right="0"
     fit-margin-bottom="0" />
  <metadata
     id="metadata7">
    <rdf:RDF>
      <cc:Work
         rdf:about="">
        <dc:format>image/svg+xml</dc:format>
        <dc:type
           rdf:resource="http://purl.org/dc/dcmitype/StillImage" />
        <dc:title></dc:title>
      </cc:Work>
    </rdf:RDF>
  </metadata>
  <g
     inkscape:label="Layer 1"
     inkscape:groupmode="layer"
     id="layer1"
     transform="translate(6028.8911,15267.83)">
    <path
       style="opacity:1;fill:#26a69a;fill-opacity:1;fill-rule:nonzero;stroke:none;stroke-width:20;stroke-linecap:butt;stroke-linejoin:miter;stroke-miterlimit:4;stroke-dasharray:none;stroke-dashoffset:0;stroke-opacity:1"
       d="m -503.39127,-15267.83 -5525.49983,9570.436 5525.49983,9570.4349 11050.98327,0 5525.5,-9570.4349 -5525.5,-9570.436 -11050.98327,0 z m 5844.31327,2527.495 c 65.6859,0.128 130.6495,7.823 230.2278,24.1 236.2982,38.601 455.1984,89.874 487.5559,114.248 11.6229,8.745 60.7258,31.251 109.1127,50.039 146.4802,56.822 320.9566,180.201 479.8683,339.294 141.1313,141.286 330.1054,394.904 330.1054,443.023 0,11.999 12.4933,36.484 27.8116,54.788 86.2866,103.489 255.1803,629.76 298.8914,931.337 68.6123,473.442 75.9847,554.827 96.1807,1063.3576 23.9191,601.9321 26.8391,629.2645 97.2792,907.0833 64.475,254.2625 195.7763,533.1805 330.5853,702.2999 70.604,88.554 474.7371,668.2706 657.5972,943.2937 56.8253,85.4543 136.1189,202.9128 176.2131,261.041 225.5797,326.9652 430.493,657.8411 589.2123,951.4454 243.871,451.0549 326.0687,641.9978 401.3675,932.1254 54.7092,210.7604 59.3945,259.099 57.9903,598.9891 -1.203,313.3156 -10.0461,411.1563 -57.3559,640.8756 -30.7221,149.0644 -55.8552,283.1867 -55.8552,297.9475 0,14.7401 24.9193,53.7873 55.3911,86.6834 156.7275,169.1059 239.5191,402.3582 240.0965,676.3914 0,81.9189 8.2206,157.9986 17.881,169.0355 9.67,11.1438 28.5933,58.9581 42.0734,106.4208 24.7475,87.1673 59.8334,139.2321 166.9324,247.7382 79.041,80.0364 257.39,198.336 324.135,214.9301 79.831,19.8325 254.175,158.7003 301.907,240.4672 62.282,106.6758 55.535,297.5229 -14.107,399.9134 -82.496,121.1737 -143.566,182.6067 -246.903,248.3108 -99.305,63.1699 -133.451,82.5438 -359.185,204.11739 -239.445,128.93968 -367.5618,199.9603 -443.6882,245.86599 -40.6708,24.53045 -126.2383,72.64732 -190.1653,106.94671 -132.7213,71.24157 -373.9376,221.71489 -633.8381,395.39687 -117.2495,78.322566 -363.9922,281.31215 -422.5591,347.61579 -58.2881,65.96073 -220.4176,153.49627 -370.1987,199.8328 -204.5474,63.32188 -459.0704,65.48396 -650.5131,5.81622 l -0.016,-0.217 C 7300.3397,374.37434 7248.4324,342.93317 7159.682,255.62967 7051.4761,149.11063 6914.4195,-33.42239 6914.4195,-70.979937 c 0,-39.319683 -258.2967,-95.361783 -644.4339,-139.863313 -572.4035,-65.97736 -766.291,-75.81599 -1041.1922,-52.9162 -443.8859,36.99445 -895.9886,86.19236 -1008.2447,109.76136 -58.1051,12.17256 -165.6585,32.68219 -239.0138,45.50733 -128.7473,22.50697 -135.9304,27.1487 -206.7934,133.923549 -144.6049,217.874641 -348.5258,327.804691 -631.7498,340.608451 -167.0611,7.5443 -223.5055,0.006 -464.8177,-65.3216 C 2527.1043,260.094 2237.1186,168.75542 2033.7552,97.823509 1206.176,-190.86187 1184.8349,-196.52445 565.33371,-291.21544 c -642.141157,-98.10437 -954.79865,-246.75854 -991.60145,-471.45361 -13.08491,-79.79643 -4.69004,-115.20378 131.41776,-555.33735 71.80704,-232.1848 74.66129,-483.6056 8.29112,-728.9054 -71.2392,-263.2972 -53.59334,-444.8656 55.11233,-567.4798 54.85336,-61.8655 236.9515919,-135.3697 451.36057,-182.1838 458.04955,-99.971 692.37417,-254.466 859.27136,-566.5517 68.6027,-128.3077 164.8824,-241.6099 267.1034,-314.3752 54.6609,-38.9483 58.9241,-48.9588 33.7054,-79.3355 -39.0828,-47.0866 -56.3771,-424.383 -25.1355,-548.4544 13.1332,-52.1623 60.7345,-173.8776 105.8015,-270.4757 160.7111,-344.4978 197.4189,-438.1252 437.3934,-1115.7948 89.1932,-251.8802 158.2093,-432.2583 199.9873,-522.6996 22.7548,-49.2676 41.3621,-95.8267 41.3621,-103.4201 0,-55.2834 207.6836,-421.3956 369.7506,-651.7968 46.483,-66.1009 98.7712,-142.0452 116.1969,-168.7884 17.4146,-26.7226 117.2557,-160.1599 221.844,-296.5243 263.1143,-343.0604 257.0897,-334.698 497.7184,-688.3169 63.8304,-93.8135 84.4105,-208.645 103.1722,-575.6007 19.3977,-379.2803 19.3795,-379.5409 -33.3181,-1250.2285 -36.3316,-600.321 -30.6579,-1163.448 14.0448,-1394.468 87.6915,-453.177 301.2119,-808.964 601.5717,-1002.444 348.5448,-224.452 625.4053,-317.21 1139.337,-381.522 68.594,-8.581 120.1124,-13.062 171.2015,-12.963 z m 346.7185,1717.877 c -72.5254,1.357 -142.3359,12.54 -192.8413,33.875 -123.167,51.973 -259.8229,193.24 -336.9116,348.251 -63.1856,127.073 -71.0808,163.155 -77.2478,353.106 -4.3487,134.444 3.3872,245.63 21.2065,304.9232 26.4502,87.9054 36.4813,96.9322 172.4545,154.5274 79.4083,33.6468 148.5789,56.9402 153.7069,51.8336 5.1288,-5.3141 -1.8112,-53.8571 -15.5606,-108.2305 -37.4087,-148.5497 -13.4017,-309.5457 62.5996,-419.9917 75.6647,-110.001 160.7539,-151.072 279.8027,-135.129 156.6213,20.999 272.1775,190.352 272.1775,398.861 0,153.4751 -32.1032,244.0225 -118.9965,335.4427 -39.1415,41.1198 -71.1529,82.0195 -71.1529,90.7976 0,18.2042 123.2684,75.2545 165.6324,76.49 15.5488,0 67.8583,-39.977 116.1969,-89.9471 l 0,-0.031 c 381.9525,-394.3312 285.6744,-1146.4642 -173.0579,-1351.9932 -67.0243,-30.038 -164.7612,-44.529 -258.0084,-42.785 z m -1601.8659,120.296 c -31.9884,0.08 -65.019,3.919 -99.042,11.539 -134.3283,30.034 -256.1775,147.683 -340.8097,329.008 -55.2865,118.435 -59.1814,144.851 -59.1814,401.414 0,258.7052 3.5868,282.4294 61.4702,407.8012 40.0555,86.7753 97.733,165.752 165.6332,226.7788 l 104.178,93.6598 103.7448,-87.4722 c 57.0566,-48.0978 103.7448,-95.4694 103.7448,-105.2922 l -0.046,-0.031 c 0,-9.9432 -20.2672,-17.7884 -45.0432,-17.7884 -196.9944,0 -363.7807,-393.148 -262.4641,-618.663 86.6145,-192.796 203.4046,-217.692 343.6409,-73.273 109.7059,112.998 142.2788,225.985 124.9981,433.7263 -12.1908,146.546 -10.8999,152.8128 27.3942,132.3301 22.111,-11.6609 43.4062,-30.1399 47.332,-40.681 3.9155,-10.4588 54.6578,-47.1135 112.7629,-81.2236 l 105.6321,-62.0112 -0.3865,-241.6896 c -0.3881,-231.174 -3.5068,-247.929 -70.9066,-383.456 -107.3157,-215.822 -249.9106,-325.091 -422.6517,-324.676 z m 719.7953,1210.5522 c -16.6567,-0.1172 -31.4372,1.8643 -46.5281,5.4757 -137.2823,32.8794 -341.3522,161.4769 -516.5436,325.5586 -35.3211,33.0156 -99.8752,84.2362 -143.4518,113.7213 -43.5765,29.4644 -79.2277,59.7865 -79.2277,67.364 0,7.5396 -28.446,30.5574 -63.2182,51.0916 -103.1825,60.9554 -115.53,106.146 -59.5988,218.1312 53.3518,106.8453 222.3595,264.6214 449.4115,419.6359 233.9991,159.7298 313.3861,182.491 477.6563,136.8776 73.3079,-20.4875 472.7058,-232.0596 685.3162,-363.1923 106.8105,-65.8942 136.3374,-83.0989 352.1324,-205.0614 133.8475,-75.6473 195.7296,-151.5321 175.4861,-215.3007 -13.4897,-42.4947 -208.4004,-209.4853 -244.5205,-209.4853 -10.6892,0 -59.7818,-18.5954 -109.0351,-41.3463 -99.267,-45.8685 -268.7206,-109.8469 -618.0447,-233.3529 -142.9829,-50.5506 -209.8655,-69.7646 -259.834,-70.117 z m 1433.4481,903.3706 c -86.8196,1.5641 -307.1992,97.1152 -560.6269,245.6497 -698.1492,409.1249 -896.6135,496.6272 -1085.7563,478.7857 -213.9085,-20.2974 -420.1554,-148.358 -738.6038,-458.6768 -83.6311,-81.5261 -154.2217,-148.1425 -156.8779,-148.0918 -2.6452,0 -5.1843,107.0259 -5.646,237.6833 -0.8656,203.3698 -9.4458,263.4984 -60.7583,417.1911 -83.6984,250.7002 -171.4771,423.2496 -333.9107,656.1899 -76.9248,110.3237 -156.4005,243.1535 -176.6155,295.1629 -20.2055,51.9389 -43.8434,104.0156 -52.4838,115.6552 -8.6594,11.6562 -35.1563,78.1285 -58.9027,147.8598 -23.7464,69.7178 -77.4529,217.0977 -119.3362,327.5228 -41.8833,110.3767 -90.5443,248.2506 -108.1228,306.3621 -17.5786,58.0909 -49.1282,143.6473 -70.132,190.1193 -20.9856,46.4878 -45.5145,108.3223 -54.5105,137.3567 -8.9959,29.0566 -61.0544,133.6329 -115.6861,232.4398 -278.4317,503.3683 -373.2835,889.553 -354.4829,1443.2867 13.1823,388.1084 64.7941,540.3795 251.9451,743.476 42.8361,46.4513 95.2454,103.5024 116.49,126.7617 47.1752,51.6158 211.5634,189.3939 450.6335,377.5926 266.7225,210.0247 272.0303,214.3203 446.9525,362.0629 88.9524,75.1199 206.3673,195.9474 260.9316,268.5274 98.2857,130.7731 99.1355,133.2757 91.2934,272.0224 -10.1118,179.236 -76.0298,273.6039 -242.5714,347.2444 -87.6535,38.7589 -111.4712,58.498 -98.4243,81.6409 48.0313,85.1945 546.3192,624.73998 585.0362,633.51342 73.4908,16.62739 1198.0694,-5.65704 1312.596,-25.66138 l 0.031,0 c 362.7567,-64.28094 745.9572,-187.31254 835.342,-268.18684 18.8299,-16.9743 42.0274,-30.9826 51.5239,-30.9826 20.2531,0 217.1952,-127.9696 338.5826,-219.9726 46.4823,-35.2078 185.2654,-164.9537 308.4039,-288.3417 l 223.9015,-224.3189 15.0039,-536.9462 c 15.6065,-557.6064 37.1187,-790.0097 81.8111,-883.2467 41.306,-86.1884 129.6335,-116.6499 326.6564,-112.6077 173.4404,3.5924 174.093,3.4245 186.5918,-54.0146 6.9084,-31.6107 20.6681,-81.2798 30.6271,-110.3189 45.828,-133.7589 70.9248,-402.4241 72.0509,-771.1799 1.2022,-374.7051 -31.8736,-751.2214 -70.3799,-802.4412 -8.8993,-11.6562 -28.3445,-78.6243 -43.1718,-148.3707 -14.8264,-69.7178 -41.0636,-160.0403 -58.315,-200.7142 -17.2515,-40.6621 -50.1063,-140.2997 -73.0251,-221.3799 -22.9093,-81.081 -49.3746,-157.1433 -58.7942,-169.0054 -9.4292,-12.1678 -24.0799,-45.3608 -32.5761,-74.4324 -15.4426,-52.8149 -30.9929,-93.8808 -208.0313,-549.32 -99.5267,-256.0682 -268.6089,-664.2308 -319.4787,-771.1957 -16.6068,-34.849 -101.2073,-220.2624 -188.0617,-412.0092 -283.0022,-624.7844 -439.0273,-916.3359 -512.3826,-957.4937 -6.6581,-3.7326 -16.3367,-5.4211 -28.7398,-5.1977 z m -4639.5929,5379.4805 c -82.1407,-2.0639 -186.3353,100.9253 -273.5849,269.7185 -200.9772,388.8964 -282.3972,467.809 -539.06482,522.6995 -86.94078,18.6137 -177.09774,41.6853 -200.34361,51.3386 -23.23638,9.4268 -108.56549,32.7852 -189.60848,51.5556 -187.30542,43.2796 -298.166831,114.6035 -317.901115,204.4421 -8.24519,37.5409 1.808065,185.5868 22.985315,334.6687 36.19695,256.2027 36.20566,275.2504 0.38727,456.5582 -20.590398,104.1044 -45.006011,198.7312 -54.262545,210.351 -9.256534,11.8288 -33.310218,95.8599 -53.4579096,187.2262 -29.9237574,135.67855 -32.1381034,181.12411 -12.0189224,248.24823 13.5474226,45.17154 34.431646,82.15174 46.420473,82.15174 11.959524,0 34.873564,12.8592 50.874506,29.1112 15.991439,15.94234 93.762008,40.45536 172.794178,54.32353 79.04168,13.71374 200.75781,38.46752 270.47643,54.64903 69.72812,16.28526 230.1755,44.5934 356.55634,63.12548 298.87799,43.86558 633.65759,134.18252 858.34239,231.52739 98.7664,42.82177 222.3579,92.08382 274.6525,109.48338 52.2937,17.37897 114.0958,40.21223 137.3416,50.72007 100.3544,45.39408 423.1816,150.269791 544.3085,176.785706 72.4897,15.9431288 199.8478,29.8611924 283.0362,31.029347 148.8387,2.064663 153.0892,-0.0063 266.6243,-91.834353 l -0.046,0 c 132.8655,-108.23365 250.971,-263.3598 289.5637,-380.28452 16.3858,-49.67546 22.6994,-137.73529 16.2726,-227.3355 -13.7209,-191.8537 -114.2653,-389.39773 -324.6147,-637.92153 -85.874,-101.4615 -156.1359,-191.5797 -156.1359,-200.251 0,-8.7449 -16.629,-34.3564 -36.9683,-57.1239 -53.1506,-59.3415 -284.7786,-414.4635 -405.4826,-621.603 -112.1888,-192.5206 -152.6164,-260.0652 -208.6339,-348.6359 -29.4043,-46.4545 -73.8036,-117.7658 -98.6556,-158.4247 -238.8199,-390.8692 -550.7567,-692.5785 -719.8571,-696.2991 z m 6123.6067,232.5023 c -43.8917,0.411 -99.0627,14.6831 -132.5155,40.2938 -59.1252,45.3727 -54.4938,-41.8714 -44.2853,835.3269 3.0499,261.5177 -5.7679,471.3697 -25.2907,602.1436 -35.3306,236.7805 -132.2367,775.13412 -162.6317,903.54081 -30.0869,127.07301 -27.1518,174.2213 22.4286,359.21655 62.1466,231.9115 144.7664,352.986935 298.7521,437.8416648 112.0921,61.7236902 207.7398,65.0531282 360.9644,12.3436292 l 0,0.09266 c 216.7865,-74.568635 358.5411,-172.381564 694.5197,-479.218874 175.711,-160.49727 349.0864,-274.63427 714.8447,-470.64898 156.8914,-84.06596 299.5021,-160.85126 316.927,-170.56716 17.4154,-9.7729 129.7079,-68.6075 249.5169,-130.7984 385.839,-200.148 448.151,-305.1742 275.596,-464.5239 -48.196,-44.4493 -126.636,-100.8208 -174.311,-125.2151 -288.9104,-147.9335 -369.1503,-225.4395 -459.7286,-444.152 -50.8119,-122.7172 -68.0079,-202.5311 -79.3513,-368.3583 -14.9809,-219.316 -21.6651,-242.3108 -93.2116,-321.815 -53.507,-59.3953 -91.8391,-60.5461 -110.0243,-3.2637 -20.7155,65.2748 -132.4457,229.4278 -219.2146,322.0779 -151.9939,162.2982 -488.3273,287.4586 -774.6297,288.2641 -360.197,2.0639 -523.5264,-161.1839 -563.3497,-559.5451 -11.623,-116.1859 -24.4869,-223.1492 -28.5854,-237.6676 -4.9712,-17.6332 -32.2822,-25.6875 -66.42,-25.3675 z"
       id="path4312"
       inkscape:connector-curvature="0" />
  </g>
</svg>
