<?xml version="1.0" encoding="UTF-8" standalone="no"?>
<!-- Created with Inkscape (http://www.inkscape.org/) -->

<svg
   xmlns:dc="http://purl.org/dc/elements/1.1/"
   xmlns:cc="http://creativecommons.org/ns#"
   xmlns:rdf="http://www.w3.org/1999/02/22-rdf-syntax-ns#"
   xmlns:svg="http://www.w3.org/2000/svg"
   xmlns="http://www.w3.org/2000/svg"
   xmlns:sodipodi="http://sodipodi.sourceforge.net/DTD/sodipodi-0.dtd"
   xmlns:inkscape="http://www.inkscape.org/namespaces/inkscape"
   width="8550.1025mm"
   height="7961.2363mm"
   viewBox="0 0 30295.639 28209.105"
   id="svg2"
   version="1.1"
   inkscape:version="0.91 r13725"
   sodipodi:docname="Rocket to the moon tile.svg">
  <defs
     id="defs4" />
  <sodipodi:namedview
     id="base"
     pagecolor="#ffffff"
     bordercolor="#666666"
     borderopacity="1.0"
     inkscape:pageopacity="0.0"
     inkscape:pageshadow="2"
     inkscape:zoom="0.01"
     inkscape:cx="1178.0919"
     inkscape:cy="18987.263"
     inkscape:document-units="px"
     inkscape:current-layer="layer1"
     showgrid="false"
     inkscape:window-width="1440"
     inkscape:window-height="856"
     inkscape:window-x="0"
     inkscape:window-y="0"
     inkscape:window-maximized="1"
     showguides="false"
     fit-margin-top="0"
     fit-margin-left="0"
     fit-margin-right="0"
     fit-margin-bottom="0" />
  <metadata
     id="metadata7">
    <rdf:RDF>
      <cc:Work
         rdf:about="">
        <dc:format>image/svg+xml</dc:format>
        <dc:type
           rdf:resource="http://purl.org/dc/dcmitype/StillImage" />
        <dc:title></dc:title>
      </cc:Work>
    </rdf:RDF>
  </metadata>
  <g
     inkscape:label="Layer 1"
     inkscape:groupmode="layer"
     id="layer1"
     transform="translate(-10390.443,23510.219)">
    <path
       style="opacity:1;fill:#26a69a;fill-opacity:1;fill-rule:nonzero;stroke:none;stroke-width:20;stroke-linecap:butt;stroke-linejoin:miter;stroke-miterlimit:4;stroke-dasharray:none;stroke-dashoffset:0;stroke-opacity:1"
       d="m 16256.324,-23510.219 -5197.849,9002.931 c 30.697,36.405 70.171,101.288 128.366,201.501 301.341,518.961 657.832,1915.544 657.832,2577.087 0,319.958 142.395,473.593 438.904,473.593 182.511,0 270.189,-55.056 463.625,-291.117 279.048,-340.546 848.419,-672.421 1169.159,-681.513 599.286,-16.983 1186.164,877.447 1618.929,2467.3602 105.828,388.7859 141.987,741.9962 149.865,1464.3022 l 10.4,951.936 267.47,43.4655 c 325.735,52.9548 440.176,15.4184 440.176,-144.3211 0,-100.0269 123.289,-204.1155 241.734,-204.1155 14.578,0 92.697,217.9815 173.617,484.3775 180.562,594.4537 158.035,1589.6334 -39.24,1733.8962 -62.479,45.6715 -394.622,100.0385 -738.122,120.8376 -1136.419,68.7582 -3746.35,94.0859 -4230.552,41.0378 -261.938,-28.7008 -722.47,-88.6936 -1023.402,-133.3146 l -396.793,-58.814 5865.881,10159.9748 16286.544,0 1096.444,-1899.0515 c -43.01,-1.4123 -73.38,-3.0696 -81.387,-5.1005 -36.813,-9.3024 -321.136,-260.6068 -631.932,-558.423 -310.772,-297.828 -645.809,-617.8322 -744.447,-711.1362 -697.97,-660.17727 -862.402,-836.60738 -862.402,-925.37101 0,-49.97842 102.034,-393.54793 226.817,-763.47225 180.387,-534.69435 242.13,-679.51737 301.119,-706.40908 25.538,-11.62506 35.973,-29.28441 57.741,-29.16769 77.698,0.23344 299.812,225.32306 1869.463,1749.12785 215.239,208.94758 429.182,416.09778 635.363,615.73128 l 434.388,-752.4191 C 33764.106,-390.17076 33401.967,-767.98517 33372.636,-819.13077 c -45.076,-78.51583 10.294,-166.42742 402.36,-639.07473 199.459,-240.4497 379.904,-460.9523 401.03,-490.0383 39.462,-54.2503 69.808,-81.6672 105.162,-80.1032 40.128,1.8558 86.756,41.0145 160.51,120.6859 125.016,135.0304 697.282,740.9341 1188.604,1259.01953 l 322.595,-558.80823 c -920.749,-912.1819 -1879.536,-1869.8837 -1897.277,-1902.763 -58.627,-108.6639 25.071,-194.7081 448.814,-461.3958 534.881,-336.6131 646.428,-402.0449 721.64,-398.3917 10.738,0.5836 20.776,2.4394 31.164,5.1939 41.131,10.8898 328.735,267.6565 639.168,570.55 212.017,206.8934 532.92,519.2993 844.241,822.2395 l 3945.435,-6833.6439 -8143.295,-14104.5582 -16286.463,0 z m 10873.959,1223.503 0.05,0 a 1958.9095,1958.9095 0 0 1 295.237,24.849 1652.0923,1652.0923 0 0 0 -1616.898,1650.852 1652.0923,1652.0923 0 0 0 1652.1,1652.1 1652.0923,1652.0923 0 0 0 1627.975,-1382.471 1958.9095,1958.9095 0 0 1 0.456,13.585 1958.9095,1958.9095 0 0 1 -1958.916,1958.893 1958.9095,1958.9095 0 0 1 -1958.893,-1958.893 1958.9095,1958.9095 0 0 1 1958.893,-1958.915 z m -9007.647,4630.683 c 347.912,0.817 511.666,20.204 912.696,83.045 689.893,108.092 1851.465,400.667 2146.854,540.775 58.674,27.825 117.149,50.632 129.942,50.632 30.416,0 723.473,275.173 976.224,387.607 754.684,335.726 1722.225,872.09 2529.058,1402.022 367.216,241.208 1165.972,810.194 1356.933,966.63 47.913,39.229 138.637,109.435 201.677,155.993 171.913,127.024 1205.866,1000.678 1438.274,1215.298 666.643,615.649 1232.571,1182.593 1820.034,1823.301 l 160.719,175.287 499.598,90.596 c 590.462,107.041 1195.012,214.235 1871.156,331.862 981.057,170.676 935.91,154.791 1181.857,416.425 451.475,480.2457 1485.569,1564.7377 1802.457,1890.2977 374.604,384.8641 537.472,581.2062 537.472,648.0737 0,85.8573 -125.238,172.0182 -376.367,258.996 -137.587,47.6441 -379.659,134.6453 -537.974,193.3541 -158.304,58.7089 -386.86,142.5821 -507.92,186.3862 -121.059,43.804 -349.662,127.4321 -507.978,185.8375 -158.315,58.3937 -493.551,179.7799 -744.984,269.7691 -689.637,246.799 -654.598,224.1909 -629.177,406.5269 11.777,84.5734 30.463,359.4781 41.552,610.9225 19.853,448.4168 -24.313,879.8396 -124.993,1220.7713 -34.14,115.6553 -31.957,119.2852 215.95,353.9106 137.75,130.3734 385.075,358.9529 549.553,507.9544 410.635,371.9435 488.941,459.9252 488.941,549.6342 0,67.1359 -121.958,220.8178 -435.134,548.3736 -30.744,32.1557 -152.492,160.2648 -270.551,284.6623 -362.431,381.9578 -394.319,391.6104 -636.928,192.6888 -90.374,-74.1156 -369.912,-304.5975 -621.228,-512.1679 -251.27,-207.5703 -475.215,-384.4439 -497.707,-393.0694 -22.445,-8.6137 -129.229,30.6617 -237.321,87.3047 -433.874,227.4123 -876.549,343.1377 -1312.838,343.1377 -157.067,0 -258.996,15.3833 -280.309,42.31 -31.175,39.4856 -138.894,388.9493 -279.165,905.8559 -32.856,121.0594 -116.881,410.58869 -186.678,643.40501 -69.82,232.80464 -153.74,522.333972 -186.514,643.404993 -130.712,482.603347 -280.367,969.781997 -323.845,1054.122097 -36.287,70.439 -126.008,142.2202 -161.198,128.9611 -3.058,-1.1789 -36.147,-15.0099 -73.404,-30.7667 -37.244,-15.7452 -465.2,-361.48568 -950.967,-768.26937 C 26614.637,29.043342 25993.98,-486.63774 25721.281,-710.14 c -563.955,-462.1778 -502.398,-358.3459 -752.711,-1269.8976 -69.05,-251.4445 -168.54,-609.557 -221.097,-795.803 -148.302,-525.5437 -285.468,-1021.1027 -374.045,-1351.5065 l -80.955,-301.7496 -286.612,-223.1288 c -421.268,-327.9411 -1282.561,-1048.2162 -1505.585,-1259.0312 -742.451,-701.9155 -1674.533,-1728.0954 -2366.294,-2605.1221 -597.139,-757.0528 -1453.448,-2053.6782 -1777.526,-2691.4692 -28.409,-55.873 -77.022,-139.676 -108.068,-186.246 -95.942,-143.796 -560.769,-1146.995 -724.477,-1563.501 -357.062,-908.505 -572.079,-1686.334 -722.003,-2611.46 -72.26,-445.989 -89.522,-669.771 -91.892,-1192.432 -2.707,-567.912 4.319,-653.991 58.383,-733.674 33.673,-49.663 86.954,-102.233 118.444,-116.834 31.467,-14.602 396.385,-32.378 810.895,-39.509 172.508,-2.976 308.916,-4.786 424.898,-4.529 z m 15340.304,178.053 c 416.46,2185.149 1695.567,2458.431 1695.567,2458.431 0,0 -1308.858,316.129 -1606.325,2509.344 -178.484,-2159.938 -1546.844,-2479.593 -1546.844,-2479.593 0,0 1398.111,-870.245 1457.602,-2488.182 z m -8830.458,5579.596 0,0.05 c -19.456,-0.234 -39.158,-0.234 -59.199,0 -45.8,0.583 -93.245,2.357 -142.687,5.31 -829.231,49.465 -1524.54,616.21 -1769.635,1442.383 -76.707,258.494 -75.96,803.098 1.342,1064.1016 197.253,665.1494 797.986,1250.6392 1410.099,1374.313 102.443,20.694 216.733,44.6328 253.977,53.1765 101.731,23.3318 623.015,-11.5083 778.156,-51.9976 190.553,-49.745 585.805,-256.8251 738.097,-386.6966 218.892,-186.6896 450.763,-506.1687 568.543,-783.2792 101.614,-239.2358 114.313,-305.613 126.545,-660.2357 10.388,-301.47 0.01,-440.457 -43.454,-590.579 -165.4,-568.986 -553.346,-1038.423 -1049.383,-1269.851 -289.985,-135.31 -520.467,-193.272 -812.401,-196.692 z m -6452.234,6621.51 c 653.618,3429.5091 2661.158,3858.3991 2661.158,3858.3991 0,0 -2054.227,496.15423 -2521.097,3938.3272 -280.122,-3389.95358 -2427.723,-3891.6402 -2427.723,-3891.6402 0,0 2194.288,-1365.7927 2287.662,-3905.0861 z m 3679.95,4572.56987 c 400.807,2103.00353 1631.827,2366.01463 1631.827,2366.01463 0,0 -1259.662,304.2357 -1545.958,2415.001 -171.773,-2078.7497 -1488.696,-2386.3702 -1488.696,-2386.3702 0,0 1345.565,-837.52947 1402.827,-2394.64543 z"
       id="path5553"
       inkscape:connector-curvature="0" />
  </g>
</svg>
