<?xml version="1.0" encoding="UTF-8" standalone="no"?>
<!-- Created with Inkscape (http://www.inkscape.org/) -->

<svg
   xmlns:dc="http://purl.org/dc/elements/1.1/"
   xmlns:cc="http://creativecommons.org/ns#"
   xmlns:rdf="http://www.w3.org/1999/02/22-rdf-syntax-ns#"
   xmlns:svg="http://www.w3.org/2000/svg"
   xmlns="http://www.w3.org/2000/svg"
   xmlns:sodipodi="http://sodipodi.sourceforge.net/DTD/sodipodi-0.dtd"
   xmlns:inkscape="http://www.inkscape.org/namespaces/inkscape"
   width="4144.2056mm"
   height="3588.9836mm"
   viewBox="0 0 14684.193 12716.871"
   id="svg2"
   version="1.1"
   inkscape:version="0.91 r13725"
   sodipodi:docname="3deasy tile.svg">
  <defs
     id="defs4" />
  <sodipodi:namedview
     id="base"
     pagecolor="#ffffff"
     bordercolor="#666666"
     borderopacity="1.0"
     inkscape:pageopacity="0.0"
     inkscape:pageshadow="2"
     inkscape:zoom="0.014142136"
     inkscape:cx="10979.695"
     inkscape:cy="6610.9916"
     inkscape:document-units="px"
     inkscape:current-layer="layer1"
     showgrid="false"
     inkscape:window-width="1440"
     inkscape:window-height="856"
     inkscape:window-x="0"
     inkscape:window-y="0"
     inkscape:window-maximized="1"
     showguides="true"
     fit-margin-top="0"
     fit-margin-left="0"
     fit-margin-right="0"
     fit-margin-bottom="0" />
  <metadata
     id="metadata7">
    <rdf:RDF>
      <cc:Work
         rdf:about="">
        <dc:format>image/svg+xml</dc:format>
        <dc:type
           rdf:resource="http://purl.org/dc/dcmitype/StillImage" />
        <dc:title></dc:title>
      </cc:Work>
    </rdf:RDF>
  </metadata>
  <g
     inkscape:label="Layer 1"
     inkscape:groupmode="layer"
     id="layer1"
     transform="translate(4392.9756,5664.93)">
    <text
       xml:space="preserve"
       style="font-style:normal;font-weight:normal;font-size:222.89576721px;line-height:125%;font-family:Sans;text-align:end;letter-spacing:0px;word-spacing:0px;text-anchor:end;fill:black;fill-opacity:1;stroke:none;stroke-width:1px;stroke-linecap:butt;stroke-linejoin:miter;stroke-opacity:1"
       x="28234.174"
       y="98.65564"
       id="text4279"
       sodipodi:linespacing="125%"><tspan
         id="tspan4285"
         sodipodi:role="line"
         x="28234.174"
         y="98.65564"
         style="font-style:normal;font-variant:normal;font-weight:normal;font-stretch:normal;font-family:Blackout;-inkscape-font-specification:Blackout;text-align:center;text-anchor:middle" /></text>
    <path
       style="opacity:1;fill:#26a69a;fill-opacity:1;fill-rule:nonzero;stroke:none;stroke-width:20;stroke-linecap:butt;stroke-linejoin:miter;stroke-miterlimit:4;stroke-dasharray:none;stroke-dashoffset:0;stroke-opacity:1"
       d="M -721.92363,-5664.93 -4392.9756,693.50813 -721.92363,7051.941 l 546.2285,0 c -39.33654,-158.4932 -66.8921,-320.9958 -82.11949,-486.4818 -17.13738,-186.2329 -5.87207,-581.745 21.67298,-761.2587 C -92.57592,4868.9423 449.80627,4054.9191 1259.2938,3559.7818 1809.6422,3223.1587 2426.1619,3069.259 3084.9226,3104.06 c 1507.6373,79.6465 2761.6235,1242.1473 2965.8041,2749.4479 30.9284,228.3266 31.0441,640.25 0.2105,854.812 -16.7638,116.7152 -39.4049,231.3678 -67.655,343.6211 l 636.8824,0 L 10291.217,693.50813 6620.1646,-5664.93 l -7342.09349,0 z m 4159.82263,974.9893 c 294.3768,0 435.117,90.3067 435.117,250.9783 0,213.4517 -266.2372,281.4751 -432.7755,287.3419 l 0,204.0648 c 0,32.8384 -24.6301,57.4684 -57.4684,57.4684 -30.4916,0 -58.6365,-24.63 -58.6365,-57.4684 l 0,-669.6734 c 0,-52.7802 3.5149,-72.7116 113.7634,-72.7116 z m -809.8611,1.1734 c 187.6483,0 537.1468,64.498 537.1468,443.32 0,262.7066 -184.1335,377.6486 -410.487,377.6486 -64.5033,0 -130.1852,-16.427 -140.7401,-19.9471 -24.6301,-7.0349 -44.5615,-31.665 -44.5615,-57.4684 l 0,-686.0847 c 0,-32.8383 25.8035,-57.4684 58.6418,-57.4684 z m 1932.4098,8.2083 c 30.4969,0 56.2898,28.1396 55.1164,56.2897 l -1.1733,44.5667 c -1.1734,31.665 -24.6301,55.1269 -56.295,55.1269 -30.4916,0 -56.2845,-26.9768 -55.1112,-57.4684 l 1.1681,-43.3985 c 1.1734,-30.4916 26.9768,-55.1164 56.295,-55.1164 z m -4897.68255,2.3467 c 28.15014,0 55.1164,21.1047 55.1164,52.7697 l 0,212.2889 c 48.08149,-35.1851 103.21368,-52.7855 165.37024,-52.7855 154.815253,0 212.278373,138.3935 212.278373,260.3651 0,170.0585 -75.058273,308.4572 -258.018403,308.4572 -44.56668,0 -91.47481,-10.5655 -126.65985,-21.1205 -9.38163,15.2484 -30.50213,26.9768 -50.43874,26.9768 -30.49687,0 -53.94304,-24.6248 -53.94304,-52.7697 l 0,-681.4123 c 0,-31.665 25.80342,-52.7697 56.29502,-52.7697 z m 2481.64805,5.8563 c 130.1799,0 231.0521,82.0984 231.0521,188.8269 0,63.3299 -30.5021,117.2835 -80.9303,157.162 65.6767,43.3933 98.515,116.0996 98.515,197.0247 0,180.6134 -146.5965,245.1219 -247.4582,245.1219 -100.8617,0 -195.8671,-52.7802 -229.8788,-127.8437 -5.8668,-12.9017 -9.3711,-28.1396 -9.3711,-35.1745 0,-30.4969 24.6196,-53.9536 56.2845,-53.9536 23.4567,0 38.7104,11.7231 49.2654,30.4916 11.7284,21.11 51.5963,73.8902 131.348,73.8902 63.33,0 136.052,-41.0519 136.052,-132.5319 0,-112.5901 -110.2538,-137.2149 -153.6471,-137.2149 -31.665,0 -56.2845,-25.8034 -56.2845,-56.295 0,-31.665 24.63,-56.295 57.4684,-56.295 63.3299,0 136.0414,-48.0868 136.0414,-104.3818 0,-36.3584 -42.2252,-75.0635 -118.4568,-75.0635 -58.6417,0 -94.9896,22.2833 -113.7581,36.3584 -14.0699,9.3816 -21.11,15.2537 -36.3585,15.2537 -38.6998,0 -56.295,-29.3235 -56.295,-56.3003 0,-18.7633 8.2083,-39.8732 48.0868,-64.5033 34.0117,-21.11 91.4748,-44.5719 158.3248,-44.5719 z m 3452.3754,12.9069 c 34.0117,0 56.3003,28.1502 56.3003,57.4684 l 0,125.4918 99.6831,0 c 31.6649,0 56.295,24.6248 56.295,57.4631 0,29.3235 -24.6301,56.3003 -56.295,56.3003 l -99.6831,0 0,418.6952 c 0,30.4916 -25.8034,55.1164 -56.3003,55.1164 -29.3182,0 -56.295,-24.6248 -56.295,-55.1164 l 0,-418.6952 -98.5097,0 c -31.6702,0 -56.3003,-26.9768 -56.3003,-56.3003 0,-35.1798 28.1501,-57.4631 58.6417,-57.4631 l 96.1683,0 0,-125.4918 c 0,-29.3182 24.63,-57.4684 56.295,-57.4684 z m -2156.5481,85.6186 0,307.2732 c 104.3818,-5.8615 316.6707,-39.8732 316.6707,-172.4051 0,-86.7866 -107.9072,-134.8681 -300.2489,-134.8681 l -16.4218,0 z m -753.5661,4.6829 0,577.0305 c 19.9366,3.5201 44.5666,7.0297 68.0233,7.0297 178.2667,0 293.2087,-85.6133 293.2087,-260.3599 0,-224.0067 -165.3702,-308.4519 -361.232,-323.7003 z m -1378.5887,91.4853 c 29.3235,0 56.3002,24.6301 56.3002,57.4684 0,7.0349 -1.1681,15.2432 -4.6881,23.4514 l -313.1454,680.2285 c -9.3816,19.9366 -28.1501,36.3584 -52.78017,36.3584 -30.4916,0 -56.2845,-25.7982 -56.2845,-57.4684 0,-7.0349 2.3362,-16.4113 5.85628,-24.6195 l 99.69359,-219.3186 -202.902,-409.3136 c -3.52008,-7.0349 -7.02964,-17.5899 -7.02964,-28.1501 0,-31.665 24.61953,-57.4631 56.28449,-57.4631 24.63006,0 42.22522,17.5951 51.6121,35.185 l 163.01825,327.2152 150.1218,-327.2152 c 9.3816,-19.9366 29.313,-36.3584 53.9431,-36.3584 z m 2958.1326,0 c 87.9599,0 112.59,60.978 112.59,111.4114 l 0,35.1851 c 0,30.4968 -23.4567,55.1269 -55.1269,55.1269 -41.0466,0 -55.1217,-29.3235 -55.1217,-56.295 l 0,-15.2537 c 0,-11.7284 -2.3414,-18.7633 -16.4113,-18.7633 -37.5317,0 -77.4102,38.6999 -112.5953,85.6133 -17.5899,22.2833 -30.4916,60.9937 -30.4916,97.3521 l -1.1681,239.2552 c 0,28.1449 -26.9767,53.943 -56.3002,53.943 -29.3183,0 -57.4632,-25.7981 -57.4632,-53.943 l 0,-474.9955 c 0,-31.665 26.9716,-56.295 57.4632,-56.295 31.6702,0 57.4683,24.63 57.4683,56.295 l 0,16.4271 c 36.3584,-41.0519 87.96,-75.0636 157.1568,-75.0636 z m -3948.04946,1.1734 c 29.31824,0 56.29502,17.5899 56.29502,55.1216 0,9.3817 -1.18388,16.4113 -2.35198,25.7982 -3.52009,35.1798 -11.72835,93.8268 -11.72835,167.717 0,204.0648 35.18504,235.735 77.40499,235.735 63.32993,0 130.1852,-44.5666 150.12181,-66.85 4.69345,-4.6882 7.04017,-16.4165 7.04017,-29.3182 l 2.34146,-334.2501 c 0,-31.6702 26.97678,-53.9535 55.12692,-53.9535 29.31824,0 56.2845,22.2833 56.2845,53.9535 l 0,476.1531 c 0,29.3182 -25.7929,56.295 -56.2845,56.295 -31.66496,0 -53.95882,-19.9419 -59.82036,-46.9134 -39.87849,28.1449 -94.99489,50.4388 -154.81,50.4388 -116.11012,0 -185.29633,-29.3235 -187.64305,-340.1221 -1.17336,-85.6133 7.03491,-148.9485 12.89645,-189.9951 7.0349,-50.4335 25.80342,-59.8098 55.12692,-59.8098 z m 4519.22896,0 c 29.3235,0 53.943,24.63 53.943,56.295 l 0,66.85 c 44.5667,-65.6766 113.7634,-121.9769 193.5099,-121.9769 155.9886,0 180.6186,125.497 178.2719,396.4171 l -1.1681,132.5214 c 0,29.3182 -22.2886,56.295 -53.9535,56.295 -30.4969,0 -56.2951,-26.9768 -56.2951,-55.1269 l 0,-153.6366 c 0,-258.0184 -34.0064,-265.0481 -71.5382,-265.0481 -37.5317,0 -84.4399,19.9314 -134.8733,112.5848 -34.0117,63.3299 -55.127,133.7053 -55.127,204.0754 l 0,98.5097 c 0,32.8383 -19.9366,58.6417 -55.1216,58.6417 -30.4916,0 -56.295,-25.7981 -56.295,-53.943 l 0,-476.1636 c 0,-31.665 28.1554,-56.295 58.647,-56.295 z m 1308.3396,1.1681 c 124.3131,0 191.1684,57.4684 191.1684,146.6017 0,49.2549 -16.4113,75.0583 -56.2898,75.0583 -37.5265,0 -55.1216,-25.8034 -55.1216,-55.1217 0,-5.8668 1.1681,-11.7283 1.1681,-21.11 0,-23.4567 -22.2781,-41.0465 -78.5731,-41.0465 -59.8151,0 -102.0403,19.9366 -102.0403,50.4282 0,41.0466 59.8151,57.4683 95.0001,68.0233 109.07,35.1851 194.6832,62.1619 194.6832,187.6536 0,84.4399 -80.9145,177.0881 -208.753,177.0881 -148.9484,0 -220.4971,-121.9664 -220.4971,-165.365 0,-30.4916 24.63,-55.1217 55.1216,-55.1217 26.9768,0 45.7453,16.4166 52.7855,38.6999 15.2431,45.74 56.295,73.8902 112.59,73.8902 75.0583,0 99.6831,-48.0815 99.6831,-70.3648 0,-34.0117 -18.7633,-52.7697 -106.7232,-79.7465 -126.6652,-38.7051 -182.9549,-86.7919 -182.9549,-175.9305 0,-121.9717 121.9611,-153.6366 208.753,-153.6366 z m -1587.6416,3.5148 c 32.8383,0 57.4683,25.8034 57.4683,57.4684 l -5.8562,466.7819 c 0,31.665 -25.8035,57.4684 -57.4684,57.4684 -31.665,0 -57.4684,-25.8034 -57.4684,-57.4684 l 5.8563,-466.7819 c 0,-31.665 25.8034,-57.4684 57.4684,-57.4684 z m -4671.32919,118.4621 c -96.16825,0 -168.88506,55.1217 -168.88506,123.145 l 0,202.8968 c 24.6248,8.2082 68.02337,19.9366 111.41668,19.9366 114.936763,0 155.983352,-78.5836 155.983352,-198.2086 0,-62.1618 -21.109975,-147.7698 -98.514972,-147.7698 z M 1357.0985,-2774.563 c 129.9116,0 371.8765,44.6509 371.8765,306.9155 0,181.8762 -127.4754,261.449 -284.1849,261.449 -44.6614,0 -90.1278,-11.3652 -97.4363,-13.8014 -17.0479,-4.8724 -30.8494,-21.915 -30.8494,-39.7785 l 0,-475.006 c 0,-22.7359 17.8582,-39.7786 40.5941,-39.7786 z m 2765.1173,5.6827 c 21.11,0 38.9735,19.4788 38.1579,38.9682 l -0.8103,30.8599 c -0.8103,21.9256 -17.0479,38.1579 -38.9682,38.1579 -21.11,0 -38.984,-18.6685 -38.1684,-39.7785 l 0.8103,-30.0496 c 0.8103,-21.11 18.679,-38.1579 38.9787,-38.1579 z m -2724.5127,77.1366 0,399.4795 c 13.8014,2.4362 30.8441,4.8723 47.087,4.8723 123.4186,0 202.9967,-59.2731 202.9967,-180.2556 0,-155.0836 -114.4895,-213.5412 -250.0837,-224.0962 z m 1184.7052,56.0162 c 21.11,0 38.9788,9.7499 38.1685,39.7943 l -8.1188,342.6477 c -2.4362,116.1101 -73.0799,168.0748 -169.7007,168.0748 -36.5373,0 -71.454,-5.6827 -95.8104,-11.3653 -17.0532,-4.0568 -30.0496,-19.4894 -30.0496,-38.1684 0,-21.9203 18.679,-38.9683 38.9787,-38.9683 8.1188,0 17.8582,1.6259 27.6029,4.0621 20.2997,4.8671 36.5426,6.4929 58.4629,6.4929 64.1455,0 88.5072,-36.5373 90.9433,-95.0001 -24.3617,17.0532 -51.9699,29.2288 -83.6348,29.2288 -95.0002,0 -164.8283,-77.947 -164.8283,-189.1848 0,-107.181 83.6296,-209.4844 193.2468,-209.4844 25.1667,0 48.7181,7.3085 67.3919,14.6171 4.0621,-14.6171 16.2377,-22.7464 37.3476,-22.7464 z m -563.1291,8.1293 c 95.0002,0 168.0801,87.6917 168.0801,188.3745 0,118.5463 -87.7022,217.6032 -190.8212,217.6032 -95.0001,0 -167.2539,-84.4452 -167.2539,-188.3745 0,-117.7359 86.8761,-217.6032 189.995,-217.6032 z m 1336.6898,0 c 60.899,0 90.9381,19.4841 123.4133,56.8317 7.3086,8.9344 10.555,17.8583 10.555,27.603 0,21.1099 -17.8582,38.1684 -38.9682,38.1684 -13.8014,0 -20.3049,-4.0568 -25.1773,-9.7394 -19.4893,-22.7359 -37.3423,-37.3582 -68.197,-37.3582 -40.5993,0 -79.5728,49.5285 -95.0001,85.2555 -8.9291,24.3565 -12.9964,47.9079 -12.9964,65.7714 0,80.3831 71.4592,103.9292 99.0674,103.9292 46.282,0 72.2643,-19.4841 90.1278,-43.8405 5.6827,-7.3085 16.2324,-20.2944 34.9062,-20.2944 21.1152,0 38.1579,17.0426 38.1579,38.9682 0,9.7394 -4.0568,17.8582 -8.9291,24.3564 -28.4185,38.1632 -84.4347,76.3264 -144.5234,76.3264 -97.4363,0 -185.1227,-73.8902 -185.1227,-177.8195 0,-38.1631 11.3653,-73.8901 19.4841,-94.1898 20.2997,-53.5905 82.8193,-133.9684 163.2025,-133.9684 z m 442.6412,0 c 95.0002,0 168.08,87.6917 168.08,188.3745 0,118.5463 -87.6916,217.6032 -190.8106,217.6032 -95.0001,0 -167.2644,-84.4452 -167.2644,-188.3745 0,-117.7359 86.876,-217.6032 189.995,-217.6032 z m 515.3423,0 c 20.2996,0 37.3528,17.048 37.3528,38.9735 l 0,46.2715 c 30.8547,-45.4665 78.7573,-84.4294 133.9684,-84.4294 107.9913,0 125.0392,86.8761 123.4134,274.4402 l -0.8103,91.7484 c 0,20.2997 -15.4221,38.9735 -37.3476,38.9735 -21.11,0 -38.9682,-18.6738 -38.9682,-38.1579 l 0,-106.376 c 0,-178.6297 -23.5515,-183.5021 -49.5338,-183.5021 -25.9823,0 -58.4576,13.8015 -93.3743,77.947 -23.5461,43.8458 -38.1579,92.5692 -38.1579,141.2874 l 0,68.2075 c 0,22.7358 -13.8067,40.5941 -38.1684,40.5941 -21.11,0 -38.9682,-17.8635 -38.9682,-37.3476 l 0,-329.6566 c 0,-21.9255 19.4841,-38.9735 40.5941,-38.9735 z m -1399.5935,0.8156 c 107.1758,0 155.8992,78.7572 155.8992,116.9152 0,13.8067 -8.1188,27.6029 -25.172,37.3476 l -217.598,125.0497 c 23.5462,33.2909 58.4576,50.3335 104.7396,50.3335 26.7979,0 62.5196,-15.422 80.3884,-34.0958 7.3032,-7.3085 16.2323,-12.9912 26.7873,-12.9912 21.9256,0 38.1579,16.2324 38.1579,38.1579 0,9.7447 -4.0567,18.6686 -9.7394,24.3565 -29.234,33.2908 -85.2502,60.0887 -135.5942,60.0887 -123.4187,0 -201.3709,-92.564 -201.3709,-194.0571 0,-111.2378 72.2643,-211.105 183.5021,-211.105 z m 1206.2362,2.4362 c 22.7358,0 39.7785,17.8582 39.7785,39.7785 l -4.0568,323.1636 c 0,21.9255 -17.8582,39.7838 -39.7837,39.7838 -21.9203,0 -39.7891,-17.8583 -39.7891,-39.7838 l 4.0568,-323.1636 c 0,-21.9203 17.8688,-39.7785 39.7943,-39.7785 z m -2104.5624,69.0073 c -58.4629,0 -107.9966,67.3972 -107.9966,144.5286 0,63.3352 35.727,116.9204 88.5019,116.9204 57.6473,0 110.4328,-65.7608 110.4328,-141.2716 0,-64.1455 -40.5941,-120.1774 -90.9381,-120.1774 z m 1779.3309,0 c -58.4576,0 -107.986,67.3972 -107.986,144.5286 0,63.3352 35.727,116.9204 88.5019,116.9204 57.6473,0 110.4222,-65.7608 110.4222,-141.2716 0,-64.1455 -40.594,-120.1774 -90.9381,-120.1774 z m -881.0047,4.8723 c -62.5249,0 -106.3654,56.8423 -109.6119,128.291 l 183.5021,-101.4931 c -12.9912,-17.8635 -36.5426,-26.7979 -73.8902,-26.7979 z m -433.4438,0.8103 c -67.3919,0 -122.603,57.6526 -122.603,134.7892 0,45.4717 23.5461,109.6119 85.2554,109.6119 42.22,0 95.0002,-24.3512 95.0002,-131.5322 l 0,-98.2466 c -14.617,-8.1188 -38.1684,-14.6223 -57.6526,-14.6223 z m 1130.857,791.6609 c 20.2944,0 39.7785,19.4894 38.9682,41.4149 l -11.3653,472.5541 c -0.8155,21.1152 -17.8687,37.3581 -39.7943,37.3581 -23.5461,0 -37.3423,-17.8688 -38.9682,-36.5426 -26.7926,17.8635 -62.5196,33.2961 -107.1757,33.2961 -99.0622,0 -145.3442,-91.7536 -145.3442,-181.8762 0,-114.4895 48.7181,-219.2396 177.0039,-219.2396 30.8546,0 60.0887,6.4982 82.8245,13.8067 l 4.0568,-120.9824 c 0.8103,-21.9203 17.8688,-39.7891 39.7943,-39.7891 z m 486.4502,5.6827 c 23.5462,0 38.9682,18.679 38.9682,39.789 l 0,174.573 c 34.1012,-43.0355 81.204,-75.5108 129.1066,-75.5108 87.6916,0 116.1101,89.3122 116.1101,268.7575 0,49.5285 0,78.7573 -2.4362,101.4931 -0.8155,20.2997 -17.0479,36.5426 -38.1579,36.5426 -23.5461,0 -38.1684,-17.0585 -38.1684,-38.1684 0,-21.11 1.6206,-43.0303 1.6206,-94.1846 0,-176.1988 -25.1615,-197.3036 -43.8406,-197.3036 -52.7749,0 -103.1242,88.502 -114.4895,111.2326 -7.3085,16.2429 -9.7447,35.7322 -9.7447,57.6525 l 0,120.9825 c 0,25.9823 -17.8582,40.5993 -38.9682,40.5993 -20.2997,0 -38.9787,-18.6791 -38.9787,-38.9787 l 0,-467.687 c 0,-21.11 17.0532,-39.789 38.9787,-39.789 z m -1449.385,13.0016 c 23.5462,0 38.9682,19.4789 38.9682,39.7786 l 0,86.8813 69.0179,0 c 21.9255,0 38.9682,17.0479 38.9682,39.7785 0,20.2997 -17.0427,38.984 -38.9682,38.984 l -69.0179,0 0,289.8623 c 0,21.1152 -17.8582,38.1684 -38.9682,38.1684 -20.2997,0 -38.9787,-17.0532 -38.9787,-38.1684 l 0,-289.8623 -68.2075,0 c -21.9256,0 -38.9735,-18.6843 -38.9735,-38.984 0,-24.3564 19.4841,-39.7785 40.5941,-39.7785 l 66.5869,0 0,-86.8813 c 0,-20.2997 17.0532,-39.7786 38.9787,-39.7786 z m -2115.41206,116.9152 c 58.45758,0 115.29456,30.0391 129.90633,37.3476 l 0,337.7754 c 0,21.1152 -16.23238,40.6046 -38.96822,40.6046 -21.10997,0 -34.09587,-12.1861 -38.15791,-28.4237 -26.79262,12.1756 -58.46284,22.7411 -90.93811,22.7411 -89.3175,0 -156.70947,-71.454 -156.70947,-177.8195 0,-83.6296 52.77494,-232.2255 194.86738,-232.2255 z m 4586.37886,8.9344 c 60.899,0 77.9522,42.2199 77.9522,77.1366 l 0,24.3565 c 0,21.11 -16.2481,38.1684 -38.1684,38.1684 -28.4185,0 -38.1579,-20.3049 -38.1579,-38.984 l 0,-10.5497 c 0,-8.1241 -1.6206,-12.9912 -11.3706,-12.9912 -25.9823,0 -53.5905,26.7979 -77.9469,59.2732 -12.1809,15.4273 -21.11,42.2147 -21.11,67.3867 l -0.8103,165.6386 c 0,19.4893 -18.6791,37.3581 -38.9788,37.3581 -20.2996,0 -39.7837,-17.8688 -39.7837,-37.3581 l 0,-328.8463 c 0,-21.9203 18.6738,-38.9682 39.7837,-38.9682 21.9203,0 39.7891,17.0479 39.7891,38.9682 l 0,11.3811 c 25.172,-28.4185 60.8937,-51.9699 108.8016,-51.9699 z m -4167.2101,0.8103 c 60.8938,0 90.9434,19.4894 123.4239,56.8422 7.3085,8.9291 10.555,17.8583 10.555,27.603 0,21.1099 -17.8583,38.1579 -38.9735,38.1579 -13.8015,0 -20.3049,-4.0621 -25.1773,-9.7447 -19.4841,-22.7359 -37.35284,-37.3476 -68.2075,-37.3476 -40.59408,0 -79.56755,49.5337 -94.99488,85.2607 -8.93438,24.3564 -12.99116,47.9079 -12.99116,65.7714 0,80.3831 71.44874,103.9292 99.05692,103.9292 46.28199,0 72.26432,-19.4946 90.12782,-43.8511 5.6826,-7.3085 16.2429,-20.2996 34.922,-20.2996 21.1099,0 38.1579,17.0479 38.1579,38.9682 0,9.7447 -4.0621,17.874 -8.9344,24.367 -28.4185,38.1631 -84.4452,76.3263 -144.52863,76.3263 -97.43632,0 -185.12796,-73.8902 -185.12796,-177.8194 0,-38.1632 11.37582,-73.8849 19.49463,-94.1846 20.29967,-53.5905 82.81403,-133.9789 163.19716,-133.9789 z m 434.5329,0 c 60.8938,0 90.9329,19.4894 123.4134,56.8422 7.3085,8.9291 10.555,17.8583 10.555,27.603 0,21.1099 -17.8582,38.1579 -38.9735,38.1579 -13.8014,0 -20.2944,-4.0621 -25.1667,-9.7447 -19.4841,-22.7359 -37.3529,-37.3476 -68.2076,-37.3476 -40.594,0 -79.5675,49.5337 -94.9948,85.2607 -8.9344,24.3564 -12.9912,47.9079 -12.9912,65.7714 0,80.3831 71.4487,103.9292 99.0569,103.9292 46.282,0 72.2643,-19.4946 90.1278,-43.8511 5.6827,-7.3085 16.2377,-20.2996 34.9115,-20.2996 21.1099,0 38.1579,17.0479 38.1579,38.9682 0,9.7447 -4.0621,17.874 -8.9344,24.367 -28.4185,38.1631 -84.4346,76.3263 -144.5181,76.3263 -97.4363,0 -185.1279,-73.8902 -185.1279,-177.8194 0,-38.1632 11.3652,-73.8849 19.4841,-94.1846 20.2996,-53.5905 82.8245,-133.9789 163.2076,-133.9789 z m 747.8414,0 c 18.6738,0 33.2856,14.6118 37.3424,32.4753 30.0443,-18.6738 69.8281,-32.4753 121.7927,-32.4753 90.1279,0 136.4151,97.4311 136.4151,184.3124 0,91.7537 -35.727,215.9879 -180.2556,215.9879 -28.4185,0 -55.2164,-6.5035 -77.1367,-13.812 l 0,124.2342 c 0,20.2997 -18.6738,38.9735 -38.9734,38.9735 -21.11,0 -38.9788,-18.6738 -38.9788,-38.9735 l 0,-470.944 c 0,-22.7306 17.0585,-39.7785 39.7943,-39.7785 z m -310.8828,0.8103 c 107.1758,0 155.8992,78.7572 155.8992,116.9204 0,13.8015 -8.1293,27.6135 -25.1825,37.3582 l -217.598,125.0339 c 23.5462,33.2909 58.4576,50.3493 104.7396,50.3493 26.7979,0 62.5249,-15.4378 80.3884,-34.1116 7.3032,-7.3085 16.2323,-12.9912 26.7873,-12.9912 21.9256,0 38.1685,16.2482 38.1685,38.1684 0,9.7447 -4.0568,18.6738 -9.7395,24.3565 -29.234,33.2908 -85.2607,60.0887 -135.6047,60.0887 -123.4187,0 -201.3604,-92.5692 -201.3604,-194.0676 0,-111.2378 72.2644,-211.105 183.5021,-211.105 z m 1224.2786,0 c 107.181,0 155.8992,78.7572 155.8992,116.9204 0,13.8015 -8.1136,27.6135 -25.1668,37.3582 l -217.6085,125.0339 c 23.5462,33.2909 58.4576,50.3493 104.7396,50.3493 26.7926,0 62.5196,-15.4378 80.3831,-34.1116 7.3086,-7.3085 16.2482,-12.9912 26.8032,-12.9912 21.9255,0 38.1579,16.2482 38.1579,38.1684 0,9.7447 -4.0568,18.6738 -9.7447,24.3565 -29.2288,33.2908 -85.2607,60.0887 -135.5995,60.0887 -123.4186,0 -201.3656,-92.5692 -201.3656,-194.0676 0,-111.2378 72.2643,-211.105 183.5021,-211.105 z m 1614.4132,0 c 107.1758,0 155.8887,78.7572 155.8887,116.9204 0,13.8015 -8.1188,27.6135 -25.172,37.3582 l -217.598,125.0339 c 23.5462,33.2909 58.4576,50.3493 104.7396,50.3493 26.7979,0 62.5249,-15.4378 80.3884,-34.1116 7.3032,-7.3085 16.2323,-12.9912 26.7873,-12.9912 21.9256,0 38.1579,16.2482 38.1579,38.1684 0,9.7447 -4.0567,18.6738 -9.7394,24.3565 -29.234,33.2908 -85.2502,60.0887 -135.5942,60.0887 -123.4187,0 -201.3603,-92.5692 -201.3603,-194.0676 0,-111.2378 72.2643,-211.105 183.502,-211.105 z m 762.7899,0 c 107.1811,0 155.8992,78.7572 155.8992,116.9204 0,13.8015 -8.1135,27.6135 -25.1667,37.3582 l -217.6085,125.0339 c 23.5461,33.2909 58.4576,50.3493 104.7395,50.3493 26.7927,0 62.5197,-15.4378 80.3832,-34.1116 7.3085,-7.3085 16.2376,-12.9912 26.7926,-12.9912 21.9255,0 38.1684,16.2482 38.1684,38.1684 0,9.7447 -4.0568,18.6738 -9.7447,24.3565 -29.2288,33.2908 -85.2607,60.0887 -135.5995,60.0887 -123.4186,0 -201.3655,-92.5692 -201.3655,-194.0676 0,-111.2378 72.2643,-211.105 183.502,-211.105 z m -4890.52135,66.5817 c -86.87607,0 -117.73073,99.0621 -117.73073,153.4682 0,43.8458 20.28915,101.4931 77.13138,101.4931 32.47527,0 69.0231,-20.3102 89.32277,-33.3013 l 2.43617,-211.9154 c -13.80146,-5.6826 -34.10639,-9.7446 -51.15959,-9.7446 z m 1752.55935,5.6879 c -63.3299,0 -99.8672,34.0958 -114.479,52.7696 l 0,176.1936 c 18.6738,7.3085 51.1544,19.4946 82.009,19.4946 75.5108,0 101.4931,-59.2784 101.4931,-137.2253 0,-39.7838 -14.617,-111.2325 -69.0231,-111.2325 z m -463.5197,4.0567 c -62.5248,0 -106.3654,56.8318 -109.6119,128.2858 l 183.5021,-101.4931 c -12.9911,-17.8635 -36.5426,-26.7927 -73.8902,-26.7927 z m 1224.2786,0 c -62.5196,0 -106.3602,56.8318 -109.6119,128.2858 l 183.5021,-101.4931 c -12.9912,-17.8635 -36.5373,-26.7927 -73.8902,-26.7927 z m 1614.4132,0 c -62.5248,0 -106.3759,56.8318 -109.6224,128.2858 l 183.5021,-101.4931 c -12.9912,-17.8635 -36.532,-26.7927 -73.8797,-26.7927 z m 762.7899,0 c -62.5196,0 -106.3601,56.8318 -109.6119,128.2858 l 183.5021,-101.4931 c -12.9911,-17.8635 -36.5373,-26.7927 -73.8902,-26.7927 z m -1939.6552,1.6259 c -84.4451,0 -99.8725,82.8246 -99.8725,139.6615 0,46.282 14.6171,111.2326 67.3973,111.2326 65.7661,0 110.4222,-43.8459 110.4222,-61.7094 l 3.2464,-168.08 c -17.8635,-8.1188 -51.1543,-21.1047 -81.1934,-21.1047 z M -1883.6247,282.33191 c 58.668,0 114.3317,9.02909 166.9803,27.08201 52.6487,18.05293 100.7775,43.61957 144.3971,76.71572 43.6248,31.59129 81.2302,69.93863 112.8215,115.0683 31.5861,45.12968 55.6584,94.02147 72.2012,146.67013 15.0432,46.63452 22.5675,97.77307 22.5675,153.43142 0,61.67249 -10.5287,119.58812 -31.5913,173.74162 -19.5525,54.15349 -47.3817,103.04529 -83.4876,146.67009 36.1059,43.6196 63.9351,92.5061 83.4876,146.6596 21.0626,52.6487 31.5913,109.8119 31.5913,171.4897 0,57.1579 -7.5243,109.0489 -22.5675,155.6834 -16.5428,52.6486 -40.6151,101.5404 -72.2012,146.6701 -31.5913,45.1244 -69.1967,84.2347 -112.8215,117.3256 -43.6196,31.5913 -91.7484,56.4055 -144.3971,74.4584 -52.6486,18.0477 -108.3123,27.0768 -166.9803,27.0768 -72.2012,0 -139.8878,-13.5384 -203.0651,-40.6151 -61.6778,-27.0768 -116.5837,-63.9245 -164.7178,-110.5538 -46.6293,-48.1394 -83.4928,-103.7977 -110.5696,-166.9803 -27.0767,-63.1774 -40.6098,-130.864 -40.6098,-203.0651 l 124.1026,0 254.9666,0 c 0,39.1102 13.5332,72.9535 40.6099,101.5299 27.0768,27.0767 60.1729,40.6151 99.2832,40.6151 31.5913,0 59.4205,-9.0291 83.4928,-27.0767 24.067,-19.5578 40.6099,-43.6249 49.6337,-72.2065 4.5145,-10.5286 6.7718,-24.067 6.7718,-40.6151 0,-39.1103 -13.5331,-75.2109 -40.6099,-108.307 -27.0767,-33.0909 -60.1729,-49.6337 -99.2884,-49.6337 l -108.307,0 0,-324.92104 108.307,0 c 39.1155,0 72.2117,-16.54281 99.2884,-49.63896 27.0768,-33.09088 40.6099,-69.19673 40.6099,-108.30701 0,-15.04322 -2.2573,-28.57634 -6.7718,-40.61513 -9.0238,-28.57633 -25.5667,-51.90149 -49.6337,-69.94915 -24.0723,-19.55777 -51.9015,-29.33403 -83.4928,-29.33403 -39.1103,0 -72.2064,13.53838 -99.2832,40.61513 -27.0767,27.07676 -40.6099,60.1729 -40.6099,99.28318 l -379.0692,0 c 0,-70.69631 13.5331,-137.64103 40.6098,-200.81837 27.0768,-63.17733 63.9403,-118.08326 110.5696,-164.71252 48.1341,-48.13938 103.04,-85.74481 164.7178,-112.82156 63.1773,-27.07675 130.8639,-40.61513 203.0651,-40.61513 z m 622.4443,0 338.45945,0 c 130.86921,0 245.94278,21.80978 345.22596,65.43461 99.27792,42.11998 182.01829,100.78803 248.20532,175.99889 66.18703,73.71128 115.82599,162.46052 148.92214,266.25298 33.09089,102.28762 49.6337,212.85721 49.6337,331.69281 0,112.8163 -12.79122,220.3709 -38.36312,322.6585 -25.5719,100.7828 -67.68662,189.532 -126.35467,266.253 -58.66279,76.7157 -135.3785,137.6305 -230.14714,182.7602 -94.76863,45.1297 -210.59988,67.6919 -347.4885,67.6919 l -49.63369,0 -338.45945,0 0,-1678.74289 z m 1313.28042,0 1028.91138,0 0,379.06927 -649.83158,0 0,270.76227 478.34193,0 0,379.07975 -478.34193,0 0,270.7623 649.83158,0 0,379.0693 -1028.91138,0 0,-1678.74289 z m 1603.12688,0 505.4292,0 491.8908,1678.74289 -430.9655,0 -151.1847,-442.2519 -327.1677,0 -148.9222,442.2519 -430.9655,0 491.8856,-1678.74289 z m 1578.6125,0 c 82.7352,0 154.9416,12.03879 216.6141,36.10584 63.1826,22.56221 115.826,51.89624 157.9459,87.99682 43.6249,36.10584 77.4787,77.4734 101.5458,124.10266 24.067,45.12967 39.8521,90.24883 47.3764,135.3785 l -331.6824,130.87448 c -4.5145,-16.54807 -11.2811,-34.60626 -20.3101,-54.15877 -9.0239,-21.06262 -21.8151,-39.8627 -38.3632,-56.41078 -15.0432,-18.04766 -33.8327,-33.09088 -56.4107,-45.12441 -21.0574,-12.03353 -45.8716,-18.04766 -74.4532,-18.04766 -30.0865,0 -57.9156,9.77626 -83.4875,29.33403 -24.0671,18.04766 -36.1006,45.8821 -36.1006,83.48753 0,28.5816 11.2758,54.14824 33.838,76.71571 24.0671,21.05736 60.9306,49.6337 110.5696,85.73954 69.1967,39.11028 135.3785,78.2153 198.5558,117.3308 64.6822,39.1103 121.8506,83.4823 171.4896,133.1213 49.639,49.6442 89.5069,106.0497 119.5934,169.227 30.0812,61.6778 45.1244,135.3838 45.1244,221.1286 l 0,31.5913 c -3.0097,54.1535 -18.8054,105.2921 -47.387,153.4314 -27.0767,46.6293 -65.4398,87.9968 -115.0788,124.1027 -48.1394,34.5957 -106.7969,62.4302 -175.9884,83.4875 -69.1967,19.5578 -147.4278,29.3288 -234.6722,29.3288 -67.6918,0 -131.6163,-9.0291 -191.784,-27.0768 -58.668,-18.0529 -112.0691,-43.6248 -160.2085,-76.7157 -48.1341,-33.0961 -89.5016,-72.9483 -124.1026,-119.5828 -33.0909,-48.1341 -57.158,-102.2929 -72.2012,-162.4658 l 361.0216,-151.1689 c -3.0097,1.5049 0,12.0335 9.0238,31.5913 10.5287,19.5525 24.8248,40.6046 42.8724,63.1668 18.053,21.0626 39.8627,40.6204 65.4347,58.6733 27.0767,16.5481 55.653,22.557 85.7395,18.0477 25.5719,-3.0097 50.3966,-14.2908 74.4637,-33.8433 25.5719,-19.5578 37.6054,-50.3914 36.1058,-92.5114 -1.5048,-25.5719 -12.0388,-48.8865 -31.5913,-69.9439 -18.0529,-22.5622 -44.3825,-45.8873 -78.9782,-69.9544 -76.7157,-51.1438 -148.1645,-95.521 -214.3515,-133.1265 -64.6874,-39.1103 -121.8506,-79.7201 -171.4896,-121.8401 -48.1394,-42.12 -86.492,-89.51219 -115.0683,-142.16085 -27.0768,-52.64866 -40.6151,-118.83043 -40.6151,-198.55584 0,-73.70601 15.0379,-138.3882 45.1244,-194.04655 30.0864,-55.65835 69.9491,-102.29288 119.5934,-139.89831 49.6389,-37.60543 106.7916,-66.18177 171.4738,-85.73954 64.6874,-19.55251 131.6269,-30.08645 200.8183,-31.5913 z m 504.3453,0 424.1937,0 196.3091,397.12746 194.0466,-397.12746 424.1937,0 -451.2757,839.37929 0,839.3636 -356.5018,0 0,-839.3636 -430.9656,-839.37929 z m 2456.4866,0 2.252,0 c 91.7589,0 170.7319,12.78069 236.919,38.35259 66.187,25.57717 122.603,58.67332 169.227,99.28845 48.1394,40.61512 86.5025,86.49196 115.0841,137.63577 30.0812,51.14381 53.3958,102.28762 69.9439,153.43142 l -327.173,182.77072 c -9.0239,-27.07676 -21.8151,-54.90593 -38.3631,-83.48754 -15.0433,-28.5816 -33.8486,-54.1535 -56.4108,-76.71571 -22.5622,-22.5622 -48.1341,-40.60986 -76.7157,-54.14824 -28.5816,-13.53838 -58.6628,-19.56303 -90.2489,-18.05819 -76.7157,6.0194 -138.3934,36.85827 -185.0227,92.51137 -45.1297,54.1535 -67.6971,122.59781 -67.6971,205.33291 l 0,327.17304 c 0,82.7299 23.3146,152.6895 69.9439,209.8475 46.6345,55.6583 108.307,86.4972 185.0227,92.5113 64.6874,4.5146 118.0885,-12.0388 160.2085,-49.6442 43.6196,-37.6054 76.721,-82.7298 99.2832,-135.3785 l 327.173,182.7655 c -13.5384,27.0767 -33.0909,61.6724 -58.6628,103.7924 -24.067,42.12 -58.668,83.4876 -103.7924,124.1027 -45.1297,40.6151 -103.0401,75.9633 -173.7417,106.0445 -69.1967,28.5816 -154.9362,42.8776 -257.2291,42.8776 l -2.2573,0 c -114.3264,0 -210.5999,-18.0582 -288.8204,-54.1587 -76.7157,-36.1006 -139.8931,-84.24 -189.532,-144.4076 -48.1394,-61.6778 -83.4823,-132.3688 -106.0498,-212.0943 -22.5622,-81.2302 -36.1006,-165.4702 -40.6151,-252.7146 l 0,-347.48846 c 1.5049,-82.7351 15.0432,-163.9601 40.6151,-243.68551 27.0768,-81.23026 66.1871,-153.43668 117.3309,-216.61402 52.6486,-63.17733 118.0885,-113.57398 196.3091,-151.17941 78.2205,-39.11028 169.227,-58.66279 273.0195,-58.66279 z m 1328.8603,0 2.2625,0 c 88.7493,0 172.2315,17.3005 250.4521,51.90149 79.7254,34.59574 150.4323,84.2347 212.1047,148.91688 54.1535,57.1632 94.7634,121.84539 121.8402,194.04655 27.0767,72.20643 41.3728,146.67013 42.8776,223.38584 l 0,392.60763 c 0,81.225 -12.7912,163.9654 -38.3631,248.2001 -24.0723,82.7351 -66.187,155.6887 -126.3547,218.866 -61.6724,66.187 -132.3793,116.5837 -212.1047,151.1847 -78.2206,34.5957 -161.7028,51.8962 -250.4521,51.8962 l -2.2625,0 c -87.2444,0 -170.7319,-17.3005 -250.4573,-51.8962 -78.2206,-34.601 -148.9222,-84.24 -212.0995,-148.9221 -58.6681,-63.1774 -100.7828,-134.6261 -126.3547,-214.3515 -24.067,-79.7254 -36.8582,-164.7231 -38.3631,-254.9772 l 0,-392.60763 c 0,-72.20116 14.2961,-145.16528 42.8777,-218.87129 28.5763,-75.21612 69.1914,-141.3979 121.8401,-198.5611 63.1773,-64.68218 133.8789,-114.32114 212.0995,-148.91688 78.2258,-34.60099 161.7081,-51.90149 250.4573,-51.90149 z m -2469.4988,1367.36549 309.1254,0 0,311.3774 -309.1254,0 0,-311.3774 z m 659.8288,1672.1657 c 30.4969,0 50.4335,19.9419 55.1269,46.9134 l 59.8099,296.7236 105.5551,-302.5904 c 8.2083,-24.63 30.4916,-41.0466 56.295,-41.0466 28.1449,0 49.2602,12.8965 56.2951,41.0466 l 72.7115,308.4572 92.6534,-304.9318 c 7.0349,-23.4567 29.3235,-43.3986 55.1217,-43.3986 29.3235,0 56.3003,22.2886 56.3003,52.7802 0,9.3816 -1.1786,15.2432 -3.5254,22.2833 l -150.1165,467.9501 c -8.2083,24.63 -25.8034,42.2199 -53.9483,42.2199 -26.9768,0 -46.9187,-12.8964 -55.1269,-43.3933 l -78.5784,-307.2732 -112.59,309.62 c -9.3816,26.9715 -29.313,41.0465 -53.9431,41.0465 -32.8383,0 -50.4334,-17.5846 -56.295,-45.7347 l -97.3521,-463.2672 c -2.3467,-11.7283 -3.5148,-18.7632 -3.5148,-28.1448 0,-24.6301 24.63,-49.2602 55.1216,-49.2602 z m 986.502,0 c 137.2201,0 242.7647,126.6599 242.7647,272.0883 0,171.2317 -126.6493,314.3186 -275.603,314.3186 -137.2149,0 -241.6019,-121.9716 -241.6019,-272.0882 0,-170.0584 125.4917,-314.3187 274.4402,-314.3187 z m 397.0538,0 c 30.4916,0 50.4335,19.9419 55.1216,46.9134 l 59.8099,296.7236 105.5551,-302.5904 c 8.2083,-24.63 30.4916,-41.0466 56.295,-41.0466 28.1502,0 49.2602,12.8965 56.2951,41.0466 l 72.7115,308.4572 92.6534,-304.9318 c 7.0402,-23.4567 29.3235,-43.3986 55.127,-43.3986 29.3182,0 56.295,22.2886 56.295,52.7802 0,9.3816 -1.1786,15.2432 -3.5254,22.2833 l -150.1112,467.9501 c -8.2136,24.63 -25.8087,42.2199 -53.9536,42.2199 -26.9768,0 -46.9134,-12.8964 -55.1269,-43.3933 l -78.5731,-307.2732 -112.5953,309.62 c -9.3816,26.9715 -29.313,41.0465 -53.9431,41.0465 -32.8383,0 -50.4282,-17.5846 -56.295,-45.7347 l -97.3416,-463.2672 c -2.3467,-11.7283 -3.5253,-18.7632 -3.5253,-28.1448 0,-24.6301 24.63,-49.2602 55.1269,-49.2602 z m -4187.9623,27.6766 c -113.2477,-0.2104 -227.3374,6.1615 -341.8585,19.2158 C 1764.1758,3460.346 1022.4801,3900.9878 545.03793,4570.3403 28.217125,5294.9092 -126.33504,6210.357 101.5022,7051.941 l 1375.8316,0 0,-375.5334 -292.4984,0 -292.51417,0 0,-382.9208 0,-382.9209 292.51417,0 292.4984,0 0,-849.7659 0,-849.766 220.7181,-8.6871 c 350.6192,-13.7909 1189.4145,-11.0285 1348.1971,4.4409 679.2287,66.166 1133.9298,251.2571 1465.2648,596.462 318.5281,331.856 485.0349,788.6723 504.4243,1383.8715 9.8657,302.9324 -23.4094,598.6614 -95.2791,864.8197 l 785.7626,0 c 25.5613,-94.1162 46.3346,-189.3268 61.9829,-285.1162 60.6096,-371.0925 46.6556,-812.271 -36.7636,-1163.5585 C 5591.4795,5013.1447 5249.5053,4446.0798 4801.3182,4060.6439 4262.3825,3597.1557 3601.5224,3350.7552 2909.4551,3349.5397 Z m 3786.2203,76.7052 c -84.4399,0 -155.9886,97.3469 -155.9886,208.7636 0,91.48 51.6121,168.8798 127.8385,168.8798 83.2718,0 159.4981,-94.9949 159.4981,-204.0701 0,-92.6482 -58.6312,-173.5733 -131.348,-173.5733 z m -4388.6649,1587.9995 0,448.1607 0,448.1608 382.9209,0 382.9155,0 0,382.9209 0,382.9208 -382.9155,0 -382.9209,0 0,375.5334 1745.5403,0 c 103.2715,-232.0308 160.0822,-586.9594 137.6673,-900.7572 -36.2058,-506.7078 -188.4323,-786.8569 -515.6264,-948.8965 -148.417,-73.4955 -293.5033,-115.505 -516.6419,-149.5851 -149.4167,-22.8253 -225.701,-27.6713 -513.2218,-32.6331 l -337.7175,-5.8247 z"
       id="path4390"
       inkscape:connector-curvature="0" />
  </g>
</svg>
