<?xml version="1.0" encoding="UTF-8" standalone="no"?>
<!-- Created with Inkscape (http://www.inkscape.org/) -->

<svg
   xmlns:dc="http://purl.org/dc/elements/1.1/"
   xmlns:cc="http://creativecommons.org/ns#"
   xmlns:rdf="http://www.w3.org/1999/02/22-rdf-syntax-ns#"
   xmlns:svg="http://www.w3.org/2000/svg"
   xmlns="http://www.w3.org/2000/svg"
   xmlns:sodipodi="http://sodipodi.sourceforge.net/DTD/sodipodi-0.dtd"
   xmlns:inkscape="http://www.inkscape.org/namespaces/inkscape"
   width="4813.771mm"
   height="4168.8457mm"
   viewBox="0 0 17056.667 14771.501"
   id="svg2"
   version="1.1"
   inkscape:version="0.91 r13725"
   sodipodi:docname="3deasy dogecoin accepted tile.svg">
  <defs
     id="defs4" />
  <sodipodi:namedview
     id="base"
     pagecolor="#ffffff"
     bordercolor="#666666"
     borderopacity="1.0"
     inkscape:pageopacity="0.0"
     inkscape:pageshadow="2"
     inkscape:zoom="0.028284271"
     inkscape:cx="11135.568"
     inkscape:cy="3635.7512"
     inkscape:document-units="px"
     inkscape:current-layer="layer1"
     showgrid="false"
     inkscape:window-width="1440"
     inkscape:window-height="856"
     inkscape:window-x="0"
     inkscape:window-y="0"
     inkscape:window-maximized="1"
     showguides="true"
     fit-margin-top="0"
     fit-margin-left="0"
     fit-margin-right="0"
     fit-margin-bottom="0" />
  <metadata
     id="metadata7">
    <rdf:RDF>
      <cc:Work
         rdf:about="">
        <dc:format>image/svg+xml</dc:format>
        <dc:type
           rdf:resource="http://purl.org/dc/dcmitype/StillImage" />
        <dc:title></dc:title>
      </cc:Work>
    </rdf:RDF>
  </metadata>
  <g
     inkscape:label="Layer 1"
     inkscape:groupmode="layer"
     id="layer1"
     transform="translate(-15994.041,18125.53)">
    <text
       xml:space="preserve"
       style="font-style:normal;font-weight:normal;font-size:222.89576721px;line-height:125%;font-family:Sans;text-align:end;letter-spacing:0px;word-spacing:0px;text-anchor:end;fill:black;fill-opacity:1;stroke:none;stroke-width:1px;stroke-linecap:butt;stroke-linejoin:miter;stroke-opacity:1"
       x="28234.174"
       y="98.65564"
       id="text4279"
       sodipodi:linespacing="125%"><tspan
         id="tspan4285"
         sodipodi:role="line"
         x="28234.174"
         y="98.65564"
         style="font-style:normal;font-variant:normal;font-weight:normal;font-stretch:normal;font-family:Blackout;-inkscape-font-specification:Blackout;text-align:center;text-anchor:middle" /></text>
    <path
       style="opacity:1;fill:#26a69a;fill-opacity:1;fill-rule:nonzero;stroke:none;stroke-width:20;stroke-linecap:butt;stroke-linejoin:miter;stroke-miterlimit:4;stroke-dasharray:none;stroke-dashoffset:0;stroke-opacity:1"
       d="m 20683.198,-17389.409 -3839.159,6649.644 3839.159,6649.615 1247.023,0 c 40.626,-132.6145 54.858,-302.6472 19.635,-379.9323 -36.587,-80.361 -30.686,-121.6752 32.683,-229.1094 134.226,-227.5411 172.243,-568.7787 179.159,-1608.955 6.576,-990.0306 6.943,-993.877 92.009,-993.877 146.663,0 346.219,169.3449 560.993,476.0696 113.719,162.3785 236.348,337.4626 272.501,389.0667 l 65.732,93.8207 53.833,-128.0198 c 29.626,-70.4233 53.834,-213.5423 53.834,-318.0382 0,-237.0607 28.959,-315.1383 116.749,-315.1383 104.87,0 191.028,118.9349 330.065,455.4895 l 126.723,306.7963 454.873,7.4121 c 414.527,6.7738 482.837,18.9677 770.16,137.2477 377.423,155.3626 528.989,150.3992 881.534,-28.7514 131.707,-66.9291 307.894,-134.1113 391.496,-149.3042 83.636,-15.1873 218.114,-60.8046 298.821,-101.3703 302.345,-151.9673 434.497,-81.4781 507.623,270.7702 72.079,347.1254 27.432,584.3567 -161.502,858.1534 -174.859,253.4698 -165.518,298.6193 61.991,299.7638 305.399,1.5408 376.552,233.8857 177.752,580.4553 -101.778,177.4778 -183.392,264.4367 -381.802,377.4506 l 1526.455,0 3839.17,-6649.615 -3839.17,-6649.644 z m 949.577,1294.709 c 67.64,0.07 134.906,2.2 169.035,6.322 366.589,44.142 682.224,191.465 944.537,440.88 68.767,65.388 124.451,129.896 209.671,242.888 l 69.998,92.808 -184.146,1.48 -184.135,1.486 -35.692,-40.153 c -120.933,-136.021 -261.192,-243.824 -416.538,-320.146 -124.608,-61.217 -252.91,-101.266 -393.377,-122.82 -85.643,-13.14 -283.806,-13.277 -368.669,-0.225 -139.487,21.422 -263.204,60.199 -389.293,122.027 -136.042,66.709 -245.365,144.842 -353.471,252.595 -71.469,71.232 -111.25,119.662 -167.735,204.243 -275.129,411.985 -297.723,954.516 -57.746,1386.515 135.184,243.356 317.863,420.217 562.37,544.473 199.29,101.276 368.289,141.568 591.505,141.006 161.663,-0.385 277.914,-19.11 419.289,-67.452 306.361,-104.76 559.362,-314.417 722.495,-598.696 l 24.407,-42.536 167.122,0 c 91.923,0 167.134,1.228 167.134,2.729 0,7.314 -105.755,202.829 -133.72,247.214 -241.331,383.063 -635.556,647.373 -1088.294,729.649 -120.938,21.978 -366.504,27.019 -489.835,10.042 l 0,-0.05 c -289.364,-39.823 -541.78,-145.083 -779.424,-325.016 -77.236,-58.482 -221.726,-201.469 -280.797,-277.89 -163.562,-211.589 -265.425,-432.307 -316.715,-686.217 -26.088,-129.143 -32.291,-205.916 -28.89,-357.916 3.285,-146.74 10.786,-215.683 35.069,-322.264 54.097,-237.419 162.567,-463.694 314.243,-655.561 54.367,-68.773 187.927,-202.29 257.305,-257.218 247.009,-195.571 526.611,-310.411 843.027,-346.261 35.618,-4.034 103.63,-6.003 171.27,-5.931 z m -193.099,762.175 c 112.717,0.368 215.541,2.234 248.276,5.425 280.043,27.289 467.509,103.6 604.123,245.926 131.327,136.819 199.984,325.17 207.984,570.579 6.35,195.3 -30.717,383.415 -104.239,528.867 -32.086,63.501 -66.389,112.205 -113.536,161.256 -111.737,116.249 -248.549,178.143 -458.366,207.341 -57.014,7.918 -324.911,11.588 -431.982,5.921 -37.39,-1.976 -118.311,-5.933 -179.814,-8.794 -61.509,-2.833 -117.746,-5.827 -124.993,-6.652 -7.23,-0.809 -20.546,-1.607 -29.598,-1.772 l -16.444,-0.269 0,-342.069 0,-342.079 -120.597,0 -120.607,0 0,-157.867 0,-157.893 120.607,0 120.597,0 0,-350.356 0,-350.35 90.999,-3.582 c 72.283,-2.851 194.879,-3.984 307.59,-3.599 l 0,-0.03 z m 7289.832,92.891 c 31.139,0 36.83,1.656 54.576,15.924 10.895,8.76 25.439,25.99 32.306,38.282 l 12.489,22.358 -10.737,446.971 c -10.356,431.443 -11.106,447.704 -21.462,468.009 -12.299,24.101 -37.304,45.044 -59.809,50.074 -8.509,1.904 -18.951,4.22 -23.205,5.156 -4.253,0.935 -19.251,-1.36 -33.327,-5.112 -17.669,-4.711 -30.999,-12.722 -43.043,-25.863 l -17.454,-19.039 -29.363,13.173 c -67.638,30.353 -165.152,38.371 -228.554,18.786 -141.243,-43.624 -224.411,-206.267 -205.383,-401.662 6.432,-66.048 14.835,-104.248 34.391,-156.309 52.43,-139.581 178.741,-218.341 334.45,-208.545 28.404,1.788 60.568,5.766 71.47,8.826 10.901,3.064 21.332,4.049 23.192,2.189 1.86,-1.86 4.839,-47.113 6.621,-100.561 3.737,-112.403 9.585,-132.13 46.783,-157.91 18.286,-12.673 26.202,-14.747 56.059,-14.747 z m -1735.149,28.47 0,0.03 c 28.097,-0.219 67.85,23.893 83.584,50.653 13.392,22.792 14.193,27.915 15.937,102.228 l 1.828,78.232 65.623,1.673 c 62.742,1.612 66.45,2.338 84.582,16.177 57.856,44.182 50.473,137.029 -13.358,167.925 -18.88,9.14 -32.037,10.956 -80.036,10.956 l -57.446,0 -1.515,259.1 -1.504,259.093 -14.67,24.96 c -11.336,19.281 -20.713,27.772 -41.249,37.336 -33.375,15.545 -50.671,15.561 -83.819,0.104 -29.225,-13.607 -44.45,-31.547 -53.006,-62.416 -3.808,-13.768 -5.74,-103.22 -5.74,-268.988 l 0,-248.374 -63.571,-1.711 c -57.166,-1.536 -65.386,-2.955 -81.669,-14.131 -60.299,-41.369 -60.841,-127.437 -1.042,-165.361 23.738,-15.077 26.552,-15.573 85.41,-15.573 l 60.872,0 0,-68.321 c 0,-37.573 2.456,-77.082 5.427,-87.795 10.703,-38.547 57.234,-75.514 95.362,-75.788 z m -3810.7,214.214 0,0 c 69.39,0.336 133.317,16.206 209.552,52.061 l 50.825,23.904 -0.107,322.775 c -0.11,303.792 -0.68,324.02 -9.726,343.94 -20.305,44.71 -62.598,67.617 -108.754,58.906 -21.207,-4 -39.523,-12.992 -54.875,-26.952 -10.962,-9.971 -11.354,-9.965 -47.869,0.914 -107.105,31.893 -206.699,18.604 -286.3,-38.201 -59.249,-42.276 -98.404,-101.975 -122.039,-186.055 -16.969,-60.387 -16.131,-156.156 1.978,-224.598 37.814,-142.932 112.205,-245.7 212.327,-293.331 56.371,-26.82 88.21,-33.688 154.977,-33.363 z m -1800.503,2.796 0,184.78 0,184.769 157.878,0 157.881,0 0,157.893 0,157.867 -157.881,0 -157.878,0 0,179.816 c 0,168.09 0.503,179.833 7.673,180.383 90.838,7.033 247.357,8.826 321.241,3.664 196.247,-13.695 294.221,-56.567 363.671,-159.114 59.285,-87.542 94.927,-266.573 83.873,-421.296 -14.924,-208.915 -77.691,-324.411 -212.585,-391.218 -61.2,-30.31 -121.025,-47.643 -213.013,-61.691 -61.624,-9.409 -93.062,-11.407 -211.617,-13.444 z m 3340.662,15.038 c 91.818,-0.219 146.489,19.942 205.995,76.08 66.285,62.527 77.127,115.133 33.887,164.382 -20.492,23.342 -42.223,32.669 -76.081,32.669 -32.449,0 -40.599,-4.198 -80.939,-41.744 -43.999,-40.95 -76.784,-49.639 -117.404,-31.122 -29.39,13.398 -50.99,33.088 -78.349,71.43 -32.185,45.105 -48.441,91.031 -51.792,146.333 -4.606,75.948 23.107,127.249 85.205,157.739 24.829,12.194 35.952,14.478 70.719,14.478 55.318,0 88.183,-15.721 128.237,-61.344 33.28,-37.902 54.186,-49.513 89.172,-49.513 49.557,0 89.389,36.004 93.406,84.439 3.324,40.07 -5.879,61.393 -43.935,101.738 -83.3,88.302 -190.876,130.503 -300.402,117.846 -47.912,-5.536 -74.305,-13.344 -121.165,-35.833 -141.15,-67.739 -216.867,-212.69 -193.734,-370.892 24.845,-169.9 135.866,-318.153 273.35,-365.026 25.686,-8.754 45.839,-11.55 83.83,-11.66 z m -777.78,0.105 c 95.483,0.55 151.361,24.195 214.873,90.904 49.238,51.715 56.809,81.539 32.866,129.583 -17.845,35.806 -45.361,52.49 -86.571,52.49 -35.437,0 -50.008,-7.027 -80.497,-38.855 -56.128,-58.586 -112.281,-57.134 -171.809,4.441 -36.395,37.644 -58.058,75.876 -70.438,124.283 -26.072,101.938 0.269,175.503 76.134,212.767 24.833,12.194 35.958,14.483 70.718,14.472 54.906,0 89.28,-16.205 127.508,-60.161 14.879,-17.102 35.692,-35.52 46.246,-40.906 22.555,-11.506 59.524,-12.701 82.926,-2.686 52.584,22.495 72.568,92.643 40.658,142.706 -32.641,51.214 -110.466,110.852 -177.665,136.148 -25.357,9.541 -118.63,27.282 -119.533,22.731 -0.05,-0.385 -16.303,-2.537 -36.058,-4.825 -139.014,-16.101 -255.736,-109.096 -299.025,-238.239 -66.406,-198.124 70.544,-475.074 264.591,-535.031 23.87,-7.379 46.97,-10.042 85.076,-9.822 z m 2118.315,0 0.03,0 c 14.313,-0.275 28.633,1.43 38.669,5.211 7.985,3.01 21.839,12.541 30.792,21.174 l 16.272,15.716 32.714,-12.931 c 57.063,-22.566 106.318,-30.7 173.313,-28.598 55.187,1.728 63.529,3.335 95.329,18.336 120.57,56.886 193.077,222.874 174.077,398.536 -23.045,213.069 -129.309,337.468 -303.518,355.352 -41.744,4.281 -108.924,0.72 -141.308,-7.473 l -14.176,-3.566 0,94.663 c 0,52.061 -2.46,103.406 -5.437,114.114 -10.687,38.481 -57.427,75.684 -95.083,75.684 -8.506,0 -24.763,-4.204 -36.132,-9.371 l -0.05,0 c -23.805,-10.813 -52.146,-40.868 -57.885,-61.377 -5.145,-18.401 -5.145,-891.488 0,-909.889 5.458,-19.501 33.804,-50.487 53.822,-58.851 9.982,-4.172 24.276,-6.455 38.584,-6.73 z m -547.656,0.325 c 56.16,0.275 99.702,11.099 151.153,36.692 77.51,38.557 139.324,116.832 146.401,185.368 3.78,36.637 -4.356,60.816 -28.331,84.186 -10.449,10.185 -101.306,65.734 -201.89,123.446 -100.583,57.712 -183.625,107.17 -184.533,109.911 -2.922,8.76 46.961,36.609 81.347,45.419 63.732,16.327 130.503,-0.435 185.415,-46.618 28.173,-23.684 40.295,-28.57 70.889,-28.57 59.737,0 104.534,60.122 88.989,119.446 -9.03,34.474 -62.905,83.916 -124.304,114.076 -67.766,33.292 -127.949,46.003 -195.302,41.248 -221.516,-15.627 -376.955,-198.861 -355.665,-419.26 10.912,-112.932 50.298,-200.577 121.586,-270.589 61.993,-60.881 130.55,-90.343 219.344,-94.249 8.594,-0.386 16.878,-0.496 24.901,-0.496 l 0,0 z m 2206.842,0 c 56.155,0.275 99.701,11.099 151.152,36.692 77.51,38.557 139.324,116.832 146.402,185.368 3.78,36.637 -4.357,60.816 -28.331,84.186 -10.454,10.185 -101.307,65.734 -201.89,123.446 -100.584,57.712 -183.626,107.17 -184.533,109.911 -2.922,8.76 46.961,36.609 81.347,45.419 63.732,16.327 130.504,-0.435 185.415,-46.618 28.173,-23.684 40.301,-28.57 70.889,-28.57 59.743,0 104.533,60.122 88.988,119.446 -9.029,34.474 -62.905,83.916 -124.304,114.076 -73.141,35.927 -133.351,47.345 -208.198,39.492 -137.287,-14.399 -250.567,-91.42 -306.679,-208.551 -28.305,-59.082 -37.783,-102.394 -37.282,-170.164 0.925,-124.713 43.294,-231.542 122.714,-309.378 62.169,-60.925 130.645,-90.343 219.409,-94.249 8.595,-0.386 16.879,-0.496 24.901,-0.496 l 0,0 z m -8036.97,3600.896 c 59.697,0 116.332,9.189 169.906,27.558 53.574,18.368 102.56,44.395 146.95,78.071 44.39,32.141 82.658,71.172 114.803,117.092 32.144,45.92 56.632,95.664 73.47,149.238 15.306,47.45 22.967,99.505 22.967,156.139 0,62.757 -10.716,121.691 -32.146,176.795 -19.899,55.104 -48.221,104.848 -84.958,149.238 36.737,44.39 65.059,94.145 84.958,149.249 21.43,53.575 32.146,111.738 32.146,174.495 0,58.169 -7.661,110.978 -22.967,158.428 -16.838,53.574 -41.326,103.3182 -73.47,149.238 -32.145,45.9198 -70.413,85.7207 -114.803,119.3916 -44.39,32.1467 -93.376,57.404 -146.95,75.7718 -53.574,18.368 -110.209,27.5575 -169.906,27.5575 -73.474,0 -142.352,-13.7732 -206.641,-41.3251 -62.758,-27.552 -118.634,-65.0637 -167.616,-112.5133 -47.452,-48.9848 -84.951,-105.6184 -112.504,-169.9061 -27.553,-64.2874 -41.324,-133.1704 -41.324,-206.6424 l 126.282,0 259.453,0 c 0,39.801 13.772,74.243 41.324,103.324 27.553,27.558 61.228,41.325 101.026,41.325 32.144,0 60.467,-9.189 84.958,-27.557 24.492,-19.898 41.329,-44.384 50.513,-73.466 4.593,-10.714 6.889,-24.487 6.889,-41.325 0,-39.796 -13.782,-76.537 -41.335,-110.213 -27.552,-33.677 -61.227,-50.515 -101.025,-50.515 l -110.204,0 0,-330.634 110.204,0 c 39.798,0 73.473,-16.838 101.025,-50.515 27.553,-33.671 41.335,-70.4 41.335,-110.201 0,-15.31 -2.296,-29.087 -6.889,-41.337 -9.184,-29.081 -26.021,-52.798 -50.513,-71.166 -24.491,-19.898 -52.814,-29.857 -84.958,-29.857 -39.798,0 -73.473,13.784 -101.026,41.336 -27.552,27.552 -41.324,61.228 -41.324,101.024 l -385.735,0 c 0,-71.942 13.771,-140.061 41.324,-204.353 27.553,-64.288 65.052,-120.152 112.504,-167.606 48.982,-48.98 104.858,-87.251 167.616,-114.802 64.289,-27.552 133.167,-41.337 206.641,-41.337 z m 633.388,0 344.401,0 c 133.17,0 250.275,22.204 351.301,66.594 101.025,42.86 185.213,102.547 252.564,179.084 67.35,75.002 117.863,165.322 151.539,270.94 33.675,104.09 50.513,216.586 50.513,337.513 0,114.803 -13.014,224.245 -39.035,328.333 -26.022,102.559 -68.885,192.869 -128.582,270.9304 -59.697,78.0664 -137.763,140.0651 -234.197,185.9849 -96.434,45.9199 -214.297,68.8826 -353.59,68.8826 l -50.513,0 -344.401,0 z m 1336.366,0 1046.992,0 0,385.738 -661.256,0 0,275.529 486.761,0 0,385.738 -486.761,0 0,275.519 661.256,0 0,385.7379 -1046.992,0 z m 1631.307,0 514.306,0 500.54,1708.2619 -438.548,0 -153.828,-450.0259 -332.933,0 -151.539,450.0259 -438.537,0 z m 1606.362,0 c 84.189,0 157.66,12.254 220.419,36.747 64.29,22.963 117.869,52.798 160.727,89.539 44.39,36.737 78.824,78.826 103.316,126.281 24.491,45.92 40.57,91.851 48.224,137.771 l -337.523,133.17 c -4.592,-16.838 -11.483,-35.211 -20.667,-55.115 -9.185,-21.427 -22.187,-40.56 -39.024,-57.398 -15.308,-18.368 -34.442,-33.671 -57.402,-45.914 -21.43,-12.244 -46.687,-18.38 -75.77,-18.38 -30.614,0 -58.937,9.961 -84.958,29.858 -24.491,18.368 -36.735,46.68 -36.735,84.951 0,29.081 11.474,55.103 34.434,78.066 24.492,21.427 62.003,50.509 112.516,87.25 70.411,39.79 137.762,79.591 202.051,119.392 65.82,39.796 123.983,84.956 174.495,135.471 50.513,50.514 91.079,107.918 121.693,172.205 30.614,62.759 45.923,137.76 45.923,225.005 l 0,32.147 c -3.061,55.103 -19.14,107.1477 -48.223,156.1271 -27.553,47.4551 -66.581,89.545 -117.094,126.2864 -48.981,35.2007 -108.682,63.5284 -179.094,84.9558 -70.412,19.8977 -150.006,29.8466 -238.786,29.8466 -68.881,0 -133.934,-9.1895 -195.162,-27.5575 -59.698,-18.3678 -114.035,-44.3846 -163.017,-78.061 -48.982,-33.6708 -91.076,-74.2365 -126.283,-121.6916 -33.675,-48.9793 -58.173,-104.0888 -73.479,-165.3168 l 367.368,-153.839 c -3.061,1.53 0,12.249 9.189,32.147 10.715,19.898 25.256,41.33 43.624,64.293 18.368,21.428 40.558,41.331 66.58,59.699 27.553,16.838 56.633,22.963 87.247,18.368 26.023,-3.06 51.279,-14.544 75.77,-34.446 26.021,-19.899 38.275,-51.274 36.745,-94.135 -1.531,-26.022 -12.246,-49.75 -32.146,-71.183 -18.367,-22.957 -45.163,-46.674 -80.369,-71.165 -78.065,-52.045 -150.767,-97.206 -218.119,-135.471 -65.819,-39.801 -123.992,-81.126 -174.505,-123.986 -48.982,-42.855 -88.01,-91.075 -117.093,-144.65 -27.552,-53.574 -41.325,-120.92 -41.325,-202.047 0,-75.006 15.3,-140.83 45.914,-197.463 30.614,-56.639 71.18,-104.094 121.693,-142.36 50.513,-38.271 108.675,-67.353 174.495,-87.25 65.82,-19.898 133.939,-30.611 204.351,-32.147 z m 513.201,0 431.658,0 199.752,404.106 197.462,-404.106 431.659,0 -459.216,854.131 0,854.1309 -362.768,0 0,-854.1309 z m 2499.676,0 2.289,0 c 93.372,0 173.736,13.014 241.086,39.036 67.351,26.022 124.754,59.699 172.205,101.029 48.983,41.325 88.011,88.016 117.094,140.059 30.614,52.045 54.342,104.083 71.18,156.128 l -332.923,185.985 c -9.184,-27.557 -22.197,-55.88 -39.034,-84.961 -15.307,-29.082 -34.442,-55.098 -57.402,-78.056 -22.961,-22.963 -48.986,-41.341 -78.07,-55.114 -29.083,-13.779 -59.692,-19.899 -91.836,-18.368 -78.065,6.124 -140.821,37.501 -188.273,94.134 -45.922,55.109 -68.88,124.756 -68.88,208.942 l 0,332.934 c 0,84.191 23.717,155.362 71.169,213.532 47.451,56.632 110.218,88.009 188.284,94.134 65.82,4.594 120.157,-12.244 163.017,-50.515 44.39,-38.266 78.065,-84.186 101.025,-137.76 l 332.923,185.975 c -13.777,27.551 -33.669,62.7685 -59.691,105.6233 -24.492,42.8604 -59.704,84.9558 -105.626,126.2865 -45.92,41.3251 -104.852,77.3015 -176.795,107.913 -70.412,29.0816 -157.655,43.6251 -261.742,43.6251 l -2.3,0 c -116.333,0 -214.292,-18.3789 -293.888,-55.1148 -78.066,-36.7358 -142.361,-85.7096 -192.874,-146.9379 -48.981,-62.758 -84.953,-134.7002 -107.914,-215.8312 -22.961,-82.656 -36.732,-168.382 -41.324,-257.162 l 0,-353.591 c 1.531,-84.186 15.302,-166.836 41.324,-247.962 27.552,-82.661 67.35,-156.133 119.394,-220.421 53.573,-64.287 120.165,-115.573 199.761,-153.838 79.596,-39.795 172.203,-59.704 277.821,-59.704 z m 1352.219,0 2.299,0 c 90.311,0 175.269,17.608 254.863,52.815 81.128,35.206 153.061,85.72 215.82,151.537 55.106,58.169 96.441,123.992 123.993,197.465 27.553,73.472 42.093,149.243 43.624,227.304 l 0,399.516 c 0,82.656 -13.013,166.847 -39.035,252.562 -24.491,84.191 -67.354,158.4222 -128.582,222.71 -62.759,67.3527 -134.692,118.6321 -215.82,153.8383 -79.594,35.2061 -164.552,52.8146 -254.863,52.8146 l -2.299,0 c -88.781,0 -173.728,-17.6085 -254.855,-52.8146 -79.595,-35.2062 -151.54,-85.7207 -215.829,-151.5382 -59.697,-64.2878 -102.561,-137.0001 -128.582,-218.1311 -24.491,-81.126 -37.503,-167.601 -39.035,-259.441 l 0,-399.516 c 0,-73.471 14.541,-147.714 43.624,-222.715 29.083,-76.537 70.419,-143.885 123.993,-202.054 64.289,-65.817 136.234,-116.331 215.829,-151.537 79.597,-35.207 164.543,-52.815 254.855,-52.815 z m -2512.908,1391.4068 314.556,0 0,316.8551 -314.556,0 z m 2312.016,509.6523 c 77.748,2.058 122.808,61.1403 147.691,100.0607 11.446,19.9087 21.699,40.3621 32.253,60.711 33.369,17.8067 63.142,48.4345 83.98,94.3489 2.036,4.6057 4.342,9.1564 5.976,13.9162 24.454,41.7378 42.722,86.1115 64.022,129.5221 18.765,46.4151 40.238,91.7186 57.263,138.8435 17.763,47.7908 35.03,95.8071 49.513,144.7149 14.411,50.3275 26.573,101.9921 19.012,154.6747 -1.436,8.4356 4.203,24.4484 -4.31,25.3123 -315.666,32.0642 -322.11,115.9084 -348.969,-21.1193 -1.65,-7.9678 -3.195,-15.6331 -6.017,-23.3533 -11.881,-27.6399 -25.677,-54.4435 -36.187,-82.6392 -16.382,-38.3866 -32.854,-76.6688 -49.428,-114.9729 -1.227,-3.2466 -2.502,-6.4712 -3.729,-9.7178 -5.496,7.9679 -11.562,16.7006 -19.442,28.0417 -22.753,35.4977 -46.998,70.0381 -72.223,103.819 -29.631,45.5621 -61.075,89.6661 -94.426,132.5704 -36.775,45.2926 -71.956,92.0543 -114.309,132.4826 -37.506,36.3616 -74.781,73.0754 -116.761,104.3911 -42.013,35.1126 -86.614,66.4394 -131.516,97.7111 -46.938,30.3968 -92.613,62.6205 -142.027,89.1214 -51.071,23.6229 -96.945,58.1082 -150.238,77.5107 -60.414,21.9942 -119.089,48.8307 -184.113,55.3129 -56.409,6.5922 -112.426,7.6927 -169.229,6.3225 l -109.506,0 c -249.024,0 -249.024,-352.1713 0,-352.1713 l 109.495,0 91.375,0 c 24.486,0 24.979,7.8359 23.45,-2.0854 40.516,-3.9235 75.076,-21.5155 112.235,-36.1306 41.232,-19.9253 79.982,-44.0049 120.834,-64.6399 35.976,-20.7011 69.669,-44.5828 104.281,-67.5234 31.53,-24.3934 66.504,-43.8343 95.9,-70.935 36.318,-26.6826 68.281,-58.2404 100.477,-89.5451 31.696,-31.0461 58.02,-66.7695 85.775,-101.2107 26.121,-33.1757 50.033,-67.749 73.039,-103.1422 8.811,-16.3319 20.961,-31.068 33.017,-45.8703 -36.45,12.5627 -73.209,24.1568 -110.688,33.2637 -54.603,10.8238 -108.487,25.0537 -164.091,30.2427 -14.01,-0.1101 -38.952,13.333 -42.034,-0.3302 -69.806,-309.498 -138.251,-337.1104 18.927,-354.9666 28.179,-3.8189 56.463,-7.6432 83.421,-17.1959 45.886,-11.8252 91.074,-26.2587 137.149,-37.4017 0.599,-0.165 1.199,-0.3301 1.794,-0.4952 16.645,-6.02 33.26,-12.1004 49.878,-18.1644 41.094,-16.7336 82.62,-33.0214 122.575,-52.3909 27.029,-14.2685 54.345,-27.8161 82.497,-39.7458 10.912,-4.4737 12.205,-4.9635 15.358,-6.0365 -4.826,1.04 13.142,-7.0435 19.196,-10.268 14.658,-7.2085 29.773,-13.41 44.944,-19.43 27.971,-3.7858 55.694,-12.1058 83.906,-11.3575 l 0,-0.055 z m -3363.167,629.7868 c 18.39,0.4843 36.843,7.0379 52.415,19.8702 24.718,20.382 32.552,41.5782 32.662,88.3235 0.07,33.6543 -1.501,42.5742 -11.059,61.7455 -6.901,13.8557 -16.981,25.9946 -26.364,31.789 l -15.164,9.382 12.402,7.5662 c 18.286,11.1154 35.097,32.906 40.313,52.2754 3.033,11.3245 4.179,101.5024 3.364,268.0739 l -1.203,250.9935 -12.445,18.3185 c -23.826,35.1126 -72.062,49.304 -109.205,32.1081 -9.558,-4.4242 -22.644,-13.6796 -29.093,-20.547 -25.653,-27.3868 -25.214,-21.9006 -25.214,-295.5432 0,-246.6355 0.126,-251.0431 9.211,-269.7687 5.454,-11.2695 16.217,-23.6671 26.353,-30.3748 15.192,-10.0589 16.236,-11.7978 9.243,-15.5065 -14.214,-7.5388 -28.134,-22.2749 -36.542,-38.6619 -6.492,-12.6726 -8.265,-25.4058 -8.265,-59.4619 0,-50.0578 2.561,-58.7851 24.193,-82.7327 17.195,-19.0338 40.748,-28.5094 64.398,-27.8491 z m 1028.087,5.2441 c 24.69,0.1321 42.012,6.5866 57.822,21.5265 22.791,21.5484 27.77,37.4457 31.21,99.6865 l 3.18,57.5194 43.023,0 c 48.869,0 64.139,4.7323 85.259,26.4129 29.208,29.9896 32.388,75.7003 7.846,112.7883 -17.669,26.699 -40.124,35.9435 -92.45,38.084 l -44.247,1.8104 1.86,67.9306 c 4.825,176.9275 36.795,322.1872 32.927,336.2025 -12.321,44.6266 -90.959,74.5777 -133.083,64.3648 -18.368,-4.4572 -37.493,-15.0939 -48.685,-27.0842 -21.967,-23.5294 -22.488,-28.3883 -25.719,-239.8506 l -3.02,-198.1789 -37.314,0 c -47.159,0 -66.221,-5.3761 -87.324,-24.4429 -46.839,-42.3156 -37.312,-114.7033 18.766,-142.6459 18.874,-9.4096 27.95,-11.0164 62.496,-11.0164 l 40.41,0 0.107,-57.5524 c 0.133,-65.3553 5.474,-83.7893 30.534,-104.8755 18.852,-15.8587 32.273,-20.7562 56.392,-20.6461 l 0,-0.033 z m -2128.891,1.992 c 77.632,-0.1156 184.284,11.1319 237.336,27.3922 129.857,39.8064 199.675,113.5368 212.734,224.6964 18.984,161.52 -112.135,286.9756 -348.453,333.4071 l -73.835,14.5106 0,103.5714 c 0,102.889 -0.193,103.7419 -25.396,128.9662 -31.574,31.5743 -81.904,34.8374 -116.588,7.5551 -12.48,-9.8112 -26.375,-32.3062 -30.898,-49.9642 -4.513,-17.6636 -9.502,-191.3061 -11.07,-385.9082 -3.329,-411.7048 -9.939,-382.7442 91.278,-400.0831 16.359,-2.7954 39.024,-4.1435 64.892,-4.1435 z m -795.577,16.1943 c 14.125,-0.033 30.159,0.5613 48.439,1.7169 106.746,6.7518 169.969,23.1222 260.56,67.4628 156.617,76.6743 236.493,211.4458 236.218,398.6249 -0.204,127.2108 -35.584,217.8454 -114.074,291.972 -102.196,96.5279 -273.986,137.6549 -431.874,103.3898 -106.201,-23.0508 -102.08,-6.6418 -109.366,-435.6139 -5.282,-311.0884 -4.348,-361.0691 7.125,-383.2614 16.509,-31.932 41.787,-44.181 102.972,-44.2911 z m -1313.699,19.43 c 54.036,0.7539 107.748,52.7211 87.086,111.9794 -19.21,55.1204 -411.329,726.0672 -429.532,734.9705 -33.957,16.6071 -53.037,18.0929 -80.369,6.2676 -34.364,-14.8628 -55.424,-44.7037 -55.424,-78.5012 0,-15.8862 18.993,-60.0948 47.783,-111.1926 26.286,-46.6572 47.783,-88.8132 47.783,-93.705 0,-4.892 -58.651,-105.9321 -130.334,-224.5258 -109.333,-180.9005 -130.24,-221.0755 -130.13,-249.4363 0.463,-75.1885 80.777,-116.0625 136.299,-69.3503 13.68,11.5062 71.212,97.6341 127.851,191.3997 56.645,93.7601 104.08,169.3889 105.411,168.0572 1.337,-1.3427 46.044,-78.6718 99.36,-171.8541 53.31,-93.1823 105.096,-178.1492 115.072,-188.8298 16.817,-18.0158 38.003,-25.5544 59.144,-25.2793 z m 812.805,5.244 0,0 c 95.174,-0.3687 185.716,38.1391 228.329,107.0876 40.115,64.9095 38.66,161.7347 -3.375,225.2575 l -21.731,32.8235 26.255,36.2297 c 72.042,99.4498 68.094,254.7078 -8.823,347.9672 -40.67,49.304 -125.138,87.1128 -202.148,90.5025 -35.487,1.5573 -80.409,-2.3441 -103.465,-8.9859 -135.345,-38.9864 -221.304,-173.4278 -152.141,-237.9797 43.505,-40.5987 100.659,-31.7835 141.555,21.8401 79.612,104.3747 241.06,31.3212 191.723,-86.7552 -15.425,-36.8899 -46.82,-55.2524 -108.561,-63.4403 -69.867,-9.2665 -108.052,-60.3644 -86.828,-116.189 13.224,-34.777 33.059,-51.8187 67.032,-57.5305 50.713,-8.5127 60.521,-12.4801 87.925,-35.5418 33.098,-27.8546 33.232,-50.9383 0.387,-67.925 -40.077,-20.7231 -87.575,-16.4476 -142.404,12.8212 -26.87,14.34 -60.445,26.0662 -74.609,26.0607 -37.627,0 -70.35,-32.0256 -75.478,-73.8624 -6.329,-51.5436 17.559,-83.3161 89.17,-118.5882 46.19,-22.7426 97.316,-33.6269 147.176,-33.792 z m -1601.547,8.5677 c 15.335,0.1925 30.096,3.2411 41.624,9.4151 39.443,21.1083 44.443,50.2009 45.257,263.6112 0.798,209.8666 -6.679,282.9146 -37.4,365.0035 -37.633,100.6054 -97.064,162.3454 -189.542,196.9463 -54.213,20.2883 -163.913,28.9771 -212.089,16.7887 -120.382,-30.4464 -211.311,-134.7111 -253.682,-290.888 -16.261,-59.8966 -36.951,-424.6635 -27.084,-477.2526 9.091,-48.4401 41.38,-74.4678 92.407,-74.4678 34.963,0 44.694,3.9014 62.507,25.0647 20.458,24.3164 21.253,30.6169 26.491,211.5394 7.061,244.0107 25.75,338.0074 78.79,396.3193 73.042,80.3006 206.929,48.3575 252.188,-60.1828 20.245,-48.5171 24.495,-102.7239 25.794,-329.0105 l 1.204,-210.4884 24.386,-20.9707 c 16.475,-14.1694 43.605,-21.7576 69.149,-21.4274 z m -1306.027,16.541 0.03,0 171.82,2.8229 c 166.813,2.7459 173.096,3.4997 215.808,26.0441 50.877,26.8532 101.512,79.4147 121.8,126.4516 18.67,43.35 18.787,135.872 0.172,179.9375 l -14.423,34.1937 34.564,35.305 c 45.595,46.5748 63.077,90.9374 63.517,161.245 0.809,129.434 -80.971,213.0251 -254.294,259.9189 -95.747,25.9067 -291.627,43.3721 -329.882,29.4229 -29.335,-10.7248 -51.554,-40.7914 -55.736,-75.4142 -2.366,-19.6611 -6.603,-189.4296 -9.415,-377.2635 l -5.126,-341.5126 30.577,-30.5784 30.598,-30.5729 z m 9121.246,76.4432 c 0.22,1.1281 0.341,1.7004 0.913,4.6443 0.385,1.9975 1.645,7.9678 1.139,5.9979 -0.88,-3.4282 1.128,-10.1029 -2.052,-10.6422 z m -2228.585,29.2908 c 24.752,0.055 48.646,2.4376 69.622,7.3791 60.563,14.2794 112.167,55.775 130.893,105.2111 12.573,33.2032 13.871,86.238 2.816,114.8849 -8.474,21.9832 -31.238,45.122 -48.675,49.4966 -5.927,1.4857 -10.78,3.1365 -10.78,3.6318 0,0.5282 8.761,10.0698 19.474,21.2457 37.006,38.6178 52.553,84.9945 49.235,146.8666 -1.596,29.8189 -4.569,41.8368 -16.476,66.6978 -37.402,78.0831 -116.391,127.1064 -210.8,130.7932 -28.361,1.106 -53.246,-0.5227 -71.674,-4.6828 -96.942,-21.8841 -189.38,-114.5877 -188.478,-189.006 0.325,-28.0691 8.48,-45.7767 29.567,-64.2932 32.096,-28.1683 79.293,-29.1642 111.202,-2.3111 7.369,6.2015 18.96,22.2803 25.762,35.6958 20.531,40.4998 39.116,52.6166 80.585,52.6166 37.665,0 67.354,-16.4585 67.354,-37.3576 0,-15.5231 -17.642,-25.5765 -79.295,-45.2155 -136.466,-43.4492 -192.435,-90.2825 -207.468,-173.6535 -13.905,-77.131 23.807,-153.0679 92.75,-186.7828 41.253,-20.1839 99.922,-31.3267 154.386,-31.2167 z m -1055.051,16.0237 c 8.491,0.1376 16.962,0.7704 25.384,1.9205 83.146,11.374 131.801,60.1882 156.591,157.1069 15.71,61.4484 19.708,116.5247 19.818,275.5741 l 0.107,152.3581 -11.951,18.0873 c -39.449,59.682 -131.355,44.9678 -154.698,-24.7621 -2.884,-8.6172 -5.051,-44.8028 -5.051,-86.8818 -0.132,-87.6081 -6.564,-214.7254 -12.876,-254.2181 -2.542,-15.9523 -7.725,-36.7304 -11.499,-46.173 -5.861,-14.6536 -8.796,-17.1738 -19.872,-17.1738 -34.122,0 -74.577,39.1515 -105.282,101.926 -37.721,77.1036 -45.857,116.8273 -45.967,225.3511 -0.06,67.4134 -1.263,81.4342 -8.115,96.2749 -21.058,45.6392 -70.308,61.9601 -116.899,38.7388 -22.604,-11.264 -35.968,-25.4939 -44.107,-46.9048 -6.669,-17.5425 -14.511,-503.0877 -8.491,-525.6211 9.08,-33.9846 50.302,-63.4624 88.871,-63.5174 23.964,0 57.245,20.2223 70.127,42.7393 6.366,11.1154 12.058,20.8496 12.553,21.6145 0.523,0.7594 10.437,-5.9044 22.021,-14.7913 42.486,-32.6033 91.713,-50.4594 140.813,-51.615 l 0.02,0 c 2.832,-0.066 5.671,-0.083 8.502,-0.033 z m -822.188,10.7578 c 62.361,0 103.524,23.3809 127.786,72.6189 12.97,26.3247 14.547,33.6708 15.896,74.0934 1.353,41.05 0.528,46.7893 -9.652,67.4518 -35.09,71.0947 -139.92,62.9617 -160.082,-12.414 -2.834,-10.6202 -6.962,-19.3144 -9.158,-19.3144 -8.831,0 -59.665,58.3724 -71.083,81.6267 l -12.187,24.8171 -1,149.3537 -0.999,149.3371 -11.049,18.8852 c -18.714,31.932 -65.929,51.5766 -98.747,41.0774 -22.891,-7.313 -42.602,-22.8746 -54.338,-42.9043 l -11.844,-20.2169 -3.525,-206.4054 c -1.915,-113.5311 -2.962,-230.8482 -2.246,-260.7222 1.183,-49.5627 2.215,-55.6376 11.993,-69.5154 13.493,-19.1768 19.833,-24.5089 41.431,-34.8925 31.844,-15.3084 73.17,-7.1974 97.416,19.1163 5.794,6.2951 11.911,11.4346 13.584,11.4346 1.69,0 14.023,-6.5977 27.406,-14.6591 30.017,-18.0708 71.103,-28.768 110.398,-28.768 z m 1880.464,141.5508 c -31.949,-0.8639 -80.906,9.9158 -80.906,19.3805 0,6.5977 23.222,17.8452 66.215,32.0916 54.508,18.0707 56.282,18.2468 53.124,5.6512 -1.354,-5.4091 -3.862,-19.54 -5.557,-31.4257 -3.021,-21.0864 -3.504,-21.6531 -20.431,-24.575 -3.676,-0.6713 -7.884,-1.0125 -12.445,-1.1226 z m 1105.479,2395.5352 c 72.839,-0.016 149.403,27.5518 203.588,78.1269 55.776,52.0389 82.795,124.267 70.116,187.3992 -9.084,45.232 -28.62,82.5567 -58.681,112.117 l -27.222,26.7595 6.039,23.2048 c 7.874,30.2868 8.372,90.3705 1.032,124.7897 -18.93,88.7527 -81.202,162.362 -160.319,189.4902 -31.772,10.8953 -105.444,17.8232 -132.913,12.4965 -142.492,-27.6178 -246.417,-151.362 -224.632,-267.4795 3.968,-21.1578 28.316,-50.9989 51.383,-62.9726 19.271,-10.0039 67.67,-10.9724 85.625,-1.7169 24.47,12.6177 46.124,38.0455 54.748,64.2988 4.725,14.3895 11.606,30.5729 15.293,35.9435 19.765,28.779 66.345,38.1225 91.481,18.3569 7.374,-5.8053 15.707,-18.8851 18.519,-29.0651 7.891,-28.5699 -3.355,-49.6506 -35.832,-67.1932 -65.378,-35.2997 -82.128,-56.3749 -82.271,-103.5164 -0.221,-70.0105 55.324,-113.3 127.227,-99.1691 24.845,4.8808 36.066,4.9083 50.61,0.11 17.817,-5.8824 18.271,-6.6142 9.984,-15.7762 -14.466,-15.9798 -41.468,-22.0052 -79.09,-17.6581 -78.297,9.0519 -100.384,3.1145 -131.473,-35.3492 -14.615,-18.0763 -16.024,-23.0837 -16.024,-57.1012 0,-48.154 14.771,-72.9545 55.177,-92.6982 32.36,-15.8092 69.486,-23.3973 107.635,-23.3973 z m -362.715,46.4536 c 33.886,0.9299 70.274,25.0041 87.172,57.679 11.066,21.4 9.812,65.779 -2.536,89.9798 -19.622,38.4417 -32.101,44.4341 -159.169,76.4762 -87.817,22.1428 -98.361,25.9176 -92.352,33.005 35.321,41.6828 113.318,147.5763 119.371,162.0594 20.217,48.385 -0.926,102.1131 -50.147,127.4254 -22.225,11.4346 -61.152,12.6507 -84.153,2.6303 -20.97,-9.1345 -44.604,-36.3286 -158.437,-182.2762 -96.969,-124.3219 -112.096,-148.0275 -112.096,-175.6674 0,-33.924 24.292,-77.065 51.232,-90.9978 19.211,-9.9378 382.637,-100.809 401.115,-100.3137 z"
       id="path4485"
       inkscape:connector-curvature="0"
       sodipodi:nodetypes="ccccccssccccssccccscsccccccccccccscccccccscssscsccsscsccccsccsccccccsccsccccccccccccccccccccsccccccccccccssccscssccccccccscccccccsccccscscccccscccccccccccccccccccccscccssccccccscssccscscccsscccccscccccccccccscccccccccccscccscscccccccccccscccscccccccccccccscccscsccccccccsccccscccscccssccsccccsccscsccscsccsccccccscscccsccssccccccccccccccccccccccccccccccccccscscccccsccccsccccccccccccccccsccccccccccccccssscccccccccssccccccccssccccccccsssccccscccssccccsccssccccccccccccccccccccccccccccccsscsccccccccccccccccccccccccccccccccccccccsccccsccccccsccscccccccsccscccccccccccsccccccccccccsccccccscscccccccccccccccccccccccccccccccccccccccsccscccccccccccccscccccccccccccccccsccccsccscssccccccccccccccsccccccccccccccsccccscccccccccccccscscscccccccsccccccccccccccccccccscccccccccccscc" />
  </g>
</svg>
