<?xml version="1.0" encoding="UTF-8" standalone="no"?>
<!-- Created with Inkscape (http://www.inkscape.org/) -->

<svg
   xmlns:dc="http://purl.org/dc/elements/1.1/"
   xmlns:cc="http://creativecommons.org/ns#"
   xmlns:rdf="http://www.w3.org/1999/02/22-rdf-syntax-ns#"
   xmlns:svg="http://www.w3.org/2000/svg"
   xmlns="http://www.w3.org/2000/svg"
   xmlns:sodipodi="http://sodipodi.sourceforge.net/DTD/sodipodi-0.dtd"
   xmlns:inkscape="http://www.inkscape.org/namespaces/inkscape"
   width="6308.0083mm"
   height="5462.8955mm"
   viewBox="0 0 22351.211 19356.716"
   id="svg2"
   version="1.1"
   inkscape:version="0.91 r13725"
   sodipodi:docname="CURA Tile.svg">
  <defs
     id="defs4" />
  <sodipodi:namedview
     id="base"
     pagecolor="#ffffff"
     bordercolor="#666666"
     borderopacity="1.0"
     inkscape:pageopacity="0.0"
     inkscape:pageshadow="2"
     inkscape:zoom="0.019195557"
     inkscape:cx="12386.937"
     inkscape:cy="7427.4122"
     inkscape:document-units="px"
     inkscape:current-layer="layer1"
     showgrid="false"
     inkscape:window-width="1440"
     inkscape:window-height="856"
     inkscape:window-x="0"
     inkscape:window-y="0"
     inkscape:window-maximized="1"
     showguides="false"
     fit-margin-top="0"
     fit-margin-left="0"
     fit-margin-right="0"
     fit-margin-bottom="0" />
  <metadata
     id="metadata7">
    <rdf:RDF>
      <cc:Work
         rdf:about="">
        <dc:format>image/svg+xml</dc:format>
        <dc:type
           rdf:resource="http://purl.org/dc/dcmitype/StillImage" />
        <dc:title></dc:title>
      </cc:Work>
    </rdf:RDF>
  </metadata>
  <g
     inkscape:label="Layer 1"
     inkscape:groupmode="layer"
     id="layer1"
     transform="translate(-1908.8262,16851.82)">
    <path
       style="opacity:1;fill:#26a69a;fill-opacity:1;fill-rule:nonzero;stroke:none;stroke-width:20;stroke-linecap:butt;stroke-linejoin:miter;stroke-miterlimit:4;stroke-dasharray:none;stroke-dashoffset:0;stroke-opacity:1"
       d="m 7496.6211,-16851.82 -5587.7949,9678.361 5587.7949,9678.3555 11175.6169,0 5587.799,-9678.3555 -5587.799,-9678.361 -11175.6169,0 z m 7079.4239,3093.267 0,0.04 -0.129,0 c 33.976,0.64 1319.693,837.694 2857.195,1860.155 2549.221,1695.321 2795.699,1874.226 2797.141,2030.9059 l 1.609,171.8496 -1130.295,0 -1130.304,0 -353.819,339.918 -353.82,339.9082 -19.287,1688.1933 c -13.033,1138.7115 2.934,1729.7913 49.055,1815.9922 61.861,115.6179 127.752,127.8008 688.851,127.8008 741.043,0 749.877,-8.4095 749.877,-714.4668 l 0,-472.8516 406.186,0 406.175,0 0,518.7266 c 0,320.0797 28.666,547.3744 74.95,593.6504 41.238,41.2384 209.954,74.9414 374.931,74.9414 l 299.994,0 0,1593.4609 c 0,1234.9235 -17.589,1592.7912 -78.121,1590.0762 -7.037,-0.2953 -36.132,-8.2914 -81.367,-21.9414 l 0,18.5957 -31.025,0 c 1.688,1.7716 2.566,3.3051 2.566,4.5781 0,27.7271 -5478.083,946.3518 -6186.478,1037.4141 -85.917,11.0364 -1866.705,-254.0448 -3957.3538,-589.0371 l -3801.1309,-609.0137 132.4297,-24.6504 -185.1445,0 0,-1515.3594 0,-1515.375 1287.8691,19.3028 c 1564.3433,23.3863 1524.416,40.6122 1524.416,-657.9727 0,-726.9928 33.4559,-704.8242 -1064.5234,-704.8242 l -935.1465,0 0,-781.1406 0,-781.1094 901.5762,0 c 1106.3271,0 1098.0937,5.0767 1098.0937,-679.957 0,-738.4617 77.0338,-702.8767 -1485.248,-681.6368 l -1326.9121,18.0039 0.705,-781.143 0.7207,-781.101 4201.9418,-1266.527 c 2311.104,-696.59 4229.835,-1265.405 4263.822,-1265.405 z m -4715.7032,4058.2776 c -257.7542,0.2861 -497.984,25.7425 -551.8574,79.6113 -54.7463,54.7655 -75.0684,546.5015 -75.0684,1821.7344 l 0,1746.7871 334.1719,334.1914 334.1875,334.1758 1179.2326,0 1179.246,0 330.043,-325.8867 330.012,-326.0059 0,-1754.9726 c 0,-1281.6481 -20.171,-1775.2339 -74.928,-1830.0235 -46.531,-46.5083 -275.997,-74.9316 -604.414,-74.9316 -794.22,0 -757.93,-75.3341 -757.93,1571.8926 l 0,1365.1269 -406.176,0 -406.189,0 0,-1370.2597 c 0,-1162.4181 -14.819,-1385.1967 -98.111,-1468.4903 -61.534,-61.5491 -347.889,-97.1817 -633.6958,-102.2754 -17.8632,-0.3204 -35.7261,-0.5605 -53.5293,-0.6406 l 0,0.018 c -8.3454,-0.043 -16.6795,-0.06 -24.9941,-0.051 z m 4159.4412,8.4004 c -562.578,0.6626 -599.312,28.1511 -677.422,124.6152 -98.93,122.1533 -109.591,315.8822 -109.591,1998.9493 0,1059.6866 26.368,1932.9404 61.019,2024.0507 59.808,157.5531 72.603,160.2754 685.193,160.2754 553.219,0 631.54,-13.735 688.868,-120.8554 35.569,-66.4747 64.666,-319.5422 64.666,-562.375 0,-416.5641 7.96,-442.675 140.611,-440.4805 110.738,0.8089 207.246,116.9398 454.135,546.7988 l 313.431,545.6621 717.651,0 717.541,0 19.019,-195.2519 c 13.962,-143.5933 -57.938,-322.0093 -271.32,-673.4922 l -290.232,-478.209 224.33,-248.4961 224.455,-248.3437 0,-879.3946 0,-879.2363 -308.424,-323.459 -308.301,-323.3965 -1456.775,-18.8925 c -357.403,-4.5492 -627.297,-8.1856 -832.75,-8.1856 l 0,-0.2402 0,-0.023 c -19.261,-0.033 -37.956,-0.041 -56.104,-0.02 z"
       id="path4281"
       inkscape:connector-curvature="0" />
  </g>
</svg>
