<?xml version="1.0" encoding="UTF-8" standalone="no"?>
<!-- Created with Inkscape (http://www.inkscape.org/) -->

<svg
   xmlns:dc="http://purl.org/dc/elements/1.1/"
   xmlns:cc="http://creativecommons.org/ns#"
   xmlns:rdf="http://www.w3.org/1999/02/22-rdf-syntax-ns#"
   xmlns:svg="http://www.w3.org/2000/svg"
   xmlns="http://www.w3.org/2000/svg"
   xmlns:sodipodi="http://sodipodi.sourceforge.net/DTD/sodipodi-0.dtd"
   xmlns:inkscape="http://www.inkscape.org/namespaces/inkscape"
   width="7352.3818mm"
   height="6367.3604mm"
   viewBox="0 0 26051.747 22561.513"
   id="svg2"
   version="1.1"
   inkscape:version="0.91 r13725"
   sodipodi:docname="rocket tile.svg">
  <defs
     id="defs4" />
  <sodipodi:namedview
     id="base"
     pagecolor="#ffffff"
     bordercolor="#666666"
     borderopacity="1.0"
     inkscape:pageopacity="0.0"
     inkscape:pageshadow="2"
     inkscape:zoom="0.011048543"
     inkscape:cx="21669.897"
     inkscape:cy="8998.9739"
     inkscape:document-units="px"
     inkscape:current-layer="layer1"
     showgrid="false"
     inkscape:window-width="1440"
     inkscape:window-height="856"
     inkscape:window-x="0"
     inkscape:window-y="0"
     inkscape:window-maximized="1"
     showguides="false"
     fit-margin-top="0"
     fit-margin-left="0"
     fit-margin-right="0"
     fit-margin-bottom="0" />
  <metadata
     id="metadata7">
    <rdf:RDF>
      <cc:Work
         rdf:about="">
        <dc:format>image/svg+xml</dc:format>
        <dc:type
           rdf:resource="http://purl.org/dc/dcmitype/StillImage" />
        <dc:title></dc:title>
      </cc:Work>
    </rdf:RDF>
  </metadata>
  <g
     inkscape:label="Layer 1"
     inkscape:groupmode="layer"
     id="layer1"
     transform="translate(-4704.8691,22796.886)">
    <path
       style="opacity:1;fill:#26a69a;fill-opacity:1;fill-rule:nonzero;stroke:none;stroke-width:20;stroke-linecap:butt;stroke-linejoin:miter;stroke-miterlimit:4;stroke-dasharray:none;stroke-dashoffset:0;stroke-opacity:1"
       d="m 11217.801,-22796.886 -6512.9319,11280.762 4970.2869,8608.8152 c 17.6805,-104.2906 61.4242,-190.9006 147.4649,-322.0946 103.5904,-157.9668 152.2444,-262.0427 230.4721,-492.7104 69.741,-205.6499 111.674,-256.5909 297.917,-362.0297 310.761,-175.918 310.696,-175.7593 384.107,-1153.9266 5.04,-67.0626 23.337,-134.0599 81.363,-297.7676 11.342,-32.0097 71.73,-167.4232 134.163,-300.9323 62.442,-133.509 144.394,-328.8064 182.154,-433.9838 101.406,-282.5516 139.156,-362.0858 216.179,-454.969 l 69.565,-83.8749 -58.82,-54.255 c -32.374,-29.8533 -145.859,-119.852 -252.25,-200.0116 -341.577,-257.3751 -440.024,-413.0921 -457.648,-723.9007 -15.552,-273.6741 50.745,-449.592 257.421,-683.5643 261.987,-296.6008 573.048,-450.1614 966.443,-474.6658 l 0,0 c 56.206,-3.4913 114.083,-4.3688 173.743,-2.6418 372.765,10.7913 590.793,91.6323 835.557,309.8191 225.225,200.7491 332.727,407.6219 348.438,670.1873 8.644,144.6364 -18.036,241.5149 -80.44,291.8305 -82.605,66.5959 -149.472,38.7123 -260.568,-108.734 -71.842,-95.3289 -221.472,-218.7469 -329.87,-272.031 -298.403,-146.6528 -625.678,-57.1489 -682.482,186.6438 -41.148,176.5528 -10.875,280.5726 132.66,456.2105 57.307,70.1152 106.97,134.4426 110.395,142.9655 3.473,8.6722 37.695,-0.7468 77.696,-21.3678 117.677,-60.7055 184.786,-67.8841 372.008,-39.8978 460.16,68.7989 1174.977,-40.0658 1699.24,-258.8034 359.892,-150.1534 493.569,-195.12 665.174,-223.8065 277.885,-46.4509 372.551,-71.9074 443.31,-119.0771 l 67.623,-45.0694 174.807,153.318 c 287.863,252.4742 557.206,416.5834 919.758,560.2956 287.415,113.943 752.167,218.4949 1024.842,230.6024 55.161,2.4551 103.899,9.587 108.314,15.8695 13.377,18.9687 -27.407,169.6448 -101.77,376.0415 -38.721,107.4272 -100.472,293.4362 -137.271,413.3442 -111.049,361.9271 -155.269,457.4241 -284.661,614.8494 -210.831,256.535 -346.945,510.3441 -384.089,716.3395 -17.419,96.5331 -7.15,343.6678 33.728,811.6123 23.365,267.6623 23.011,287.7419 -6.703,363.7754 -17.307,44.2572 -53.209,111.5812 -79.823,149.6306 -62.274,89.0746 -213.361,214.7609 -293.38,244.0448 -44.78,16.3922 -59.95,30.04 -53.658,48.1872 4.845,13.9092 19.977,68.0708 33.643,120.3468 43.931,168.0392 72.748,216.9452 180.623,306.5425 118.909,98.7642 136.104,154.1861 69.686,225.1134 371.626,-11.7248 742.813,-29.3959 1111.154,-82.0826 88.822,-1.7737 173.724,47.0857 225.393,117.845 121.803,236.446 142.685,510.7922 122.736,772.1533 -72.551,522.1716 -192.02,1036.58576 -267.699,1558.30924 -1.774,9.40967 -3.454,18.83802 -5.106,28.25703 l 6406.989,0 3881.014,-6722.10117 c -2020.877,-426.3012 -6283.711,-1583.7004 -10796.817,-4394.4017 -6249.731,-3892.235 -627.162,-6475.601 -627.162,-6475.601 0,0 -3114.639,2154.171 595.218,4451.914 4254.993,2635.39 13045.636,2455.309 13045.636,2455.309 l -49.607,208.964 464.65,-804.817 -6512.932,-11280.761 -13025.883,0 z m 10375.883,846.535 c 236.176,0 429.41,7.197 429.41,16.009 0,8.803 94.517,21.947 210.037,29.191 115.521,7.244 212.829,21.041 216.255,30.665 3.416,9.615 39.123,17.485 79.347,17.485 40.215,0 73.131,7.72 73.131,17.176 0,9.447 54.609,23.039 121.355,30.189 66.745,7.151 121.354,19.464 121.354,27.371 0,7.906 37.807,20.033 84.015,26.959 46.209,6.936 84.015,20.5 84.015,30.143 0,9.634 21.004,17.522 46.675,17.522 25.672,0 46.675,7.328 46.675,16.28 0,8.952 33.606,21.657 74.68,28.22 41.074,6.571 74.68,19.174 74.68,28.005 0,8.84 33.606,21.442 74.68,28.005 41.074,6.571 74.68,20.247 74.68,30.394 0,10.147 21.004,18.456 46.675,18.456 25.671,0 46.675,8.009 46.675,17.811 0,9.801 29.405,23.337 65.345,30.086 35.94,6.74 65.345,19.735 65.345,28.855 0,9.129 12.854,16.597 28.584,16.597 15.72,0 33.438,12.603 39.347,28.005 5.909,15.403 30.833,28.005 55.403,28.005 24.57,0 44.696,8.234 44.696,18.306 0,10.073 21.004,23.581 46.675,30.031 25.671,6.441 46.675,19.211 46.675,28.369 0,9.148 12.602,16.644 28.005,16.644 15.403,0 28.005,7.832 28.005,17.41 0,9.578 18.502,23.282 41.13,30.47 22.618,7.178 52.621,24.551 66.67,38.59 14.04,14.05 36.986,25.55 50.96,25.55 13.975,0 30.759,16.803 37.275,37.34 6.553,20.64 28.238,37.34 48.514,37.34 20.163,0 41.512,12.602 47.421,28.005 5.909,15.403 22.068,28.005 35.903,28.005 13.834,0 46.161,21.004 71.833,46.675 25.671,25.671 55.701,46.675 66.763,46.675 11.053,0 24.832,12.285 30.601,27.296 5.759,15.01 26.063,32.233 45.125,38.282 19.071,6.05 39.851,27.38 46.199,47.385 6.357,20.014 23.776,36.397 38.703,36.397 31.328,0 479.706,441.041 498.236,490.087 6.787,17.97 20.444,32.673 30.339,32.673 9.904,0 23.197,16.364 29.555,36.369 6.347,20.014 27.93,41.587 47.935,47.935 20.014,6.348 36.397,22.301 36.397,35.445 0,13.144 16.803,43.268 37.34,66.951 20.537,23.673 37.34,52.5 37.34,64.066 0,11.566 16.803,33.148 37.34,47.954 20.537,14.805 37.34,37.918 37.34,51.379 0,13.452 12.602,29.312 28.005,35.221 15.403,5.909 28.005,26.913 28.005,46.675 0,19.762 12.602,40.766 28.005,46.675 15.403,5.909 28.005,22.432 28.005,36.743 0,14.301 8.233,26.016 18.306,26.016 10.072,0 23.571,21.004 30.021,46.675 6.441,25.672 18.306,46.675 26.353,46.675 8.037,0 19.883,21.004 26.324,46.675 6.442,25.672 19.959,46.675 30.031,46.675 10.073,0 18.325,20.099 18.325,44.668 0,24.57 12.602,49.513 28.005,55.422 15.402,5.918 28.005,27.828 28.005,48.682 0,20.864 7.71,37.928 17.167,37.928 9.456,0 22.74,25.205 29.508,56.01 6.768,30.806 20.023,56.01 29.48,56.01 9.447,0 17.195,21.004 17.195,46.675 0,25.671 8.28,46.675 18.427,46.675 10.147,0 23.823,33.606 30.395,74.68 6.571,41.074 19.276,74.68 28.238,74.68 8.952,0 16.29,12.602 16.29,28.005 0,15.403 7.598,28.005 16.896,28.005 9.307,0 22.721,42.007 29.779,93.35 7.057,51.342 19.5,93.35 27.64,93.35 8.131,0 20.453,37.806 27.38,84.015 6.936,46.208 20.5,84.015 30.143,84.015 9.633,0 17.521,29.405 17.521,65.345 0,35.939 7.711,65.345 17.168,65.345 9.447,0 23.178,56.71 30.488,126.022 7.318,69.312 20.014,130.363 28.219,135.665 8.196,5.303 20.873,104.02 28.173,219.373 7.3,115.352 20.491,209.729 29.303,209.729 8.803,0 16.009,201.636 16.009,448.08 0,246.444 -7.16,448.08 -15.916,448.08 -8.756,0 -21.75,90.045 -28.864,200.114 -7.113,110.069 -19.967,204.586 -28.537,210.037 -8.569,5.452 -21.62,70.834 -29.022,145.281 -7.412,74.446 -21.032,135.357 -30.255,135.357 -9.223,0 -16.766,25.205 -16.766,56.01 0,30.806 -7.626,56.01 -16.924,56.01 -9.307,0 -22.693,42.008 -29.751,93.35 -7.057,51.342 -19.5,93.35 -27.64,93.35 -8.131,0 -20.481,37.807 -27.408,84.015 -6.936,46.208 -20.472,84.015 -30.115,84.015 -9.633,0 -17.521,16.803 -17.521,37.34 0,20.537 -7.674,37.34 -17.037,37.34 -9.372,0 -22.703,33.606 -29.638,74.68 -6.936,41.074 -20.276,74.68 -29.648,74.68 -9.363,0 -17.027,16.803 -17.027,37.34 0,20.537 -7.478,37.34 -16.598,37.34 -9.13,0 -22.124,29.405 -28.864,65.345 -6.74,35.939 -19.361,65.345 -28.051,65.345 -8.691,0 -21.079,21.003 -27.52,46.675 -6.451,25.671 -19.949,46.674 -30.021,46.674 -10.073,0 -18.306,20.099 -18.306,44.668 0,24.57 -12.603,49.513 -28.005,55.422 -15.403,5.919 -28.005,23.627 -28.005,39.347 0,15.73 -8.402,28.593 -18.67,28.593 -10.269,0 -18.67,17.065 -18.67,37.919 0,20.864 -12.602,42.773 -28.005,48.682 -15.403,5.909 -28.005,22.432 -28.005,36.743 0,14.301 -8.252,26.016 -18.325,26.016 -10.072,0 -23.589,21.004 -30.03,46.675 -6.442,25.671 -18.624,46.675 -27.091,46.675 -8.466,0 -21.377,18.904 -28.667,42.008 -7.3,23.104 -27.343,54.609 -44.556,70.012 -17.214,15.403 -36.752,42.708 -43.417,60.678 -6.666,17.969 -20.22,32.672 -30.115,32.672 -9.904,0 -23.608,17.625 -30.451,39.179 -6.833,21.555 -45.2,71.964 -85.256,112.02 -40.066,40.056 -72.832,84.874 -72.832,99.586 0,14.712 -16.803,32.084 -37.34,38.6 -20.537,6.516 -37.34,19.034 -37.34,27.818 0,8.794 -26.213,40.831 -58.241,71.198 -62.208,58.979 -61.76,58.549 -146.326,143.694 -30.6,30.805 -66.409,66.11 -79.571,78.451 -13.163,12.341 -34.026,33.345 -46.367,46.675 -32.953,35.576 -77.182,70.909 -88.785,70.909 -5.564,0 -43.726,33.606 -84.8,74.68 -41.074,41.074 -79.235,74.68 -84.799,74.68 -9.353,0 -29.685,15.225 -88.561,66.381 -12.481,10.847 -37.377,25.288 -55.347,32.093 -17.97,6.806 -32.672,21.041 -32.672,31.627 0,10.596 -15.926,19.258 -35.361,19.258 -19.436,0 -40.16,12.603 -46.069,28.005 -5.909,15.403 -23.626,28.005 -39.347,28.005 -15.729,0 -28.583,7.832 -28.583,17.41 0,9.578 -18.904,23.375 -42.008,30.666 -23.104,7.3 -54.609,27.678 -70.012,45.274 -15.403,17.597 -48.636,38.498 -73.831,46.451 -25.186,7.963 -57.289,25.98 -71.338,40.019 -14.04,14.05 -45.368,25.55 -69.611,25.55 -27.426,0 -48.495,13.853 -55.739,36.687 -7.384,23.253 -35.193,41.102 -75.94,48.747 -35.361,6.637 -64.281,19.436 -64.281,28.444 0,9.008 -33.606,21.75 -74.68,28.313 -41.074,6.572 -74.68,19.267 -74.68,28.229 0,8.952 -12.602,16.28 -28.005,16.28 -15.403,0 -28.005,7.328 -28.005,16.28 0,8.953 -33.606,21.658 -74.68,28.22 -41.074,6.572 -74.68,19.464 -74.68,28.649 0,9.186 -42.007,22.469 -93.35,29.536 -51.342,7.057 -93.35,20.453 -93.35,29.751 0,9.307 -16.803,16.924 -37.34,16.924 -20.537,0 -37.34,7.981 -37.34,17.737 0,9.764 -50.409,23.44 -112.02,30.413 -61.61,6.973 -112.019,19.482 -112.019,27.809 0,8.317 -58.811,20.92 -130.69,28.005 -71.88,7.076 -130.69,20.191 -130.69,29.134 0,8.934 -41.317,16.262 -91.801,16.262 -52.761,0 -94.862,9.148 -98.988,21.526 -7.319,21.966 -975.936,38.899 -1251.468,21.882 l -0.09,0 c -69.313,-4.276 -126.023,-15.795 -126.023,-25.597 0,-9.802 -37.806,-17.811 -84.015,-17.811 -46.208,0 -84.015,-7.421 -84.015,-16.486 0,-9.064 -63.011,-22.376 -140.024,-29.592 -77.014,-7.216 -140.025,-19.846 -140.025,-28.061 0,-8.205 -46.209,-20.686 -102.685,-27.743 -56.477,-7.057 -102.685,-20.631 -102.685,-30.162 0,-9.531 -21.004,-17.316 -46.675,-17.316 -25.671,0 -46.675,-7.888 -46.675,-17.522 0,-9.643 -37.807,-23.207 -84.015,-30.142 -46.208,-6.927 -84.015,-19.931 -84.015,-28.911 0,-8.98 -33.606,-21.713 -74.68,-28.285 -41.074,-6.562 -74.68,-19.267 -74.68,-28.22 0,-8.952 -12.602,-16.28 -28.005,-16.28 -15.403,0 -28.005,-7.459 -28.005,-16.56 0,-9.102 -37.807,-22.217 -84.015,-29.153 -46.208,-6.927 -84.015,-19.819 -84.015,-28.64 0,-8.822 -23.589,-21.2 -52.406,-27.529 -28.808,-6.329 -64.272,-28.014 -78.797,-48.169 -14.535,-20.163 -40.747,-36.649 -58.288,-36.649 -17.531,0 -43.389,-11.5 -57.429,-25.55 -14.049,-14.039 -46.161,-32.056 -71.347,-40.019 -25.195,-7.953 -58.4,-28.854 -73.803,-46.451 -15.402,-17.596 -46.908,-37.974 -70.012,-45.274 -23.104,-7.291 -42.007,-20.183 -42.007,-28.64 0,-8.467 -21.004,-20.668 -46.675,-27.109 -25.672,-6.45 -46.675,-19.958 -46.675,-30.031 0,-10.072 -11.716,-18.306 -26.017,-18.306 -14.301,0 -30.852,-12.602 -36.761,-28.005 -5.909,-15.402 -24.001,-28.005 -40.215,-28.005 -16.215,0 -48.953,-21.003 -72.748,-46.675 -23.786,-25.671 -49.569,-46.674 -57.289,-46.674 -7.729,0 -46.675,-33.606 -86.535,-74.68 -39.861,-41.074 -80.468,-74.68 -90.251,-74.68 -22.749,0 -486.344,-462.913 -486.344,-485.625 0,-9.363 -32.495,-49.177 -72.187,-88.478 -39.693,-39.3 -77.92,-89.597 -84.958,-111.786 -7.039,-22.18 -29.191,-45.536 -49.196,-51.884 -20.014,-6.357 -36.369,-22.983 -36.369,-36.957 0,-13.984 -11.5,-36.911 -25.55,-50.96 -14.049,-14.049 -31.412,-44.052 -38.59,-66.68 -7.179,-22.628 -20.911,-41.13 -30.489,-41.13 -9.577,0 -17.391,-12.602 -17.391,-28.005 0,-15.403 -8.252,-28.005 -18.324,-28.005 -10.073,0 -23.431,-20.397 -29.685,-45.33 -6.264,-24.925 -23.235,-49.868 -37.705,-55.422 -14.478,-5.555 -26.306,-27.165 -26.306,-48.029 0,-20.854 -8.401,-37.919 -18.67,-37.919 -10.268,0 -18.67,-11.715 -18.67,-26.016 0,-14.311 -12.602,-30.834 -28.004,-36.743 -15.403,-5.909 -28.005,-32.019 -28.005,-58.017 0,-25.988 -8.253,-47.254 -18.325,-47.254 -10.073,0 -23.59,-21.003 -30.031,-46.674 -6.441,-25.672 -19.192,-46.675 -28.35,-46.675 -9.158,0 -16.644,-12.603 -16.644,-28.005 0,-15.403 -7.664,-28.005 -17.027,-28.005 -9.373,0 -22.712,-33.606 -29.648,-74.68 -6.936,-41.074 -19.539,-74.68 -28.005,-74.68 -8.467,0 -21.069,-33.606 -28.005,-74.68 -6.936,-41.074 -20.295,-74.68 -29.667,-74.68 -9.363,0 -17.008,-16.803 -17.008,-37.34 0,-20.537 -7.888,-37.34 -17.522,-37.34 -9.643,0 -23.207,-37.807 -30.143,-84.015 -6.926,-46.208 -20.051,-84.015 -29.153,-84.015 -9.102,0 -16.532,-21.004 -16.532,-46.675 0,-25.671 -7.814,-46.675 -17.345,-46.675 -9.531,0 -23.094,-46.208 -30.152,-102.685 -7.048,-56.477 -19.538,-102.685 -27.753,-102.685 -8.205,0 -20.826,-63.011 -28.042,-140.025 -7.216,-77.013 -20.546,-140.025 -29.611,-140.025 -9.064,0 -16.457,-37.116 -16.457,-82.465 0,-45.349 -9.447,-85.602 -20.985,-89.448 -14.647,-4.882 -22.88,-161.813 -27.258,-519.642 -3.454,-281.963 -1.821,-497.956 3.659,-479.986 5.48,17.969 17.755,32.672 27.277,32.672 9.512,0 17.307,75.613 17.307,168.03 0,92.416 7.281,168.03 16.205,168.03 8.925,0 21.116,30.124 27.091,66.95 7.131,43.903 34.306,89.038 78.936,131.129 64.71,61.023 68.547,71.506 78.246,213.099 5.62,81.906 17.419,148.921 26.222,148.921 8.803,0 16.01,21.004 16.01,46.675 0,25.672 7.328,46.675 16.28,46.675 8.962,0 21.648,33.606 28.22,74.68 6.571,41.074 20.247,74.68 30.394,74.68 10.147,0 18.456,12.21 18.456,27.146 0,14.936 21.377,48.542 47.515,74.68 36.696,36.696 66.474,47.534 130.69,47.534 61.48,0 83.174,-7.3 83.174,-28.005 0,-15.403 8.402,-28.005 18.67,-28.005 10.269,0 18.67,-12.602 18.67,-28.005 0,-15.402 12.603,-28.005 28.005,-28.005 15.403,0 28.005,-8.401 28.005,-18.67 0,-35.081 34.801,-18.754 47.88,22.46 28.397,89.486 101.48,120.366 101.48,42.885 0,-25.671 8.402,-46.675 18.67,-46.675 10.269,0 18.67,-12.602 18.67,-28.005 0,-15.402 12.434,-28.005 27.641,-28.005 15.207,0 32.934,-21.003 39.357,-46.675 13.106,-52.22 76.565,-64.785 94.264,-18.67 11.856,30.899 100.118,39.133 100.118,9.335 0,-10.268 21.004,-18.67 46.675,-18.67 25.671,0 46.675,8.999 46.675,19.996 0,11.006 12.602,7.403 28.005,-8 15.403,-15.403 28.005,-41.205 28.005,-57.345 0,-18.558 16.523,-29.331 45.013,-29.331 37.994,0 47.03,11.678 57.672,74.68 6.936,41.074 20.276,74.68 29.648,74.68 9.363,0 17.027,12.603 17.027,28.005 0,15.403 7.487,28.005 16.644,28.005 9.158,0 21.639,19.921 27.753,44.285 12.294,48.972 70.461,67.735 209.982,67.735 44.919,0 81.681,8.402 81.681,18.67 0,10.269 12.602,18.67 28.005,18.67 17.428,0 28.005,17.634 28.005,46.675 0,25.671 8.401,46.675 18.67,46.675 10.268,0 18.67,12.005 18.67,26.67 0,14.675 11.948,38.619 26.548,53.219 14.6,14.6 28.183,38.301 30.208,52.677 15.973,113.673 -56.43,96.001 -198.863,-48.551 -65.765,-66.745 -123.698,-121.355 -128.758,-121.355 -5.059,0 -9.185,21.004 -9.185,46.675 0,25.671 7.486,46.675 16.644,46.675 9.158,0 21.909,21.004 28.35,46.675 6.442,25.671 19.959,46.675 30.031,46.675 10.073,0 18.325,25.205 18.325,56.01 0,30.805 -9.018,56.01 -20.024,56.01 -10.996,0 -33.4,13.396 -49.774,29.769 -23.393,23.394 -51.072,27.1 -129.336,17.326 -83.381,-10.418 -99.586,-7.673 -99.586,16.896 0,16.141 -8.402,29.359 -18.67,29.359 -27.296,0 -22.973,144.431 4.667,156.053 16.542,6.945 13.48,16.009 -10.483,31.123 -26.035,16.411 -30.917,34.511 -21.228,78.61 11.884,54.096 88.832,144.954 122.765,144.954 8.57,0 20.864,21.003 27.286,46.675 6.441,25.671 19.221,46.675 28.379,46.675 9.157,0 16.644,12.602 16.644,28.005 0,15.402 7.813,28.005 17.391,28.005 9.578,0 23.309,18.501 30.488,41.13 7.179,22.628 22.441,51.753 33.923,64.71 42.12,47.533 66.4,72.057 94.648,95.59 50.372,41.961 35.081,-25.55 -17.755,-78.386 -41.037,-41.037 -65.102,-123.044 -36.099,-123.044 5.825,0 37.331,29.367 70.013,65.27 153.019,168.104 190.378,191.591 202.737,127.422 5.657,-29.339 8.038,-29.339 37.378,0 49.54,49.551 76.061,39.207 62.124,-24.243 -13.741,-62.581 2.194,-131.109 30.497,-131.109 47.226,0 72.094,57.475 72.094,166.694 0,63.124 8.271,113.355 18.67,113.355 10.269,0 18.67,16.803 18.67,37.34 0,20.743 12.444,37.34 28.005,37.34 30.937,0 39.067,-67.884 9.317,-77.798 -29.471,-9.829 -32.551,-219.437 -3.482,-237.426 30.581,-18.912 35.753,-137.663 6.432,-147.446 -11.893,-3.958 -21.602,-28.332 -21.602,-54.162 l 0,-46.992 164.707,6.534 c 175.993,6.964 227.363,31.338 227.363,107.876 0,30.394 -11.818,38.675 -55.17,38.675 -34.772,0 -73.438,18.277 -104.617,49.466 -42.166,42.166 -47.786,60.061 -37.984,121.355 8.756,54.74 5.237,71.888 -14.731,71.888 -14.432,0 -31.066,-12.602 -36.976,-28.005 -5.909,-15.402 -19.407,-28.005 -29.993,-28.005 -10.595,0 -19.249,12.603 -19.249,28.005 0,15.403 8.402,28.005 18.67,28.005 10.269,0 18.67,11.361 18.67,25.27 0,13.9 19.604,46.442 43.576,72.309 36.089,38.946 64.85,48.393 167.227,54.918 106.102,6.749 129.803,15.039 167.041,58.381 56.896,66.204 88.906,64.225 88.906,-5.508 0,-43.127 8.383,-56.01 36.481,-56.01 26.754,0 39.693,-17.027 48.458,-63.776 8.756,-46.657 24.01,-66.783 56.85,-75.026 36.649,-9.204 44.911,-23.207 44.911,-76.267 l 0,-64.981 -102.685,0 c -56.477,0 -102.685,8.402 -102.685,18.67 0,10.269 -42.007,18.67 -93.35,18.67 -53.937,0 -93.35,-8.448 -93.35,-20.004 0,-25.849 47.478,-73.345 73.327,-73.345 11.006,0 20.023,-7.338 20.023,-16.299 0,-8.962 43.744,-20.5 97.215,-25.634 53.48,-5.144 100.398,-18.81 104.253,-30.376 13.153,-39.469 115.763,-23.123 160.954,25.634 23.785,25.671 57.391,46.675 74.68,46.675 17.279,0 50.885,21.003 74.68,46.674 23.785,25.672 52.789,46.675 64.449,46.675 39.44,0 21.498,-79.44 -28.369,-125.658 -39.954,-37.022 -44.482,-49.158 -23.338,-62.535 48.831,-30.918 176.768,-19.314 222.276,20.164 23.683,20.537 53.657,37.34 66.633,37.34 12.975,0 27.837,10.501 33.008,23.337 7.534,18.67 9.727,18.67 10.904,0 0.84,-12.836 18.278,-23.337 38.815,-23.337 29.041,0 37.34,-12.453 37.34,-56.01 0,-43.567 -8.299,-56.01 -37.34,-56.01 -20.537,0 -37.34,-8.402 -37.34,-18.67 0,-10.269 -12.603,-18.67 -28.005,-18.67 -18.67,0 -28.005,-18.67 -28.005,-56.01 0,-51.231 5.395,-56.01 63.338,-56.01 39.085,0 67.464,10.726 74.091,28.005 5.909,15.402 23.926,28.005 40.038,28.005 20.817,0 27.762,-14.862 23.944,-51.343 -4.583,-43.753 1.522,-51.342 41.298,-51.342 40.458,0 47.45,9.325 52.472,70.012 3.184,38.507 9.485,70.013 14.003,70.013 23.851,0 82.885,-79.787 82.885,-112.02 0,-20.537 8.402,-37.34 18.67,-37.34 10.269,0 18.67,-20.407 18.67,-45.35 0,-45.153 43.007,-104.01 76.006,-104.01 9.531,0 17.344,-29.405 17.344,-65.345 0,-53.872 -6.87,-65.345 -39.095,-65.345 -23.384,0 -43.015,-15.001 -48.859,-37.34 -5.368,-20.537 -17.195,-37.34 -26.259,-37.34 -9.074,0 -16.477,-16.803 -16.477,-37.34 0,-20.537 -11.388,-37.34 -25.288,-37.34 -13.9,0 -47.506,-20.602 -74.68,-45.779 -43.903,-40.691 -49.392,-59.65 -49.392,-170.223 0,-120.646 2.269,-126.639 74.68,-196.913 54.442,-52.827 74.68,-87.655 74.68,-128.496 0,-30.815 8.402,-56.029 18.67,-56.029 30.712,0 21.648,-149.033 -11.052,-181.724 -25.223,-25.223 -32.206,-25.727 -46.386,-3.333 -9.176,14.498 -16.822,36.696 -16.971,49.336 -0.187,12.639 -21.274,28.248 -46.946,34.698 -25.671,6.441 -46.675,19.212 -46.675,28.369 0,32.337 -40.877,15.991 -94.796,-37.928 -30.012,-30.012 -54.563,-62.927 -54.563,-73.13 0,-10.203 -10.502,-23.45 -23.338,-29.443 -18.567,-8.663 -18.511,-13.144 0.364,-21.9 13.013,-6.049 35.52,-22.852 50.008,-37.34 14.488,-14.488 35.333,-26.324 46.329,-26.324 36.127,0 32.925,-129.617 -3.771,-152.936 -38.526,-24.476 -121.271,-16.728 -152.244,14.236 -26.671,26.68 -29.331,20.649 -29.331,-66.194 0,-77.014 -9.055,-104.571 -46.675,-142.2 -25.671,-25.671 -46.675,-58.736 -46.675,-73.476 0,-14.74 -21.004,-32.084 -46.675,-38.525 -29.209,-7.328 -46.675,-24.925 -46.675,-47.021 0,-25.223 13.34,-35.314 46.675,-35.314 25.671,0 46.675,8.401 46.675,18.67 0,10.268 8.99,18.67 19.996,18.67 25.848,0 73.354,-47.506 73.354,-73.354 0,-24.206 143.638,-27.081 152.459,-3.044 6.871,18.717 40.299,25.961 104.253,22.591 51.408,-2.707 57.056,-58.213 5.919,-58.213 -19.847,0 -41.149,-15.963 -47.347,-35.482 -6.19,-19.52 -31.963,-40.692 -57.271,-47.039 -39.253,-9.849 -45.993,-22.451 -45.993,-85.873 0,-70.134 3.155,-74.316 56.01,-74.316 30.805,0 56.01,-8.401 56.01,-18.67 0,-10.268 45.601,-18.67 101.35,-18.67 89.429,0 109.191,7.393 168.03,62.881 36.668,34.586 66.68,72.393 66.68,84.015 0,31.197 70.133,95.814 104.01,95.814 43.688,0 82.689,-47.179 82.689,-100.024 0,-51.399 43.707,-105.346 85.341,-105.346 14.665,0 26.679,-8.401 26.679,-18.67 0,-10.268 12.603,-18.67 28.005,-18.67 15.403,0 28.005,-8.401 28.005,-18.67 0,-10.268 16.803,-18.67 37.34,-18.67 20.743,0 37.34,-12.453 37.34,-28.005 0,-19.557 -19.706,-28.005 -65.345,-28.005 -45.638,0 -65.345,-8.448 -65.345,-28.005 0,-15.403 8.402,-28.005 18.67,-28.005 10.269,0 18.67,-12.602 18.67,-28.005 0,-50.091 -114.213,-34.959 -162.783,21.564 -39.254,45.686 -42.586,46.582 -42.586,11.342 0,-39.636 -33.13,-60.911 -94.881,-60.911 -28.407,0 -36.435,-14.478 -38.806,-70.012 l -2.987,-70.013 -7.879,65.177 c -4.322,35.856 -17.671,71.422 -29.676,79.058 -36.388,23.151 -68.481,16.169 -68.481,-14.917 0,-16.159 -42.008,-70.946 -93.35,-121.756 -84.379,-83.492 -93.35,-100.417 -93.35,-175.993 0,-76.752 -3.837,-83.613 -46.675,-83.613 -25.671,0 -46.675,-8.402 -46.675,-18.67 0,-10.269 -21.004,-18.67 -46.675,-18.67 -25.671,0 -46.675,8.401 -46.675,18.67 0,10.268 -12.602,18.67 -28.005,18.67 -15.403,0 -28.005,8.401 -28.005,18.67 0,10.268 -12.602,18.67 -28.005,18.67 -15.403,0 -28.005,12.042 -28.005,26.763 0,15.319 -21.956,29.293 -51.342,32.672 -44.995,5.181 -52.099,14.908 -57.327,78.797 -8.793,107.465 8.598,154.746 61.826,168.105 34.25,8.597 46.843,24.196 46.843,58.073 0,25.475 8.401,46.329 18.67,46.329 10.268,0 18.67,21.004 18.67,46.675 0,25.671 -8.402,46.675 -18.67,46.675 -10.269,0 -18.67,-8.999 -18.67,-20.005 0,-25.848 -47.506,-73.345 -73.354,-73.345 -11.006,0 -19.996,-8.401 -19.996,-18.67 0,-10.268 -20.098,-18.67 -44.659,-18.67 -32.131,0 -47.953,-13.181 -56.439,-46.964 -15.841,-63.133 -67.744,-121.066 -108.435,-121.066 -18.259,0 -33.177,-8.401 -33.177,-18.67 0,-10.268 -46.208,-18.67 -102.685,-18.67 -56.476,0 -102.685,7.487 -102.685,16.645 0,9.157 -21.003,21.909 -46.675,28.35 -25.671,6.441 -46.675,19.958 -46.675,30.031 0,10.072 -25.204,18.324 -56.01,18.324 -30.805,0 -56.01,-8.401 -56.01,-18.67 0,-10.268 -8.401,-18.67 -18.67,-18.67 -10.268,0 -18.67,21.004 -18.67,46.675 0,25.672 8.402,46.675 18.67,46.675 10.269,0 18.67,12.603 18.67,28.005 0,15.403 7.347,28.005 16.337,28.005 8.98,0 21.405,25.363 27.603,56.374 6.264,31.329 44.631,88.123 86.349,127.806 41.289,39.281 75.081,81.111 75.081,92.967 0,11.865 7.599,21.573 16.897,21.573 9.307,0 22.721,42.008 29.778,93.35 7.058,51.342 20.444,93.35 29.751,93.35 25.989,0 20.08,126.312 -6.413,137 -18.67,7.534 -18.67,9.699 0,10.885 12.835,0.84 23.337,10.474 23.337,21.47 0,11.006 12.603,32.608 28.005,48.01 19.501,19.501 28.005,67.278 28.005,157.36 0,73.793 8.019,129.365 18.67,129.365 10.269,0 18.67,13.881 18.67,30.861 0,16.98 32.486,61.088 72.197,98.018 39.711,36.929 78.377,86.974 85.91,111.189 21.237,68.192 -6.282,245.351 -38.105,245.351 -15.991,0 -26.652,-18.679 -26.652,-46.675 0,-25.671 -8.401,-46.675 -18.67,-46.675 -10.268,0 -18.67,-12.602 -18.67,-28.005 0,-15.402 -8.252,-28.005 -18.324,-28.005 -10.073,0 -24.085,-23.029 -31.142,-51.165 -18.287,-72.869 -48.383,-98.913 -77.835,-67.38 -12.948,13.853 -44.127,25.195 -69.266,25.195 -38.852,0 -47.506,-11.145 -57.578,-74.157 -7.757,-48.504 -23.636,-77.9 -45.928,-84.976 -18.745,-5.947 -39.291,-27.193 -45.639,-47.207 -16.383,-51.585 -139.652,-50.913 -177.047,0.971 -54.199,75.202 -68.594,43.631 -64.291,-141.08 3.837,-164.781 20.117,-237.734 40.384,-180.978 12.144,33.989 75.874,28.537 117.275,-10.025 31.235,-29.107 34.372,-50.559 24.523,-168.03 -6.208,-74.074 -18.483,-134.667 -27.258,-134.667 -8.784,0 -15.954,-8.999 -15.954,-20.005 0,-25.848 -47.505,-73.345 -73.354,-73.345 -11.006,0 -19.995,29.405 -19.995,65.345 0,35.94 -8.402,65.345 -18.67,65.345 -10.269,0 -18.67,-8.401 -18.67,-18.67 0,-10.268 -11.949,-18.67 -26.531,-18.67 -14.59,0 -32.047,-25.204 -38.814,-56.01 -6.768,-30.805 -20.043,-56.01 -29.499,-56.01 -9.456,0 -17.176,-21.004 -17.176,-46.675 0,-25.671 -8.402,-46.675 -18.67,-46.675 -10.269,0 -18.67,-10.707 -18.67,-23.776 0,-17.606 -45.975,-23.655 -177.365,-23.338 -144.758,0.374 -177.645,-4.714 -178.849,-27.566 -1.009,-19.146 -4.444,-20.63 -10.904,-4.667 -14.964,37.125 -43.622,27.053 -43.622,-15.338 0,-21.265 -12.014,-50.67 -26.68,-65.345 -30.105,-30.096 -178.69,-36.761 -178.69,-8 0,10.269 -21.004,18.67 -46.675,18.67 -25.671,0 -46.675,8.402 -46.675,18.67 0,10.269 -25.204,18.67 -56.01,18.67 -43.566,0 -56.01,8.299 -56.01,37.34 0,20.537 -8.401,37.34 -18.67,37.34 -10.268,0 -18.67,16.803 -18.67,37.34 0,48.299 -31.347,48.299 -46.675,0 -15.328,-48.299 -78.022,-48.299 -93.35,0 -16.961,53.443 -38.423,46.965 -123.567,-37.34 -46.255,-45.788 -92.921,-74.68 -120.627,-74.68 -32.756,0 -45.191,-10.287 -45.191,-37.34 0,-24.896 12.444,-37.34 37.34,-37.34 21.088,0 37.34,-12.443 37.34,-28.593 0,-15.72 12.603,-33.428 28.005,-39.347 37.779,-14.488 35.389,-62.227 -4.667,-93.359 -30.451,-23.674 -30.563,-27.062 -1.466,-49.746 17.167,-13.377 33.97,-52.64 37.34,-87.236 7.982,-82.017 52.808,-99.548 52.808,-20.658 0,31.655 7.842,57.559 17.429,57.559 9.587,0 20.089,23.105 23.337,51.343 5.284,45.937 14.255,51.949 85.257,57.083 64.15,4.64 79.347,12.687 79.347,42.008 0,23.823 12.817,36.266 37.34,36.266 20.537,0 37.34,-8.401 37.34,-18.67 0,-10.268 25.205,-18.67 56.01,-18.67 47.301,0 56.01,7.263 56.01,46.675 0,39.413 8.71,46.675 56.01,46.675 30.806,0 56.01,-7.468 56.01,-16.597 0,-9.121 29.405,-22.115 65.345,-28.855 35.94,-6.749 65.345,-20.285 65.345,-30.086 0,-9.802 21.004,-17.812 46.675,-17.812 25.671,0 46.806,10.502 46.964,23.338 0.187,12.835 7.562,34.829 16.467,48.878 13.06,20.621 23.786,17.923 55.711,-14.003 21.751,-21.75 39.553,-51.454 39.553,-65.998 0,-14.544 10.502,-31.422 23.337,-37.508 12.836,-6.077 -29.172,-6.908 -93.35,-1.839 -94.246,7.44 -116.687,3.958 -116.687,-18.138 0,-15.057 21.004,-32.654 46.675,-39.095 75.305,-18.903 53.648,-44.995 -37.34,-44.995 -90.774,0 -109.332,-28.042 -54.684,-82.689 26.67,-26.67 24.971,-29.33 -18.67,-29.33 -42.372,0 -48.001,-7.646 -48.001,-65 0,-53.751 -8.075,-67.016 -46.675,-76.706 -56.113,-14.077 -56.607,-17.223 -10.577,-66.642 26.755,-28.715 52.771,-36.789 100.548,-31.207 75.062,8.756 76.136,-33.242 1.316,-52.024 -66.643,-16.728 -58.988,-79.889 11.398,-93.966 30.805,-6.161 56.01,-18.035 56.01,-26.399 0,-8.365 31.506,-17.821 70.012,-21.004 62.741,-5.19 69.929,-11.127 69.266,-57.14 -0.56,-41.279 7.645,-51.342 42.008,-51.342 23.505,0 42.754,-8.402 42.754,-18.67 0,-10.269 16.803,-18.67 37.34,-18.67 20.537,0 37.34,-8.402 37.34,-18.67 0,-10.269 15.897,-18.67 35.333,-18.67 36.994,0 58.017,34.371 58.017,94.881 0,19.697 12.602,35.809 28.005,35.809 15.402,0 28.005,-8.402 28.005,-18.67 0,-34.885 72.103,-18.866 84.015,18.67 15.412,48.551 43.015,47.263 87.534,-4.07 30.217,-34.848 38.665,-37.06 53.256,-14.003 9.531,15.076 17.447,38.797 17.606,52.734 0.186,15.384 11.883,20.882 29.816,14.002 16.243,-6.236 33.046,-11.323 37.34,-11.323 4.303,0 7.822,-29.405 7.822,-65.345 0,-45.639 8.449,-65.345 28.005,-65.345 15.403,0 28.005,8.401 28.005,18.67 0,10.268 12.603,18.67 28.005,18.67 15.403,0 28.005,12.602 28.005,28.005 0,15.403 7.496,28.005 16.663,28.005 9.167,0 21.508,-12.602 27.417,-28.005 17.261,-44.985 49.27,-32.243 49.27,19.613 0,43.379 10.792,36.714 121.094,-74.68 66.605,-67.259 133.817,-122.298 149.36,-122.298 15.543,0 28.266,-8.402 28.266,-18.67 0,-32.299 73.046,-20.304 111.693,18.343 36.911,36.911 36.864,37.172 -15.972,91.231 -29.153,29.816 -71.011,59.94 -93.023,66.932 -22.021,6.992 -40.038,20.546 -40.038,30.124 0,22.077 50.783,22.945 59.109,0.999 3.426,-9.018 33.541,-22.283 66.914,-29.48 66.885,-14.432 80.635,9.923 32.672,57.886 -15.403,15.403 -27.874,42.11 -27.716,59.343 0.187,20.845 4.92,24.037 14.152,9.522 7.636,-12.005 43.147,-24.608 78.909,-28.005 45.359,-4.313 66.997,-16.579 71.543,-40.552 8.915,-47.029 82.587,-119.329 92.202,-90.484 8.943,26.829 60.295,29.816 60.295,3.501 0,-10.269 -12.602,-18.67 -28.005,-18.67 -15.403,0 -28.005,-8.402 -28.005,-18.67 0,-10.269 -25.205,-18.67 -56.01,-18.67 -33.009,0 -56.01,-9.811 -56.01,-23.87 0,-26.763 65.14,-88.15 93.546,-88.15 10.147,0 18.474,-7.739 18.474,-17.195 0,-9.456 25.204,-22.712 56.01,-29.48 30.805,-6.768 56.01,-19.463 56.01,-28.229 0,-8.756 16.775,-21.256 37.284,-27.762 20.518,-6.516 42.427,-32.281 48.7,-57.27 6.274,-24.99 18.894,-45.434 28.052,-45.434 9.158,0 16.654,-42.007 16.654,-93.35 l 0,-93.35 -79.348,-3.668 c -43.641,-2.017 -121.355,-4.117 -172.697,-4.668 -82.232,-0.84 -94.078,-6.002 -99.334,-43.006 -3.286,-23.104 -12.546,-42.008 -20.602,-42.008 -40.393,0 -113.439,-95.609 -113.439,-148.463 0,-31.301 7.487,-56.907 16.644,-56.907 9.158,0 21.714,-20.275 27.931,-45.032 8.793,-35.043 27.883,-47.823 86.059,-57.653 45.956,-7.766 74.736,-22.768 74.736,-38.982 0,-14.498 8.401,-26.362 18.67,-26.362 10.268,0 18.67,-12.323 18.67,-27.371 0,-31.356 101.042,-140.659 130.046,-140.659 10.614,0 19.314,16.803 19.314,37.34 0,20.537 -8.402,37.34 -18.67,37.34 -53.592,0 2.007,79.627 70.862,101.48 22.628,7.179 42.483,27.193 44.108,44.472 5.134,54.554 -3.333,104.095 -19.585,114.606 -8.626,5.582 -21.583,29.06 -28.789,52.164 -12.108,38.805 -7.347,42.007 62.469,42.007 65.056,0 77.21,6.507 87.292,46.675 7.412,29.546 24.896,46.675 47.627,46.675 19.744,0 40.729,12.603 46.638,28.005 12.229,31.861 62.778,38.367 62.778,8.075 0,-10.959 28.21,-46.666 62.684,-79.347 47.011,-44.566 65.952,-81.588 75.81,-148.1 7.234,-48.775 21.041,-88.683 30.684,-88.683 9.633,0 17.521,-12.042 17.521,-26.744 0,-14.712 16.803,-32.085 37.34,-38.6 49.056,-15.571 112.02,5.255 112.02,37.05 0,13.853 9.447,28.322 21.004,32.178 12.836,4.275 22.367,65.718 24.523,158.107 2.651,113.382 11.389,158.984 35.006,182.601 17.317,17.308 31.487,43.474 31.487,58.139 0,14.674 8.402,26.679 18.67,26.679 10.269,0 18.67,8.999 18.67,19.996 0,42.371 92.781,101.172 93.64,59.352 0.186,-7.702 7.85,-25.97 17.101,-40.589 13.34,-21.069 31.889,-10.418 89.486,51.343 65.316,70.049 81.494,77.928 160.244,77.928 48.178,0 87.609,8.402 87.609,18.67 0,10.269 11.893,18.67 26.437,18.67 14.553,0 29.956,10.465 34.222,23.263 5.153,15.477 61.984,25.522 169.579,29.937 89.009,3.66 161.832,14.18 161.832,23.394 0,25.923 36.938,19.809 68.005,-11.249 15.403,-15.403 60.444,-28.005 100.09,-28.005 55.693,0 74.792,-8.495 83.95,-37.34 13.489,-42.511 74.409,-49.587 111.086,-12.91 13.442,13.433 30.451,68.043 37.779,121.355 l 13.33,96.925 -56.43,0 c -31.039,0 -67.763,-11.342 -81.625,-25.195 -27.781,-27.79 -53.088,-11.072 -76.668,50.661 -9.55,25.018 -26.362,32.308 -59.735,25.932 -40.719,-7.785 -46.432,-2.305 -46.432,44.538 0,48.374 -6.049,53.424 -63.87,53.424 -55.777,0 -65.411,-7.095 -76.155,-56.01 -19.249,-87.646 -46.675,-65.709 -46.675,37.34 0,87.123 -3.109,93.35 -46.675,93.35 -25.671,0 -46.675,-8.402 -46.675,-18.67 0,-10.269 -20.444,-18.67 -45.424,-18.67 -30.47,0 -49.737,-13.601 -58.521,-41.298 -7.207,-22.712 -37.938,-66.101 -68.267,-96.431 -67.184,-67.184 -88.449,-46.497 -88.879,86.386 l -0.289,88.683 -65.345,0 c -35.94,0 -65.345,-7.748 -65.345,-17.233 0,-9.475 -25.204,-42.455 -56.01,-73.261 -58.008,-57.998 -73.298,-123.464 -32.672,-139.857 18.67,-7.533 18.67,-9.708 0,-10.884 -13.947,-0.84 -23.338,-27.781 -23.338,-66.82 0,-45.639 -8.448,-65.345 -28.005,-65.345 -18.67,0 -28.005,-18.67 -28.005,-56.01 0,-30.805 -8.999,-56.01 -20.005,-56.01 -10.996,0 -32.98,-12.985 -48.84,-28.845 -49.607,-49.606 -71.665,-21.779 -64.804,81.793 6.367,96.216 6.292,96.412 -49.989,96.412 -31.02,0 -68.995,12.602 -84.397,28.005 -37.2,37.2 -43.828,35.884 -94.396,-18.67 -49.643,-53.564 -66.979,-58.4 -66.979,-18.67 0,15.403 8.402,28.005 18.67,28.005 30.983,0 20.948,69.807 -11.836,82.391 -57.028,21.881 -153.636,-8.43 -159.806,-50.139 -6.787,-45.89 -52.397,-67.184 -52.397,-24.467 0,16.253 8.401,29.555 18.67,29.555 10.268,0 18.67,21.601 18.67,48.001 0,49.232 -37.732,101.359 -73.355,101.359 -11.006,0 -19.995,17.4 -19.995,38.665 0,21.275 -12.014,50.68 -26.68,65.345 -30.432,30.432 -104.01,36.099 -104.01,8.01 0,-10.269 -12.603,-18.67 -28.005,-18.67 -15.403,0 -28.005,-8.402 -28.005,-18.67 0,-45.424 -77.191,-1.802 -95.852,54.171 -6.768,20.313 -14.964,19.034 -40.327,-6.329 -17.513,-17.513 -31.851,-23.002 -31.851,-12.201 0,10.81 -21.004,24.915 -46.675,31.365 -25.671,6.442 -46.675,18.82 -46.675,27.511 0,8.691 -28.565,21.162 -63.487,27.715 -45.536,8.542 -65.728,23.506 -71.348,52.892 -12.723,66.568 3.492,86.256 71.058,86.256 44.248,0 63.777,8.579 63.777,28.005 0,15.402 -12.602,28.005 -28.005,28.005 -15.403,0 -28.005,8.401 -28.005,18.67 0,10.67 56.01,18.67 130.69,18.67 103.721,0 130.69,5.778 130.69,28.005 0,45.396 32.299,32.009 45.013,-18.67 6.441,-25.672 24.159,-46.675 39.366,-46.675 15.207,0 27.641,-7.842 27.641,-17.41 0,-9.578 18.903,-23.319 42.007,-30.526 23.104,-7.206 46.619,-20.247 52.267,-28.966 5.638,-8.728 72.449,-18.997 148.473,-22.833 81.233,-4.099 141.145,-15.758 145.327,-28.295 10.082,-30.245 132.174,-26.521 163.689,4.994 14.488,14.488 36.78,29.826 49.541,34.082 15.281,5.088 21.779,40.757 19.015,104.356 -3.267,74.979 2.007,96.618 23.571,96.618 17.979,0 32.001,-26.353 39.73,-74.68 8.999,-56.281 20.556,-74.68 46.899,-74.68 23.207,0 35.613,14.105 36.939,42.007 1.092,23.104 3.864,54.61 6.142,70.013 2.287,15.402 5.592,59.342 7.347,97.653 2.632,57.466 11.36,71.702 49.867,81.373 25.671,6.441 46.675,19.212 46.675,28.369 0,24.402 36.36,20.294 63.88,-7.225 27.883,-27.884 5.283,-56.869 -60.659,-77.798 -22.498,-7.141 -40.561,-28.341 -40.561,-47.599 0,-28.024 19.473,-37.191 100.678,-47.338 120.225,-15.02 169.458,-1.783 233.814,62.834 l 48.243,48.439 5.974,-72.309 c 4.808,-58.306 -3.09,-80.085 -40.766,-112.458 -67.79,-58.251 -78.591,-122.587 -29.993,-178.625 36.285,-41.84 53.667,-46.031 190.826,-46.031 104.123,0 153.309,7.234 158.676,23.337 4.276,12.836 15.384,23.338 24.682,23.338 35.165,0 92.006,65.989 92.006,106.82 0,23.394 8.401,42.54 18.67,42.54 10.268,0 18.67,13.162 18.67,29.265 0,21.778 -10.736,25.904 -42.008,16.149 -23.104,-7.206 -47.851,-22.226 -54.992,-33.382 -7.142,-11.155 -19.744,-13.078 -28.005,-4.266 -8.262,8.813 -4.36,19.8 8.663,24.449 13.013,4.649 35.501,20.303 49.989,34.791 14.487,14.479 33.493,26.344 42.212,26.344 24.094,0 80.151,71.506 80.151,102.246 0,14.926 -27.035,54.759 -60.08,88.477 -57.924,59.128 -58.596,61.527 -18.67,67.277 22.777,3.286 41.41,13.218 41.41,22.087 0,8.859 18.903,22.077 42.007,29.368 66.885,21.115 111.124,83.641 97.653,137.98 -6.45,26.026 -19.519,50.11 -29.031,53.536 -25.569,9.205 -21.013,39.385 10.726,71.124 15.402,15.402 28.005,19.006 28.005,8 0,-29.751 73.167,-24.187 105.364,8.009 19.024,19.025 66.073,28.005 146.764,28.005 115.017,0 118.975,1.587 124.697,50.213 5.545,47.086 7.86,48.253 37.247,18.67 17.242,-17.354 52.948,-31.543 79.347,-31.543 43.417,0 48.01,7.011 48.01,73.345 0,74.195 -36.714,132.025 -83.8,132.025 -13.816,0 -29.517,10.502 -34.913,23.338 -7.029,16.709 -15.683,14.058 -30.488,-9.335 -11.379,-17.97 -41.279,-32.673 -66.437,-32.673 -36.351,0 -45.742,9.587 -45.742,46.675 0,25.671 -8.401,46.675 -18.67,46.675 -10.268,0 -18.67,37.807 -18.67,84.015 0,76.547 -4.042,84.015 -45.424,84.015 -49.036,0 -75.688,47.907 -55.674,100.062 8.682,22.618 35.641,30.628 103.105,30.628 70.601,0 91.343,6.656 91.343,29.33 0,16.141 12.005,41.345 26.67,56.01 30.311,30.311 122.69,36.341 122.69,8.01 0,-10.269 20.435,-18.67 45.415,-18.67 30.423,0 49.728,13.582 58.474,41.13 7.179,22.628 25.364,53.433 40.384,68.463 32.56,32.551 139.978,36.518 150.302,5.545 8.85,-26.559 60.155,-29.219 60.155,-3.118 0,10.268 16.112,18.67 35.809,18.67 64.15,0 94.881,21.806 94.881,67.333 0,35.202 -9.895,44.687 -46.675,44.687 -37.34,0 -46.675,9.335 -46.675,46.675 0,25.671 8.401,46.675 18.67,46.675 10.268,0 18.67,21.003 18.67,46.674 0,36.911 -9.428,46.675 -45.107,46.675 -24.821,0 -47.926,-8.214 -51.342,-18.249 -3.426,-10.036 -35.641,-23.814 -71.581,-30.619 l -65.345,-12.378 54.115,47.608 c 49.382,43.436 53.088,55.076 42.372,133.294 -9.391,68.538 -6.208,85.714 15.897,85.714 15.207,0 27.641,7.487 27.641,16.645 0,9.157 19.996,21.666 44.444,27.809 62.498,15.682 98.213,160.916 39.571,160.916 -15.561,0 -28.005,16.598 -28.005,37.34 0,32.869 12.434,37.34 103.936,37.34 99.212,0 103.366,-1.914 90.895,-42.007 -7.179,-23.104 -20.36,-44.808 -29.266,-48.225 -20.938,-8.047 -21.227,-96.468 -0.27,-96.468 8.728,0 35.193,25.205 58.801,56.01 45.153,58.913 112.02,75.632 112.02,28.005 0,-15.561 16.597,-28.005 37.34,-28.005 20.537,0 37.34,-8.401 37.34,-18.67 0,-10.268 15.869,-18.67 35.258,-18.67 25.522,0 38.647,18.054 47.515,65.345 6.74,35.94 20.621,65.345 30.862,65.345 10.24,0 29.629,10.269 43.09,22.843 19.968,18.661 15.543,32.28 -24.122,74.101 -88.355,93.145 -91.259,98.652 -65.074,123.119 34.409,32.141 93.761,28.033 137.617,-9.512 29.582,-25.335 37.564,-55.058 37.564,-140.025 0,-98.97 -3.436,-107.866 -41.429,-107.866 -22.778,0 -60.631,-22.376 -84.127,-49.718 -37.284,-43.389 -42.437,-68.622 -40.542,-198.331 1.559,-106.774 -4.985,-153.225 -23.235,-164.987 -17.998,-11.613 -19.323,-20.453 -4.574,-30.376 11.454,-7.701 26.745,-32.906 33.951,-56.01 7.216,-23.104 20.939,-42.007 30.517,-42.007 26.688,0 20.677,-55.404 -9.261,-85.35 -14.674,-14.666 -48.28,-26.67 -74.68,-26.67 -38.768,0 -48,-8.99 -48,-46.675 0,-25.672 -7.496,-46.675 -16.654,-46.675 -9.158,0 -21.928,-21.004 -28.369,-46.675 -11.277,-44.911 -48.327,-66.391 -48.327,-28.005 0,28.331 -36.351,22.348 -70.274,-11.576 -23.104,-23.113 -52.911,-27.921 -126.274,-20.35 -108.137,11.155 -128.889,3.193 -147.596,-56.757 -7.216,-23.104 -21.555,-42.007 -31.87,-42.007 -53.909,0 -96.057,-100.921 -48.728,-116.688 16.831,-5.61 23.785,-70.666 24.952,-233.234 1.718,-238.51 10.679,-265.516 97.252,-292.989 34.623,-10.996 41.205,-26.894 41.447,-100.481 0.28,-90.139 31.095,-165.099 49.354,-120.095 5.209,12.835 29.984,23.337 55.058,23.337 35.716,0 48.001,12.127 56.776,56.01 13.171,65.877 24.467,68.995 67.557,18.67 39.384,-46.003 66.997,-47.543 83.231,-4.667 6.805,17.97 23.328,43.772 36.733,57.335 20.182,20.416 24.402,19.258 24.402,-6.74 0,-26.166 11.706,-29.255 70.012,-18.455 38.507,7.141 72.804,20.677 76.23,30.087 3.416,9.41 13.918,17.12 23.337,17.12 25.718,0 20.593,-51.501 -6.217,-62.376 -17.559,-7.123 -16.411,-14.357 4.668,-29.265 39.104,-27.651 67.221,-25.168 101.35,8.952 39.851,39.86 37.844,159.712 -3.333,198.574 -91.091,85.984 -102.013,126.825 -33.914,126.825 35.65,0 46.712,11.015 51.343,51.175 3.892,33.69 18.669,53.582 43.249,58.185 40,7.477 64.588,34.95 65.046,72.672 0.373,32.076 -47.049,29.34 -81.056,-4.667 -15.403,-15.403 -37.601,-28.005 -49.335,-28.005 -27.548,0 -74.68,47.123 -74.68,74.68 0,25.979 46.516,74.68 71.338,74.68 36.985,0 38.899,57.896 2.94,88.682 -48.626,41.634 -48.392,98.018 0.383,98.018 20.537,0 37.34,-8.402 37.34,-18.67 0,-28.089 73.578,-22.423 104.01,8 55.086,55.086 20.304,216.04 -46.675,216.04 -11.006,0 -19.995,12.602 -19.995,28.005 0,18.67 18.67,28.005 56.01,28.005 30.805,0 56.01,-8.402 56.01,-18.67 0,-10.269 21.004,-18.67 46.675,-18.67 37.34,0 46.675,9.335 46.675,46.675 0,25.671 7.486,46.675 16.644,46.675 9.158,0 21.909,-21.004 28.35,-46.675 13.284,-52.911 74.942,-64.272 93.024,-17.139 6.235,16.242 11.342,71.739 11.342,123.343 0,77.882 5.013,91.884 29.536,82.484 16.242,-6.236 33.045,-11.324 37.34,-11.324 4.294,0 7.804,-28.714 7.804,-63.814 0,-115.772 30.917,-150.638 85.34,-96.215 28.892,28.891 37.293,178.699 10.026,178.699 -9.158,0 -21.928,21.004 -28.369,46.675 -9.746,38.825 -22.862,46.675 -78.031,46.675 -36.482,0 -78.937,12.603 -94.34,28.005 -15.403,15.403 -18.997,28.005 -8,28.005 11.006,0 20.024,29.406 20.024,65.345 0,39.674 -9.167,65.457 -23.338,65.635 -17.195,0.186 -16.681,4.49 1.951,16.299 16.299,10.324 26.26,57.307 28.005,132.043 l 2.717,115.987 90.12,-11.79 c 96.299,-12.602 198.994,-92.594 199.554,-155.455 0.467,-54.181 24.486,-72.701 108.594,-83.679 98.857,-12.911 109.481,-22.05 70.703,-60.827 -16.626,-16.626 -30.227,-42.213 -30.227,-56.888 0,-14.665 -8.401,-26.67 -18.67,-26.67 -10.268,0 -18.67,-12.602 -18.67,-28.005 0,-15.402 12.603,-28.005 28.005,-28.005 15.403,0 28.005,7.832 28.005,17.41 0,9.578 18.502,23.282 41.13,30.47 22.619,7.178 52.622,24.551 66.671,38.59 14.04,14.05 45.293,25.55 69.415,25.55 50.287,0 75.987,-72.971 55.076,-156.305 -10.66,-42.465 -22.077,-49.065 -84.957,-49.065 -39.964,0 -72.655,8.402 -72.655,18.67 0,10.269 -22.105,18.67 -49.12,18.67 -46.311,0 -48.486,-3.995 -37.798,-69.872 6.236,-38.423 19.958,-72.72 30.47,-76.23 10.511,-3.5 19.108,-18.268 19.108,-32.812 0,-14.553 8.402,-26.455 18.67,-26.455 10.269,0 18.67,-28.827 18.67,-64.057 0,-52.201 -7.766,-65.149 -42.007,-70.013 -51.949,-7.374 -67.128,-90.204 -24.365,-132.967 16.747,-16.738 29.032,-61.182 29.032,-105.038 0,-41.802 7.832,-76.005 17.41,-76.005 9.578,0 22.731,-16.794 29.247,-37.303 6.506,-20.518 32.28,-42.427 57.26,-48.7 32.29,-8.103 45.443,-24.318 45.443,-56.048 0,-24.56 8.402,-44.649 18.67,-44.649 10.269,0 18.67,-12.602 18.67,-28.005 0,-15.403 -8.401,-28.005 -18.67,-28.005 -10.268,0 -18.67,-16.803 -18.67,-37.34 0,-20.742 -12.443,-37.34 -28.005,-37.34 -15.561,0 -28.005,-16.598 -28.005,-37.34 0,-20.537 -8.401,-37.34 -18.67,-37.34 -10.268,0 -18.67,-20.406 -18.67,-45.349 0,-24.934 -12.602,-57.943 -28.005,-73.345 -16.849,-16.85 -28.005,-62.526 -28.005,-114.681 0,-107.221 -30.32,-140.025 -129.364,-140.025 -52.491,0 -76.006,-8.046 -76.006,-25.979 0,-14.292 -21.003,-31.263 -46.675,-37.704 -25.671,-6.45 -46.674,-19.958 -46.674,-30.031 0,-10.072 -9.055,-18.306 -20.117,-18.306 -26.129,0 -129.243,-103.123 -129.243,-129.252 0,-11.053 -7.496,-20.107 -16.654,-20.107 -9.158,0 -22.021,-21.406 -28.584,-47.553 -6.562,-26.147 -48.29,-84.958 -92.734,-130.69 -76.92,-79.142 -85.91,-83.137 -186.718,-83.137 -75.688,0 -108.884,7.785 -116.37,27.295 -5.76,15.011 -28.071,32.878 -49.578,39.711 -21.499,6.824 -68.108,42.848 -103.563,80.057 l -64.449,67.642 9.896,-90.998 c 5.442,-50.045 18.016,-96.253 27.92,-102.685 9.905,-6.432 23.786,-43.193 30.862,-81.7 12.313,-66.932 16.122,-70.012 86.713,-70.012 46.768,0 73.737,-8.551 73.55,-23.338 -0.56,-46.796 -29.61,-64.822 -120.459,-74.81 -51.006,-5.611 -95.805,-19.426 -99.567,-30.703 -3.762,-11.277 -21.956,-20.509 -40.439,-20.509 -35.548,0 -55.944,-48.99 -56.374,-135.358 -0.187,-28.238 -8.653,-51.342 -18.922,-51.342 -10.268,0 -18.67,-12.864 -18.67,-28.593 0,-15.72 -12.602,-33.429 -28.005,-39.347 -15.403,-5.909 -28.005,-26.651 -28.005,-46.087 0,-19.435 -9.727,-35.333 -21.592,-35.333 -11.864,0 0.747,-19.183 28.005,-42.614 93.369,-80.225 53.714,-124.613 -111.786,-125.164 -79.852,-0.28 -99.997,-19.715 -99.997,-96.468 0,-48.159 -43.053,-90.484 -92.024,-90.484 -32.673,0 -38.666,11.585 -38.666,74.68 0,55.441 -7.58,74.68 -29.358,74.68 -16.131,0 -41.336,12.005 -56.01,26.67 -30.311,30.311 -36.313,122.69 -7.982,122.69 10.269,0 18.67,42.008 18.67,93.35 0,80.897 -4.975,93.35 -37.34,93.35 -20.537,0 -37.34,-7.496 -37.34,-16.644 0,-9.158 -20.882,-21.9 -46.404,-28.304 -28.612,-7.179 -50.857,-29.415 -58.035,-58.026 -6.404,-25.522 -18.213,-46.386 -26.25,-46.386 -8.047,0 -19.912,-21.004 -26.353,-46.675 -7.281,-29.013 -24.943,-46.675 -46.694,-46.675 -44.294,0 -57.643,-35.258 -57.643,-152.226 0,-51.23 -10.502,-104.869 -23.338,-119.179 -74.484,-83.063 -90.484,-120.665 -51.342,-120.665 10.268,0 18.67,-25.204 18.67,-56.01 0,-30.805 -8.402,-56.01 -18.67,-56.01 -10.269,0 -18.67,-8.998 -18.67,-20.004 0,-20.705 -45.592,-73.345 -63.525,-73.345 -21.9,0 -176.665,-167.984 -188.175,-204.259 -6.712,-21.154 -20.033,-38.451 -29.61,-38.451 -9.578,0 -17.41,-11.912 -17.41,-26.456 0,-14.544 -9.242,-29.517 -20.518,-33.279 -11.277,-3.753 -24.832,-45.312 -30.134,-92.342 -9.027,-80.057 -6.544,-86.292 39.16,-97.765 36.93,-9.27 48.832,-24.038 48.832,-60.659 0,-45.807 3.734,-47.683 69.956,-35.258 81.784,15.337 97.392,34.231 97.775,118.377 0.373,77.704 36.257,114.494 122.484,125.537 37.014,4.733 80.244,21.564 96.067,37.396 37.573,37.573 69.536,25.736 77.49,-28.724 10.147,-69.508 48.766,-93.527 150.405,-93.527 73.046,0 91.856,-5.853 84.062,-26.166 -5.527,-14.395 -38.862,-31.59 -74.092,-38.199 -35.221,-6.609 -64.048,-20.042 -64.048,-29.844 0,-9.802 -25.204,-17.811 -56.009,-17.811 -30.806,0 -56.01,-8.402 -56.01,-18.67 0,-10.269 -17.597,-18.67 -39.095,-18.67 -23.385,0 -43.016,-15.001 -48.86,-37.34 -5.367,-20.537 -17.195,-37.34 -26.259,-37.34 -9.074,0 -16.616,-18.903 -16.775,-42.008 -0.373,-58.437 -19.24,-80.869 -80.636,-95.907 -91.38,-22.376 -124.435,0.09 -124.435,84.715 0,101.677 -44.734,86.087 -52.426,-18.269 -3.892,-52.761 -14.431,-77.891 -32.672,-77.891 -14.815,0 -26.922,-8.401 -26.922,-18.67 0,-10.268 -16.728,-18.67 -37.144,-18.67 -20.425,0 -54.031,-14.478 -74.68,-32.159 -43.24,-37.023 -50.782,-117.201 -11.034,-117.201 35.622,0 46.656,-70.862 41.065,-263.937 -3.52,-121.747 -12.369,-168.945 -36.117,-192.693 -17.308,-17.307 -31.45,-51.856 -31.45,-76.799 0,-57.756 -72.43,-62.928 -112.02,-8 -34.381,47.701 -105.877,48.803 -120.776,1.857 -6.189,-19.519 -31.963,-40.691 -57.27,-47.039 -53.35,-13.386 -139.344,4.22 -139.344,28.537 0,32.654 -35.062,15.944 -47.282,-22.534 -14.31,-45.107 -74.595,-110.181 -102.078,-110.181 -24.215,0 -93.35,69.135 -93.35,93.35 0,10.268 -23.356,18.67 -51.893,18.67 -30.479,0 -62.992,15.412 -78.797,37.34 -18.502,25.671 -48.336,37.34 -95.487,37.34 -69.891,0 -91.212,-21.891 -91.212,-93.621 0,-19.006 -16.803,-39.889 -37.34,-46.404 -20.537,-6.516 -37.34,-19.688 -37.34,-29.266 0,-23.617 -69.966,-22.245 -77.892,1.531 -3.472,10.418 -64.654,24.393 -135.964,31.049 -102.33,9.559 -138.148,21.302 -170.065,55.739 -54.124,58.39 -112.785,56.999 -127.852,-3.043 -10.987,-43.782 -19.211,-46.675 -132.706,-46.675 -68.22,0 -120.991,8.14 -120.991,18.67 0,10.268 -17.083,18.67 -37.947,18.67 -20.854,0 -42.754,12.602 -48.663,28.005 -22.273,58.054 -249.45,25.26 -249.45,-36.015 0,-22.805 -76.239,-85.34 -104.038,-85.34 -31.356,0 -82.662,42.95 -82.662,69.191 0,35.043 -78.936,80.169 -140.249,80.169 -45.442,0 -65.12,8.457 -65.12,28.005 0,15.402 -12.603,28.004 -28.005,28.004 -15.403,0 -28.005,8.402 -28.005,18.67 0,26.792 -50.857,23.067 -63.796,-4.667 -8.719,-18.67 -13.069,-18.67 -21.788,0 -12.546,26.885 -101.116,32.075 -101.116,5.928 0,-9.578 16.803,-22.75 37.34,-29.265 20.537,-6.516 37.34,-28.089 37.34,-47.936 0,-23.636 -12.883,-36.079 -37.34,-36.079 -20.537,0 -37.34,8.401 -37.34,18.67 0,10.268 -11.725,18.67 -26.026,18.67 -14.301,0 -30.824,12.602 -36.733,28.005 -5.909,15.402 -27.828,28.004 -48.682,28.004 -20.864,0 -37.919,8.402 -37.919,18.67 0,10.269 -14.703,19.333 -32.673,20.145 -25.746,1.158 -26.819,3.772 -5.022,12.323 42.717,16.765 75.035,55.048 75.035,88.887 0,16.869 11.986,42.671 26.651,57.336 30.311,30.311 122.709,36.341 122.709,8.009 0,-10.268 12.602,-18.67 28.005,-18.67 15.402,0 28.005,12.005 28.005,26.67 0,31.179 -49.821,85.35 -78.498,85.35 -26.652,0 -89.532,74.139 -89.532,105.542 0,13.834 12.602,25.148 28.005,25.148 15.403,0 28.005,-7.496 28.005,-16.644 0,-9.158 20.443,-21.788 45.433,-28.061 24.981,-6.273 50.745,-28.154 57.252,-48.645 6.506,-20.49 32.261,-42.39 57.242,-48.663 24.99,-6.273 45.443,-17.97 45.443,-25.998 0,-8.037 61.676,-17.727 137.065,-21.536 130.42,-6.581 140.296,-10.315 202.906,-76.724 36.21,-38.386 74.642,-69.789 85.406,-69.789 10.772,0 22.562,-8.924 26.203,-19.836 3.967,-11.903 103.516,-24.01 248.927,-30.246 223.564,-9.596 245.576,-7.514 284.334,26.708 23.105,20.397 42.008,50.11 42.008,66.035 0,49.233 21.433,88.029 48.654,88.029 14.301,0 26.026,-8.401 26.026,-18.67 0,-34.035 57.139,-19.342 98.885,25.41 22.619,24.253 60.043,50.017 83.147,57.27 23.104,7.254 42.008,26.465 42.008,42.699 0,32.523 117.219,154.671 148.426,154.671 10.773,0 19.604,8.402 19.604,18.67 0,34.848 79.44,18.876 116.062,-23.337 31.533,-36.36 51.93,-41.345 151.553,-37.032 63.31,2.744 117.911,13.246 121.337,23.337 10.539,31.095 75.818,20.341 115.137,-18.978 20.537,-20.537 37.34,-42.138 37.34,-48.01 0,-5.862 10.502,-22.385 23.338,-36.696 12.835,-14.319 34.157,-38.926 47.403,-54.684 15.552,-18.511 56.141,-28.64 114.699,-28.64 63.319,0 93.845,-8.439 101.35,-28.005 5.909,-15.402 22.908,-28.005 37.779,-28.005 14.861,0 30.413,-10.147 34.549,-22.553 5.545,-16.644 15.132,-15.449 36.518,4.537 26.119,24.401 25.251,30.357 -8.803,59.893 -20.808,18.045 -49.531,32.803 -63.833,32.803 -29.591,0 -117.63,82.26 -117.63,109.901 0,10.045 16.355,23.459 36.369,29.816 20.005,6.348 42.157,30.022 49.196,52.594 7.048,22.581 22.18,48 33.634,56.486 15.01,11.118 14.31,18.063 -2.511,24.887 -12.836,5.209 -23.338,21.377 -23.338,35.921 0,17.876 -21.62,26.455 -66.698,26.455 -66.074,0 -120.002,33.559 -120.002,74.68 0,41.111 53.928,74.68 120.002,74.68 36.677,0 66.698,8.299 66.698,18.446 0,10.147 33.606,23.832 74.68,30.395 41.074,6.572 74.68,19.267 74.68,28.229 0,8.952 10.502,16.411 23.338,16.569 12.835,0.187 34.679,7.478 48.551,16.262 20.518,13.004 18.857,23.384 -8.831,55.72 -18.717,21.863 -41.158,39.749 -49.877,39.749 -8.719,0 -28.472,12.602 -43.874,28.005 -15.403,15.403 -48.402,28.005 -73.345,28.005 -24.934,0 -45.322,8.401 -45.322,18.67 0,10.268 -25.204,18.67 -56.01,18.67 -30.805,0 -56.01,-7.468 -56.01,-16.598 0,-9.12 -28.817,-22.002 -64.001,-28.602 -35.192,-6.6 -66.885,-20.677 -70.413,-31.291 -3.538,-10.605 -41.943,-24.038 -85.36,-29.863 -43.417,-5.825 -78.946,-17.886 -78.946,-26.801 0,-8.914 -42.007,-16.205 -93.35,-16.205 -51.342,0 -93.349,-8.402 -93.349,-18.67 0,-10.269 -21.004,-18.67 -46.675,-18.67 -25.672,0 -46.675,8.401 -46.675,18.67 0,10.268 -9.018,18.67 -20.024,18.67 -38.834,0 -73.336,54.087 -73.588,115.352 -0.467,106.699 -18.567,146.028 -67.277,146.028 -27.109,0 -44.481,-10.95 -44.481,-28.005 0,-15.403 -8.402,-28.005 -18.67,-28.005 -10.269,0 -18.67,-21.004 -18.67,-46.675 0,-25.671 8.401,-46.675 18.67,-46.675 10.268,0 18.67,-25.205 18.67,-56.01 0,-30.806 8.401,-56.01 18.67,-56.01 10.268,0 18.67,-25.205 18.67,-56.01 0,-30.806 -8.402,-56.01 -18.67,-56.01 -10.269,0 -18.67,-21.004 -18.67,-46.675 0,-61.088 -16.467,-58.876 -75.324,10.082 -55.786,65.363 -111.376,59.324 -111.376,-12.089 0,-25.746 -11.043,-44.668 -26.026,-44.668 -14.301,0 -31.086,-13.256 -37.303,-29.461 -7.617,-19.856 -31.123,-28.127 -72.01,-25.307 -99.072,6.814 -126.041,0.373 -126.041,-30.143 0,-25.055 -31.702,-60.192 -125.238,-138.839 -12.397,-10.428 -30.61,-18.96 -40.458,-18.96 -9.849,0 -21.396,-10.502 -25.671,-23.337 -11.062,-33.177 -427.683,-33.177 -438.745,0 -13.844,41.531 -87.478,23.225 -134.489,-33.457 -55.413,-66.81 -143.675,-75.016 -192.591,-17.886 -17.587,20.537 -44.649,37.34 -60.145,37.34 -15.505,0 -28.182,8.402 -28.182,18.67 0,10.269 -29.406,18.67 -65.345,18.67 -35.94,0 -65.345,8.402 -65.345,18.67 0,10.269 -12.883,18.67 -28.612,18.67 -15.72,0 -33.279,12.285 -39.048,27.296 -5.76,15.01 -26.064,32.233 -45.126,38.282 -19.071,6.05 -39.879,27.38 -46.227,47.385 -11.976,37.723 -102.367,53.368 -102.367,17.727 0,-10.894 -62.237,-18.67 -149.36,-18.67 -82.148,0 -149.36,7.739 -149.36,17.195 0,9.447 -26.082,22.899 -57.924,29.9 -31.86,6.992 -75.968,30.759 -98.017,52.818 -34.82,34.828 -39.926,60.388 -38.731,194.139 l 1.4,154.028 -72.729,0 c -40.009,0 -84.453,10.502 -98.764,23.337 -14.32,12.836 -38.637,33.886 -54.04,46.797 -15.412,12.919 -23.188,36.051 -17.298,51.398 5.891,15.356 5.442,48.887 -0.989,74.54 -8.551,34.054 -24.206,46.638 -58.027,46.638 -28.723,0 -46.311,10.632 -46.311,28.005 0,15.402 -7.738,28.005 -17.195,28.005 -9.456,0 -23.104,27.304 -30.338,60.677 -23.543,108.491 -101.826,110.536 -101.826,2.661 0,-34.839 -3.987,-63.338 -8.85,-63.338 -16.598,0 -177.85,168.944 -177.85,186.335 0,23.693 -94.975,117.005 -106.923,105.056 -22.684,-22.684 16.7,-140.519 50.549,-151.254 25.157,-7.991 39.365,-35.847 48.15,-94.415 6.851,-45.685 19.388,-83.062 27.874,-83.062 8.476,0 21.218,-58.811 28.294,-130.69 7.085,-71.88 20.201,-130.69 29.135,-130.69 8.943,0 16.271,-21.004 16.271,-46.675 0,-25.671 7.328,-46.675 16.28,-46.675 8.961,0 21.564,-33.037 28.023,-73.42 7.982,-49.923 23.394,-77.135 48.113,-84.986 19.996,-6.347 41.251,-27.006 47.254,-45.909 11.65,-36.715 61.919,-56.402 145.047,-56.813 28.238,-0.09 51.342,-7.58 51.342,-16.532 0,-8.962 33.037,-21.564 73.42,-28.024 50.708,-8.112 77.088,-23.291 85.275,-49.065 6.516,-20.527 26.372,-37.321 44.136,-37.321 17.755,0 52.892,-24.859 78.087,-55.226 25.186,-30.376 58.409,-55.926 73.812,-56.794 15.403,-0.84 48.617,-26.427 73.803,-56.794 25.195,-30.376 60.901,-55.226 79.347,-55.226 18.455,0 33.55,-8.401 33.55,-18.67 0,-10.268 12.602,-18.67 28.005,-18.67 15.403,0 28.005,-7.496 28.005,-16.644 0,-9.158 21.004,-21.928 46.675,-28.369 25.671,-6.451 46.675,-19.958 46.675,-30.031 0,-10.072 12.602,-18.306 28.005,-18.306 15.403,0 28.005,-12.602 28.005,-28.005 0,-17.428 -17.634,-28.005 -46.675,-28.005 -25.671,0 -46.675,7.338 -46.675,16.299 0,8.962 -43.762,20.5 -97.233,25.634 -53.481,5.134 -100.305,18.549 -104.058,29.788 -3.752,11.249 -35.603,25.839 -70.796,32.439 -35.193,6.6 -63.973,19.482 -63.973,28.603 0,9.129 -12.602,16.597 -28.005,16.597 -15.403,0 -28.005,7.487 -28.005,16.645 0,9.157 -21.004,21.909 -46.675,28.35 -25.671,6.441 -46.675,19.295 -46.675,28.556 0,9.251 -25.204,22.366 -56.01,29.134 -30.805,6.768 -56.01,20.024 -56.01,29.48 0,9.456 -13.311,17.195 -29.573,17.195 -39.627,0 -22.955,-44.948 19.744,-53.219 18.567,-3.603 52.425,-26.707 75.258,-51.342 22.834,-24.644 51.063,-44.799 62.722,-44.799 11.66,0 21.209,-8.252 21.209,-18.324 0,-10.073 20.379,-23.431 45.303,-29.686 24.934,-6.254 49.886,-23.225 55.45,-37.704 5.554,-14.478 27.146,-26.306 48,-26.306 20.864,0 37.947,-8.401 37.947,-18.67 0,-10.268 12.602,-18.67 28.005,-18.67 15.403,0 28.005,-7.496 28.005,-16.644 0,-9.158 21.004,-21.928 46.675,-28.369 25.671,-6.45 46.675,-19.958 46.675,-30.031 0,-10.072 12.602,-18.306 28.005,-18.306 15.403,0 28.005,-7.738 28.005,-17.195 0,-9.456 25.204,-22.712 56.01,-29.48 30.805,-6.767 56.01,-19.659 56.01,-28.649 0,-8.98 29.405,-21.862 65.345,-28.602 35.94,-6.74 65.345,-19.716 65.345,-28.845 0,-9.12 21.004,-16.588 46.675,-16.588 25.671,0 46.675,-8.309 46.675,-18.456 0,-10.147 33.606,-23.823 74.68,-30.394 41.074,-6.563 74.68,-19.165 74.68,-28.005 0,-8.831 33.606,-21.434 74.68,-28.005 41.074,-6.563 74.68,-19.268 74.68,-28.22 0,-8.952 16.803,-16.28 37.34,-16.28 20.537,0 37.34,-7.795 37.34,-17.326 0,-9.522 48.308,-23.272 107.352,-30.535 59.044,-7.263 112.319,-20.938 118.414,-30.395 6.096,-9.456 58.605,-22.105 116.688,-28.098 58.082,-5.993 105.625,-18.11 105.625,-26.941 0,-8.84 32.897,-16.065 73.112,-16.065 40.224,0 75.949,-8.486 79.413,-18.857 3.454,-10.362 100.771,-24.243 216.254,-30.843 115.493,-6.609 209.991,-19.146 209.991,-27.846 0,-8.7 193.234,-15.804 429.41,-15.804 z m 1586.875,392.07 c -10.269,0 -18.67,8.998 -18.67,19.995 0,31.431 45.676,69.144 94.992,78.442 42.381,7.991 42.017,8.635 -6.31,11.025 -28.238,1.4 -51.342,6.656 -51.342,11.668 0,21.004 66.166,84.239 88.15,84.239 13.125,0 23.869,16.234 23.869,36.08 0,19.846 15.973,41.158 35.483,47.347 19.519,6.199 40.672,31.973 47.02,57.27 10.343,41.196 21.284,46.003 104.543,46.003 51.146,0 93.004,8.402 93.004,18.67 0,10.269 24.897,18.67 55.348,18.67 36.341,0 75.072,19.249 112.682,56.01 31.515,30.806 65.401,56.01 75.315,56.01 9.914,0 18.035,8.402 18.035,18.67 0,10.269 16.803,18.67 37.34,18.67 21.088,0 37.34,12.444 37.34,28.584 0,15.729 14.675,34.231 32.617,41.121 17.941,6.879 51.939,31.823 75.538,55.421 58.979,58.988 66.475,54.451 52.687,-31.776 -9.512,-59.464 -6.189,-74.68 16.28,-74.68 37.228,0 35.744,-28.136 -3.92,-74.465 -37.676,-43.996 -98.522,-49.905 -98.522,-9.55 0,15.403 -12.602,28.005 -28.005,28.005 -15.403,0 -28.005,-8.401 -28.005,-18.67 0,-10.268 -11.977,-18.67 -26.586,-18.67 -14.619,0 -51.772,-25.204 -82.577,-56.01 -30.806,-30.805 -73.467,-56.01 -94.788,-56.01 -21.33,0 -38.759,-8.401 -38.759,-18.67 0,-10.268 -10.744,-18.67 -23.869,-18.67 -13.116,0 -38.236,-16.803 -55.824,-37.34 -17.587,-20.537 -53.06,-37.34 -78.824,-37.34 -25.774,0 -46.853,-8.401 -46.853,-18.67 0,-10.268 -16.523,-18.67 -36.705,-18.67 -43.417,0 -140.417,-89.756 -158.471,-146.624 -6.982,-21.994 -33.13,-45.126 -58.11,-51.399 -24.99,-6.273 -45.433,-18.885 -45.433,-28.042 0,-9.158 -8.402,-16.644 -18.67,-16.644 z m 727.765,1530.939 c -32.99,0 -19.221,41.55 28.369,85.657 42.568,39.45 46.843,57.7 48.822,207.499 1.195,90.344 6.031,149.556 10.726,131.586 5.946,-22.787 27.156,-32.673 70.078,-32.673 59.51,0 61.882,-2.922 71.478,-88.085 5.461,-48.439 19.127,-91.137 30.432,-94.899 28.388,-9.457 25.905,-96.552 -2.829,-99.278 -43.641,-4.135 -79.338,5.89 -91.679,25.765 -8.028,12.947 -23.066,9.064 -43.314,-11.193 -17.074,-17.064 -42.147,-31.03 -55.702,-31.03 -13.554,0 -29.9,-21.003 -36.36,-46.674 -6.441,-25.672 -19.948,-46.675 -30.021,-46.675 z m 560.464,93.349 c -10.269,0 -18.67,33.606 -18.67,74.68 0,41.074 8.401,74.68 18.67,74.68 10.268,0 18.67,21.004 18.67,46.675 0,25.672 8.401,46.675 18.67,46.675 10.268,0 18.67,37.144 18.67,82.54 0,71.273 10.194,92.828 74.68,157.958 59.1,59.697 74.68,89.336 74.68,142.088 0,42.035 10.343,70.638 28.005,77.415 46.012,17.652 32.588,62.759 -18.67,62.759 -29.042,0 -46.675,-10.586 -46.675,-28.005 0,-15.403 -7.487,-28.005 -16.645,-28.005 -9.157,0 -21.918,-21.004 -28.378,-46.675 -6.441,-25.671 -24.719,-46.675 -40.617,-46.675 -46.609,0 -13.041,71.039 76.501,161.869 43.827,44.453 93.219,80.841 109.761,80.841 16.532,0 30.068,8.401 30.068,18.67 0,10.268 12.854,18.67 28.583,18.67 15.72,0 33.42,12.602 39.329,28.005 5.909,15.403 22.861,28.005 37.648,28.005 23.561,0 55.263,29.097 139.483,128.048 14.553,17.102 43.492,21.723 88.953,14.199 37.06,-6.134 94.713,-11.249 128.086,-11.361 48.159,-0.187 60.677,-7.898 60.677,-37.536 0,-20.537 8.402,-37.34 18.67,-37.34 23.338,0 24.757,-50.671 1.653,-59.128 -9.345,-3.426 -22.89,-46.124 -30.115,-94.9 l -13.125,-88.682 76.789,0 c 81.346,0 101.22,-31.468 53.481,-84.706 -12.836,-14.32 -33.382,-38.059 -45.639,-52.77 -12.266,-14.712 -32.234,-30.059 -44.379,-34.111 -12.145,-4.051 -26.278,-51.109 -31.412,-104.579 -5.144,-53.481 -16.121,-97.234 -24.392,-97.234 -8.271,0 -20.229,-16.383 -26.586,-36.397 -6.348,-20.005 -27.931,-41.578 -47.936,-47.926 -20.014,-6.357 -36.369,-27.09 -36.369,-46.096 0,-53.349 -20.191,-93.621 -46.917,-93.621 -17.494,0 -21.433,20.771 -14.199,74.68 5.508,41.074 5.993,74.68 1.074,74.68 -19.51,0 -89.318,-71.02 -89.318,-90.876 0,-11.631 -12.602,-21.144 -28.005,-21.144 -15.402,0 -28.005,-7.738 -28.005,-17.195 0,-9.456 -25.204,-22.712 -56.01,-29.48 -30.805,-6.767 -56.009,-20.051 -56.009,-29.498 0,-9.457 -12.603,-17.177 -28.005,-17.177 -15.403,0 -28.005,8.402 -28.005,18.67 0,10.269 -17.083,18.67 -37.947,18.67 -20.855,0 -42.754,12.603 -48.664,28.005 -29.078,75.782 -193.439,-34.044 -193.439,-129.252 0,-26.455 -8.402,-48.113 -18.67,-48.113 z m 832.635,1197.139 c -8.393,-0.84 -11.156,8.103 -11.156,25.746 0,15.402 8.402,28.005 18.67,28.005 10.269,0 18.67,12.602 18.67,28.005 0,15.402 8.402,28.005 18.67,28.005 10.269,0 18.67,17.064 18.67,37.918 0,20.864 14.703,43.501 32.673,50.307 17.97,6.805 43.015,22.581 55.664,35.081 12.658,12.49 31.59,25.577 42.092,29.078 29.106,9.699 33.708,281.263 4.929,290.953 -40.141,13.508 -26.951,115.194 20.723,159.666 24.243,22.609 50.017,60.015 57.27,83.119 14.563,46.404 48.029,57.233 48.029,15.552 0,-14.544 10.502,-31.347 23.338,-37.34 18.669,-8.71 18.669,-13.06 0,-21.769 -27.641,-12.901 -31.711,-101.136 -4.668,-101.136 10.268,0 18.67,-12.602 18.67,-28.005 0,-37.424 87.217,-36.798 124.912,0.934 40.168,40.168 48.915,23.412 33.979,-64.981 -9.774,-57.858 -21.331,-75.94 -48.533,-75.94 -19.631,0 -35.678,12.602 -35.678,28.005 0,43.949 -50.4,32.738 -62.918,-14.003 -21.816,-81.392 -13.349,-200.702 14.236,-200.702 26.698,0 48.682,-38.628 48.682,-85.546 0,-14.563 -12.602,-26.474 -28.005,-26.474 -15.561,0 -28.005,-16.598 -28.005,-37.34 0,-28.845 -12.453,-37.34 -54.684,-37.34 -30.078,0 -67.884,-13.2 -84.015,-29.34 -26.67,-26.67 -29.331,-24.971 -29.331,18.67 0,26.409 -8.401,48.01 -18.67,48.01 -10.268,0 -18.67,-8.402 -18.67,-18.67 0,-10.269 -11.977,-18.67 -26.586,-18.67 -14.619,0 -51.772,-25.204 -82.577,-56.01 -35.492,-35.492 -55.59,-52.687 -66.381,-53.751 z m -954.504,1996.251 c -25.213,-0.467 -47.832,12.359 -55.758,37.303 -6.655,20.966 -6.487,71.375 0.365,112.019 9.456,55.964 21.162,73.896 48.196,73.896 27.772,0 35.753,13.461 35.949,60.678 0.374,88.692 19.174,144.692 48.589,144.692 14.208,0 25.839,7.823 25.839,17.373 0,19.351 55.235,33.008 140.025,34.623 30.805,0.56 43.566,-3.837 28.35,-9.811 -35.781,-14.04 -75.006,-53.443 -75.006,-75.333 0,-29.35 -63.329,-91.577 -107.353,-105.476 -32.831,-10.362 -42.007,-27.259 -42.007,-77.341 0,-35.249 8.401,-64.085 18.67,-64.085 28.332,0 22.301,-92.379 -8.01,-122.689 -17.055,-17.056 -38.236,-25.485 -57.849,-25.849 z m 884.342,1776.543 c -3.053,0.09 -10.222,6.814 -22.554,19.146 -16.756,16.756 -30.46,35.799 -30.46,42.297 0,15.897 -217.029,233.561 -232.88,233.561 -19.79,0 -65.84,51.305 -65.84,73.345 0,11.006 -8.252,20.005 -18.324,20.005 -10.073,0 -23.59,21.004 -30.031,46.675 -6.441,25.671 -22.114,46.675 -34.838,46.675 -34.502,0 -96.356,59.576 -111.441,107.352 -7.468,23.655 -28.369,42.008 -47.823,42.008 -72.907,0 -93.602,21.088 -93.602,95.338 0,39.973 -9.055,72.692 -20.127,72.692 -11.071,0 -51.482,33.606 -89.784,74.68 -38.301,41.074 -75.445,74.68 -82.549,74.68 -23.524,0 -13.386,-58.204 15.095,-86.676 30.955,-30.955 36.677,-113.401 10.735,-154.391 -14.105,-22.292 -21.48,-21.564 -47.711,4.667 -17.074,17.065 -43.053,31.03 -57.728,31.03 -16,0 -26.651,18.67 -26.651,46.675 0,25.671 8.401,46.675 18.67,46.675 10.268,0 18.67,29.797 18.67,66.222 0,53.172 -16.168,82.606 -81.971,149.36 -45.069,45.723 -91.277,83.138 -102.685,83.138 -11.398,0 -20.714,12.602 -20.714,28.005 0,15.402 -8.401,28.005 -18.67,28.005 -10.268,0 -18.67,21.003 -18.67,46.675 0,53.19 41.317,62.535 78.601,17.773 23.533,-28.247 48.066,-52.546 95.609,-94.666 12.957,-11.473 44.173,-27.389 69.359,-35.351 25.195,-7.954 59.398,-30.068 76.005,-49.131 16.607,-19.071 38.796,-34.66 49.317,-34.66 10.511,0 24.392,-21.004 30.833,-46.675 6.442,-25.672 25.13,-46.675 41.532,-46.675 27.641,0 249.534,-208.096 249.534,-234.019 0,-6.357 25.204,-36.78 56.01,-67.586 30.805,-30.805 56.01,-67.958 56.01,-82.568 0,-14.618 16.803,-26.567 37.339,-26.567 20.537,0 37.34,-11.958 37.34,-26.567 0,-14.61 25.205,-51.791 56.01,-82.596 30.806,-30.806 56.01,-61.985 56.01,-69.294 0,-7.319 21.004,-32.766 46.675,-56.561 25.672,-23.795 46.675,-59.856 46.675,-80.15 0,-20.294 12.603,-49.504 28.005,-64.906 15.403,-15.403 28.005,-36.313 28.005,-46.461 0,-10.137 7.272,-21.237 16.187,-24.663 8.906,-3.426 22.628,-26.828 30.47,-52.014 7.421,-23.832 10.296,-34.633 6.357,-34.502 z m -8387.651,4908.041 c 9.923,0.653 20.49,3.659 31.758,8.859 48.98,22.553 60.089,45.564 79.898,165.4625 l 15.991,96.6638 132.491,-13.6011 c 162.849,-16.7376 258.309,5.7597 376.443,88.6825 182.705,128.2441 206.173,138.6993 296.732,132.4262 52.686,-3.6593 149.864,-31.9724 255.097,-74.3532 184.954,-74.4933 273.534,-88.5798 331.822,-52.7521 126.321,77.6672 130.326,349.6142 6.749,459.3657 -33.933,30.1427 -37.293,39.291 -16.831,45.7695 68.416,21.6665 44.304,106.3443 -69.406,243.69 -111.245,134.3399 -333.539,291.2052 -497.732,351.2292 -58.475,21.3865 -68.351,32.131 -74.512,80.8597 -3.912,30.9082 6.852,144.459 23.916,252.3622 36.285,229.3515 38.031,583.4745 4.415,878.507 -11.463,100.6219 -20.649,188.4268 -20.275,195.12 0.756,15.3468 -22.423,15.1321 -202.271,-1.9883 -542.335,-51.6132 -1127.051,-255.5548 -1518.99,-529.7796 -123.698,-86.5447 -448.08,-366.2585 -449.359,-387.4676 -0.429,-7.2346 18.717,-53.0974 42.549,-101.9195 23.833,-48.8313 80.393,-195.4187 125.733,-325.7072 121.43,-348.9421 199.825,-487.6321 491.217,-868.976 129.794,-169.8688 139.736,-193.2437 142.62,-337.2266 5.218,-259.6811 111.899,-317.2221 284.531,-153.458 l 77.321,73.3264 28.976,-97.0466 c 24.934,-83.6319 53.35,-124.4729 91.418,-127.9549 3.164,-0.28 6.394,-0.28 9.699,-0.09 z m -1186.058,5290.3369 c -32.56,-1.2975 -101.21,14.8053 -242.056,46.8524 -185.851,42.2968 -243.765,48.0098 -619.116,61.0228 -333.558,11.5661 -463.473,9.1576 -667.928,-12.4155 -504.734,-53.2655 -614.382,0 -806.45,392.0884 -100.696,205.5379 -147.231,266.5888 -325.1,426.4599 -163.428,146.8768 -208.311,213.1459 -290.449,429.167 -65.924,173.4068 -64.869,183.2926 33.073,301.679 35.436,42.8289 83.885,104.2999 107.633,136.5896 44.294,60.2107 178.196,131.1007 241.72,127.9734 55.375,-2.7164 170.784,49.3635 194.346,87.6836 46.133,75.0441 19.136,171.8946 -59.716,233.2629 202.802,33.4006 404.317,80.7103 607.026,109.8729 351.78,56.5513 706.183,-14.46 1051.905,-77.4525 418.319,-75.0627 841.008,-98.1201 1264.527,-112.0199 -35.939,-19.3515 -69.032,-46.1056 -107.445,-84.8178 -93.518,-94.2367 -200.031,-287.3218 -286.706,-519.6231 -88.729,-237.8556 -106.055,-356.0367 -86.75,-592.5201 8.271,-101.3593 14.161,-330.6735 13.078,-509.6066 -1.111,-178.9332 0.626,-352.9561 3.846,-386.7115 3.575,-37.508 7.123,-56.1966 -25.438,-57.4849 z m -3473.495,449.8441 c -8.626,0.5601 -109.359,71.5994 -223.853,157.9667 -286.93,216.4132 -385.899,270.3881 -707.107,385.6473 -465.163,166.919 -586.471,221.7621 -653.45,295.2565 -34.493,37.8534 -84.734,127.5721 -120.375,215.0503 -33.652,82.568 -91.361,195.8668 -128.281,251.7741 -135.796,205.6779 -143.908,281.5248 -44.724,418.3944 94.759,130.802 89.952,210.6348 -14.787,245.6691 -36.229,12.1168 -88.691,44.6399 -116.575,72.2528 -3.613,3.5753 -6.787,6.5065 -10.119,9.6804 31.421,-2.4644 62.74,-7.1132 93.882,-15.0947 113.672,-39.2256 219.4,-100.6965 336.601,-130.6712 338.524,-78.4606 688.465,-50.5583 1032.74,-49.6809 325.091,21.6759 644.338,-49.0927 964.435,-95.8143 -80.691,-57.3916 -181.155,-165.5001 -306.225,-329.2453 -302.286,-395.7197 -277.006,-351.3411 -285.249,-499.6182 -6.684,-119.88 -1.223,-148.7158 64.383,-341.054 93.453,-274.0007 157.538,-592.8375 118.704,-590.513 z"
       id="path4795"
       inkscape:connector-curvature="0" />
  </g>
</svg>
