<?xml version="1.0" encoding="UTF-8" standalone="no"?>
<!-- Created with Inkscape (http://www.inkscape.org/) -->

<svg
   xmlns:dc="http://purl.org/dc/elements/1.1/"
   xmlns:cc="http://creativecommons.org/ns#"
   xmlns:rdf="http://www.w3.org/1999/02/22-rdf-syntax-ns#"
   xmlns:svg="http://www.w3.org/2000/svg"
   xmlns="http://www.w3.org/2000/svg"
   xmlns:sodipodi="http://sodipodi.sourceforge.net/DTD/sodipodi-0.dtd"
   xmlns:inkscape="http://www.inkscape.org/namespaces/inkscape"
   width="6096.8105mm"
   height="5279.9858mm"
   viewBox="0 0 21602.872 18708.611"
   id="svg2"
   version="1.1"
   inkscape:version="0.91 r13725"
   sodipodi:docname="Doge Cartoon Face Tile.svg">
  <defs
     id="defs4" />
  <sodipodi:namedview
     id="base"
     pagecolor="#ffffff"
     bordercolor="#666666"
     borderopacity="1.0"
     inkscape:pageopacity="0.0"
     inkscape:pageshadow="2"
     inkscape:zoom="0.022097087"
     inkscape:cx="12626.694"
     inkscape:cy="9877.3408"
     inkscape:document-units="px"
     inkscape:current-layer="layer1"
     showgrid="false"
     inkscape:window-width="1440"
     inkscape:window-height="856"
     inkscape:window-x="0"
     inkscape:window-y="0"
     inkscape:window-maximized="1"
     showguides="false"
     fit-margin-top="0"
     fit-margin-left="0"
     fit-margin-right="0"
     fit-margin-bottom="0" />
  <metadata
     id="metadata7">
    <rdf:RDF>
      <cc:Work
         rdf:about="">
        <dc:format>image/svg+xml</dc:format>
        <dc:type
           rdf:resource="http://purl.org/dc/dcmitype/StillImage" />
        <dc:title></dc:title>
      </cc:Work>
    </rdf:RDF>
  </metadata>
  <g
     inkscape:label="Layer 1"
     inkscape:groupmode="layer"
     id="layer1"
     transform="translate(-6997.0925,17079.88)">
    <path
       style="opacity:1;fill:#26a69a;fill-opacity:1;fill-rule:nonzero;stroke:none;stroke-width:20;stroke-linecap:butt;stroke-linejoin:miter;stroke-miterlimit:4;stroke-dasharray:none;stroke-dashoffset:0;stroke-opacity:1"
       d="m 12397.807,-17079.88 -5400.7145,9354.3096 5400.7145,9354.3017 10801.436,0 5400.722,-9354.3017 -5400.722,-9354.3096 -10801.436,0 z m 2933.461,3581.772 c 22.773,0.155 45.841,1.107 69.203,2.918 407.354,-28.138 711.468,242.041 996.842,490.429 731.502,556.938 1434.602,1486.558 2454.783,1341.247 944.142,230.763 1425.22,-372.729 1812.386,-1163.51 312.931,-698.076 1408.809,-878.848 1671.944,-37.543 361.644,993.235 636.498,2036.638 667.802,3100.0672 -41.499,821.9146 355.049,1558.1149 455.502,2354.2448 59.991,2182.0266 -1686.218,3971.6468 -3586.811,4773.4817 -1457.902,543.0586 -3068.941,641.3596 -4603.563,448.3804 -1396.741,-176.6692 -2519.736,-1277.8191 -2933.809,-2591.3932 -661.191,-1882.3709 -15.365,-4027.3654 1352.727,-5426.3439 684.507,-396.455 915.231,-1129.157 718.513,-1878.168 -200.697,-640.903 218.539,-1418.517 924.481,-1413.81 z m 124.596,907.83 c -278.345,6.634 -212.664,1379.82 145.35,955.266 649.983,-214.274 403.182,-722.073 -124.713,-953.331 -7.075,-1.463 -13.956,-2.097 -20.637,-1.935 z m 6073.339,160.29 c -144.537,119.719 -233.262,287.371 -332.461,442.512 -672.176,404.026 149.522,772.761 217.727,1028.425 -314.077,606.147 -759.447,565.554 -1255.17,194.048 -736.595,-91.776 -1496.66,61.021 -2213.996,-35.631 -710.857,-396.773 -1591.656,-589.148 -2156.699,150.745 -863.467,550.83 -1743.895,1150.273 -2214.507,2097.7827 -905.268,1539.924 -859.14,3792.2606 627.643,4961.6848 1098.34,726.7642 2514.511,645.8028 3768.086,487.0072 1941.635,-182.4361 3888.015,-1457.0118 4477.743,-3372.0724 291.876,-799.6442 -120.37,-1568.3561 -261.633,-2343.8411 -119.271,-1218.1912 -171.715,-2464.7612 -656.733,-3610.6602 z m -6085.569,2616.7751 c 19.987,0 40.492,0.6966 61.516,2.4074 881.055,-24.2444 857.948,1248.0323 62.809,1343.9878 -885.436,138.8552 -957.023,-1343.686 -124.325,-1346.3952 z m 3186.098,456.5005 c 20.312,-0.1548 41.174,0.5419 62.577,2.1597 864.087,-21.2951 866.572,1210.079 88.277,1343.5388 -898.959,166.8229 -997.276,-1339.0646 -150.854,-1345.6985 z m -3721.772,1800.4419 c 24.709,0.2322 50.339,1.8888 76.905,4.9851 302.241,19.8708 614.615,13.6781 904.022,116.0971 663.777,407.9268 -350.142,1314.3017 -899.439,1224.539 -723.862,-34.292 -847.529,-1353.4936 -81.488,-1345.6212 z m 75.489,1727.6858 c 110.097,114.5412 233.726,216.3487 368.642,300.4142 602.183,688.6019 1668.445,-437.4193 1905.345,551.2949 -164.036,882.9744 -1701.638,640.9106 -2334.196,247.9778 -773.232,-276.1235 -403.661,-723.9156 60.209,-1099.6869 z"
       id="path4457"
       inkscape:connector-curvature="0" />
  </g>
</svg>
