<?xml version="1.0" encoding="UTF-8" standalone="no"?>
<!-- Created with Inkscape (http://www.inkscape.org/) -->

<svg
   xmlns:dc="http://purl.org/dc/elements/1.1/"
   xmlns:cc="http://creativecommons.org/ns#"
   xmlns:rdf="http://www.w3.org/1999/02/22-rdf-syntax-ns#"
   xmlns:svg="http://www.w3.org/2000/svg"
   xmlns="http://www.w3.org/2000/svg"
   xmlns:sodipodi="http://sodipodi.sourceforge.net/DTD/sodipodi-0.dtd"
   xmlns:inkscape="http://www.inkscape.org/namespaces/inkscape"
   width="210mm"
   height="297mm"
   viewBox="0 0 744.09448819 1052.3622047"
   id="svg2"
   version="1.1"
   inkscape:version="0.91 r13725"
   sodipodi:docname="Doge Small Tile.svg">
  <defs
     id="defs4" />
  <sodipodi:namedview
     id="base"
     pagecolor="#ffffff"
     bordercolor="#666666"
     borderopacity="1.0"
     inkscape:pageopacity="0.0"
     inkscape:pageshadow="2"
     inkscape:zoom="0.027146617"
     inkscape:cx="13258.648"
     inkscape:cy="8037.8707"
     inkscape:document-units="px"
     inkscape:current-layer="layer1"
     showgrid="false"
     inkscape:window-width="1440"
     inkscape:window-height="856"
     inkscape:window-x="0"
     inkscape:window-y="0"
     inkscape:window-maximized="1"
     showguides="false" />
  <metadata
     id="metadata7">
    <rdf:RDF>
      <cc:Work
         rdf:about="">
        <dc:format>image/svg+xml</dc:format>
        <dc:type
           rdf:resource="http://purl.org/dc/dcmitype/StillImage" />
        <dc:title></dc:title>
      </cc:Work>
    </rdf:RDF>
  </metadata>
  <g
     inkscape:label="Layer 1"
     inkscape:groupmode="layer"
     id="layer1">
    <path
       style="opacity:1;fill:#26a69a;fill-opacity:1;fill-rule:nonzero;stroke:none;stroke-width:20;stroke-linecap:butt;stroke-linejoin:miter;stroke-miterlimit:4;stroke-dasharray:none;stroke-dashoffset:0;stroke-opacity:1"
       d="m 6737.2267,-16501.869 -5283.8896,9151.9843 5283.8896,9151.9766 10567.8103,0 5283.889,-9151.9766 -5283.889,-9151.9843 -10567.8103,0 z m 7356.2393,3898.725 0,0.977 c 38.36,-0.08 57.348,17.797 114.149,93.94 128.056,171.637 138.06,203.642 154.974,495.407 8.529,146.713 10.666,274.506 4.733,284.185 -5.906,9.55 -4.74,126.408 2.618,259.564 l 13.386,242.144 95.068,74.682 c 115.266,90.525 170.143,175.476 185.445,287.138 24.085,175.696 -74.16,238.139 -239.007,152.006 -40.872,-21.387 -104.525,-65.949 -141.469,-99.045 -36.942,-33.141 -123.631,-91.82 -192.663,-130.437 l -125.552,-70.16 -308.884,-6.195 c -332.476,-6.642 -397.471,-14.389 -462.2,-55.384 -54.094,-34.27 -55.423,-119.047 -2.618,-166.729 72.366,-65.381 213.52,-256.951 313.468,-425.52 54.527,-91.956 143.591,-239.039 197.915,-326.838 54.332,-87.798 129.084,-232.027 166.112,-320.507 92.998,-222.143 134.792,-280.307 206.76,-287.259 6.458,-1.969 12.298,-1.969 17.78,-1.969 z m -5779.3867,171.628 c 17.0258,0.303 33.5767,4.847 50.2185,13.451 22.7695,11.867 166.7946,143.826 320.0653,293.257 294.7867,287.396 474.4046,429.776 1133.2309,898.268 241.473,171.719 438.11,325.838 480.527,376.671 l 71.8,86.057 271.888,-13.148 c 264.04,-12.912 274.293,-14.935 355.477,-70.985 90.053,-62.208 219.977,-134.035 455.145,-251.657 179.028,-89.526 462.085,-152.309 705.451,-156.391 134.905,-2.295 167.688,2.453 172.058,25 3.845,19.834 -44.238,46.175 -166.659,91.305 -219.178,80.869 -536.711,247.196 -649.745,340.379 -143.783,118.539 -251.573,372.173 -207.264,487.629 18.009,46.91 248.494,213.957 295.231,213.957 22.735,0 75.617,12.064 117.55,26.878 41.932,14.791 124.518,32.119 183.493,38.768 101.56,11.269 111.648,8.535 190.829,-51.219 45.973,-34.716 108.67,-71.341 139.324,-81.475 50.258,-16.555 55.219,-25.121 50.263,-87.45 -4.634,-58.345 6.87,-83.784 74.077,-163.51 92.276,-109.405 139.961,-137.919 261.653,-156.111 67.681,-10.163 97.148,-25.749 126.411,-66.842 42.849,-60.148 90.944,-67.267 186.658,-27.606 34.447,14.291 146.218,31.96 248.399,39.064 104.769,7.346 203.683,24.288 226.817,38.95 22.567,14.261 51.352,61.511 63.886,104.96 12.569,43.471 46.356,106.46 75.083,140.04 38.827,45.357 52.216,80.551 52.216,137.147 0,45.622 16.123,102.211 40.234,141.221 30.552,49.455 43.164,108.0806 52.466,243.6598 13.978,204.1792 55.459,316.5535 165.387,448.0355 38.445,45.9782 104.778,143.5465 147.415,216.8571 87.524,150.461 99.364,241.963 42.468,328.2166 -39.488,59.9057 -188.72,187.9039 -265.143,227.4295 -72.316,37.3142 -169.724,32.6566 -225.058,-10.8905 -31.002,-24.4319 -75.365,-37.1249 -129.044,-37.1249 -106.822,0 -142.705,-34.921 -233.784,-227.4447 -137.962,-291.6143 -270.99,-409.343 -570.462,-504.9724 -192.284,-61.2538 -405.776,-64.9951 -529.266,-9.0881 -118.738,53.7258 -180.644,119.0843 -253.384,267.4247 -76.737,156.5273 -124.709,209.0035 -296.073,323.9149 -72.307,48.4547 -211.59,167.5845 -309.519,264.7286 -142.882,141.7137 -182.402,192.8267 -200.148,258.6472 -44.572,165.4563 -67.095,211.9192 -116.071,239.4183 -45.226,25.3255 -52.929,24.9695 -81.385,-3.4914 -18.993,-18.9714 -33.222,-66.6914 -35.989,-120.5687 -5.821,-114.1389 -26.538,-209.8517 -45.396,-209.8517 -8.104,0 -70.641,25.0907 -138.969,55.7555 -151.844,68.1304 -189.533,69.6527 -217.277,8.77 -18.195,-39.9346 -15.267,-54.5816 19.274,-97.538 76.975,-95.7279 86.839,-129.9219 49.464,-171.2121 -18.535,-20.6527 -44.733,-37.2461 -58.235,-37.2461 -43.036,0 -86.485,-85.4053 -64.419,-126.6501 26.233,-49 61.623,-60.4889 224.747,-72.4321 152.719,-11.2844 185.785,-26.7418 185.785,-86.9958 0,-59.9512 51.979,-122.6363 101.694,-122.6363 68.522,0 102.655,-19.3879 102.655,-58.3531 0,-19.6606 20.902,-77.0141 46.447,-127.4151 25.537,-50.4314 46.446,-109.0723 46.446,-130.3309 0,-64.3058 -164.945,-212.1161 -289.047,-259.0637 -98.064,-37.2309 -135.241,-40.8358 -333.526,-33.5805 -130.271,4.7788 -242.401,18.1535 -269.389,32.2173 -62.861,32.702 -300.2498,258.6775 -436.3441,415.4092 -100.1356,115.2901 -128.464,135.5111 -278.6629,198.8778 -199.5821,84.2315 -291.4393,156.5955 -353.0952,278.2321 -25.1801,49.7194 -86.8284,131.4517 -137.0023,181.6331 -50.1738,50.1663 -105.8203,119.6675 -123.6594,154.4143 -17.8309,34.7771 -47.9624,83.1637 -66.9475,107.5197 -19.01,24.3713 -34.5393,63.8363 -34.5393,87.7759 0,23.8865 -16.6812,70.8644 -37.0832,104.3086 -20.3937,33.4442 -37.5558,77.5669 -37.5558,98.0075 -0.2651,20.4104 -16.8455,58.073 -36.8318,83.6105 -43.1805,55.1647 -46.0645,107.4061 -8.698,156.8227 15.0135,19.8196 27.2612,50.5904 27.2612,68.5999 0,40.336 -68.5946,90.3811 -123.8518,90.3811 -48.4335,0 -99.0905,64.3286 -99.0905,125.8323 0,31.6493 -16.9796,50.3632 -63.3084,69.7132 -59.3226,24.7727 -62.7011,30.8844 -53.8576,96.8867 8.767,65.3737 4.3252,73.8029 -61.4893,116.6078 -39.022,25.3634 -94.7888,81.649 -123.8813,125.0749 -57.9646,86.5187 -101.249,98.5226 -152.1787,42.2597 -50.2836,-55.5434 -180.1926,-111.9426 -257.9398,-111.9426 -49.6816,0 -82.841,-13.5716 -117.1364,-47.8488 -41.6955,-41.7144 -46.6568,-59.5043 -39.0357,-138.9722 5.593,-58.1941 27.1325,-117.7135 59.6111,-164.5854 69.939,-100.893 86.8496,-187.813 73.2198,-376.2319 -9.5054,-131.4366 -4.7705,-184.3369 25.8412,-287.9563 20.6224,-69.8042 43.0753,-160.3746 49.8482,-201.2407 13.8503,-83.3152 23.0565,-115.5779 100.94,-352.9741 73.4946,-224.0064 91.5133,-340.1371 102.7583,-662.7341 l 9.541,-272.5975 -72.6131,-203.5657 c -104.8115,-293.8405 -138.8714,-533.1005 -135.3748,-951.0535 3.2929,-392.561 38.1609,-637.576 144.3386,-1014.398 83.6204,-296.727 158.3025,-460.994 253.9903,-558.699 58.7629,-59.996 105.3258,-89.154 148.4806,-91.736 l 0,-0.08 c 2.4522,-0.152 4.9045,-0.152 7.3363,-0.152 z m 7313.7567,1963.733 c 46.457,-1.106 97.925,12.087 146.232,39.246 56.471,31.747 76.775,57.345 92.153,116.115 57.481,219.765 61.185,226.46 187.383,337.6835 68.183,60.0874 161.919,136.4501 208.298,169.6899 65.747,47.1293 88.686,77.8016 104.209,139.3356 32.953,130.5959 51.457,160.2155 138.318,221.4541 114.376,80.619 131.323,137.253 91.502,306.1325 -30.806,130.7247 -30.643,135.761 8.727,243.7352 22.099,60.6251 40.19,149.2795 40.19,197.0298 0,76.0825 -5.872,89.0104 -47.644,104.8842 -71.917,27.3628 -115.637,22.0765 -156.705,-19.0017 -20.444,-20.433 -37.157,-49.7951 -37.157,-65.3206 0,-15.4725 -25.523,-73.341 -56.712,-128.6042 -40.694,-72.1064 -60.715,-138.1769 -70.942,-233.8442 -13.273,-124.204 -19.353,-137.98 -89.106,-202.3767 -49.851,-46.0237 -89.746,-108.1862 -119.458,-186.0561 -39.76,-104.248 -54.941,-122.8256 -139.546,-170.8713 -125.315,-71.137 -143.916,-94.6525 -197.382,-249.5818 -38.055,-110.2916 -65.123,-151.1805 -169.086,-255.1482 -68.089,-68.07 -123.807,-136.715 -123.807,-152.589 0,-53.393 51.505,-152.551 95.067,-183.065 26.224,-18.252 59.33,-26.878 95.466,-28.847 z m -426.566,1466.1674 c 185.172,0 262.812,38.3896 349.827,173.0222 105.846,163.775 93.001,232.1932 -24.94,132.9285 -42.824,-35.9661 -61.71,-42.04 -80.94,-26.151 -20.7,17.1462 -16.601,36.9734 23.252,113.1771 45.057,86.1778 47.482,103.4225 36.033,255.1861 -11.203,148.4768 -8.999,165.7063 25.279,196.7194 60.027,54.3241 46.016,105.6642 -44.478,162.9723 -123.075,77.9001 -178.379,69.1452 -374.855,-59.421 -178.264,-116.6306 -235.729,-178.0813 -324.458,-346.7336 -41.925,-79.7253 -54.642,-128.5056 -54.642,-209.7456 0,-100.7567 4.5,-110.9127 92.923,-210.1168 121.215,-136.0033 216.244,-181.8376 376.999,-181.8376 z m -3250.414,606.8499 c 31.936,-0.1514 71.289,0 122.964,1.9691 250.597,5.8013 331.554,24.2047 397.87,90.5553 59.739,59.7391 63.163,132.9664 8.95,191.1832 -37.902,40.6693 -38.789,49.2196 -17.174,166.0395 12.544,67.7518 27.599,196.3559 33.43,285.76 12.238,187.1996 13.897,188.3584 168.967,116.1762 137.349,-63.9575 226.271,-158.9735 226.271,-241.7888 0,-54.3695 -12.181,-73.4166 -77.095,-120.4475 -42.4,-30.7102 -88.123,-55.8237 -101.532,-55.8237 -42.425,0 -66.842,-68.4257 -40.1,-112.2001 18.475,-30.2103 35.778,-36.2766 78.959,-27.9534 112.644,22.031 382.017,177.5738 462.2,266.9173 34.023,37.9049 33.236,39.5484 -61.934,127.6423 -53.042,49.0909 -123.204,105.9823 -155.92,126.4381 -32.717,20.4407 -76.939,54.8921 -98.292,76.6354 -38.276,38.9198 -278.622,126.4684 -501.28,182.5344 -146.812,36.8598 -338.114,33.3457 -484.655,-9.0881 -63.691,-18.3958 -164.012,-60.6479 -222.927,-93.7892 -131.188,-73.8635 -384.815,-330.0114 -437.305,-441.6889 -37.953,-80.8159 -37.99,-82.4366 -2.796,-108.0954 79.954,-58.3228 168.1,-131.4744 258.339,-214.3502 52.414,-48.1215 153.369,-115.0326 224.318,-148.6283 94.016,-44.5619 122.958,-55.7479 218.757,-57.7169 l 0,-0.303 z m 5100.087,720.8904 0,0.1515 c 25.766,-0.7725 43.966,5.3241 65.158,19.2289 50.003,32.7626 86.073,102.8848 86.073,167.3421 0,44.4332 29.88,124.3176 93.691,250.574 59.297,117.3273 105.587,349.5584 125.938,631.6377 7.01,97.0533 22.881,194.1899 35.264,215.8574 93.761,164.0325 186.258,983.2183 124.577,1103.1584 -37.206,72.3639 -63.488,167.2285 -64.078,230.3529 -0.243,31.6569 -21.788,107.7772 -47.867,169.084 -135.992,319.5904 -158.819,401.1485 -145.936,521.3689 14.843,138.6237 -0.515,172.6662 -112.551,249.7332 -95.264,65.5555 -139.073,137.5105 -139.073,228.3687 0,84.6405 -33.258,179.293 -82.923,235.9421 -22.396,25.5527 -79.511,101.8548 -126.884,169.5763 -47.373,67.7366 -99.161,128.1118 -115.125,134.3069 -15.955,6.1117 -44.371,46.9173 -63.101,90.631 -50.751,118.4027 -122.753,193.3947 -220.902,230.0424 -128.328,47.9018 -169.243,78.7408 -209.792,158.2313 -53.628,105.1265 -112.491,136.3896 -260.78,136.3896 -109.903,0.3029 -132.133,6.5434 -177.901,49.5074 -28.779,26.9916 -94.647,70.2358 -146.365,96.0763 -51.727,25.8556 -141.026,85.2539 -198.447,132.0349 -62.794,51.1508 -123.158,85.0342 -151.453,85.0342 -26.105,0 -76.208,25.5906 -112.522,57.4974 -79.64,69.9026 -185.72,89.0936 -247.275,44.6983 -60.425,-43.5699 -120.893,-172.8935 -120.893,-258.473 0,-100.9082 67.402,-159.5264 183.492,-159.5264 103.157,0 184.019,-39.9573 219.451,-108.4815 43.945,-85.0495 70.555,-95.7431 252.171,-101.6352 165.39,-5.3847 174.115,-7.8158 216.642,-60.292 96.214,-118.7814 146.092,-162.3436 224.17,-195.8181 44.758,-19.1759 128.311,-73.1213 185.681,-119.8417 57.363,-46.7355 126.061,-96.2278 152.667,-109.9887 26.606,-13.7306 89.779,-76.5899 140.359,-139.6537 50.582,-63.0486 118.364,-125.8701 150.655,-139.1766 43.818,-18.3201 71.702,-52.0975 109.859,-133.239 28.133,-59.7846 77.949,-138.6086 110.717,-175.1503 49.961,-55.6873 61.43,-85.9734 70.926,-187.7222 9.744,-104.3011 41.751,-214.373 142.268,-488.9471 11.219,-30.6496 55.223,-160.2155 97.759,-287.9411 71.856,-215.7438 77.832,-249.3698 84.181,-473.7321 3.929,-132.8301 6.034,-274.5968 5.118,-315.0085 -0.959,-40.4496 8.358,-112.9878 20.723,-161.1698 25.587,-99.81 2.21,-351.3231 -50.722,-545.5962 -16.694,-61.2992 -37.077,-140.7519 -45.292,-176.4984 -25.205,-109.7539 -74.595,-230.3529 -110.332,-269.3711 -74.616,-81.5127 -101.813,-178.8386 -103.706,-371.5441 -1.018,-102.1956 -8.071,-219.2124 -15.709,-260.1013 -17.848,-95.4628 11.349,-135.7837 115.243,-159.1401 23.212,-5.4604 41.383,-8.7624 56.846,-8.7624 z m -1474.301,657.501 -0.08,1.03 c 102.655,-0.303 209.909,6.2859 281.503,19.4409 126.122,23.4322 339.326,92.2063 427.927,138.033 62.913,32.5278 80.128,63.185 80.128,142.5847 0,36.8901 11.452,56.6188 37.659,64.9344 77.874,24.7045 95.531,84.6708 85.704,291.0311 -18.094,379.7612 -62.686,679.4866 -133.821,899.7517 -36.103,111.7836 -161.664,267.4096 -215.784,267.4096 -20.657,0 -65.987,28.4003 -100.732,63.132 -71.45,71.4551 -80.578,133.8297 -31.728,216.5087 45.667,77.4078 114.34,98.8785 275.971,86.6323 99.991,-7.3917 138.466,-4.2336 138.466,11.6403 0,48.4017 -165.998,271.6734 -306.309,411.986 -81.854,81.8383 -211.539,190.1154 -288.175,240.5543 -76.635,50.5071 -144.015,98.5453 -149.752,106.7094 -17.135,24.5 -392.695,141.6531 -520.76,162.4043 -136.45,21.0238 -258.059,20.7587 -413.816,-1.9691 -304.853,-44.5317 -794.116,-192.4025 -1377.223,-416.3029 -194.134,-74.5754 -389.468,-145.2732 -434.066,-157.2241 -104.302,-27.8777 -169.706,-92.6758 -169.706,-168.0918 0,-86.4733 30.743,-128.2255 123.63,-168.0389 96.443,-41.4872 371.84,-50.5904 438.962,-14.6697 38.945,20.8344 255.038,69.0998 494.195,110.4355 140.345,24.2955 538.989,12.5416 638.607,-18.7594 38.419,-12.0796 103.222,-53.7257 143.983,-92.4713 90.189,-85.8219 97.943,-156.6333 26.375,-241.6903 -61.877,-73.5227 -44.869,-99.6813 55.114,-84.7087 91.699,13.7382 118.717,-8.3156 135.3,-110.496 10.015,-61.6552 7.338,-66.6536 -35.766,-66.6536 -99.914,0 -110.158,-99.6434 -12.425,-121.0989 40.007,-8.8003 54.167,-22.7051 54.167,-53.1654 0,-22.6748 -8.766,-49.8179 -19.451,-60.7009 -13.562,-13.5639 -12.789,-34.1333 2.588,-67.8956 31.809,-69.7966 -7.64,-155.823 -86.635,-188.8355 -33.658,-14.0714 -73.911,-50.0829 -89.417,-80.0661 -38.852,-75.1282 -72.416,-428.8445 -57.259,-603.1465 12.484,-143.3042 12.883,-144.1372 98.854,-215.1077 84.247,-69.5315 464.172,-234.5258 649.879,-282.1853 53.161,-13.6852 151.21,-20.9405 253.857,-20.9405 z m -7624.2522,618.2631 -0.2045,0.1515 c 36.4584,-0.9694 77.813,16.9265 138.451,54.9223 178.1116,111.5867 251.5388,202.0965 276.7696,341.205 7.3584,40.5329 27.4484,94.8873 44.6423,120.7883 65.6789,98.8558 151.6424,292.1596 167.0884,375.611 11.941,64.4952 34.0379,103.8845 85.3486,152.2635 72.6381,68.509 76.8784,112.2758 17.4544,180.179 -32.8777,37.5566 -32.0075,180.2094 2.041,322.7864 20.0711,84.08 42.1892,125.0674 92.2275,170.9092 57.6928,52.8094 65.8819,71.3264 66.2227,149.4689 0.4468,95.5083 52.4921,231.0648 113.7489,296.34 20.6398,22.0008 42.2036,74.9011 47.9404,117.5621 8.6822,64.7451 22.25,85.0646 82.0655,122.8181 39.4196,24.871 71.6657,52.1277 71.6657,60.7539 0,8.4898 30.1157,46.4931 66.9482,84.4284 93.9141,96.6973 196.3915,298.1955 181.5991,357.1318 -8.3512,33.3154 0.159,58.6106 30.6632,91.093 28.7957,30.6269 43.167,70.2813 45.2042,124.3706 5.4991,147.3407 81.7361,241.6903 230.0424,284.8133 139.1395,40.4269 313.5626,130.0582 394.3056,202.5888 36.485,32.7929 100.956,79.0664 143.289,102.8318 217.735,122.3939 154.624,411.0924 -98.144,448.914 -30.654,4.385 -160.2355,2.4159 -287.9528,-4.5365 -266.8227,-14.5258 -356.1662,-34.8377 -457.2599,-103.7936 -85.2153,-58.1411 -292.4625,-107.5122 -429.8207,-102.3774 -505.8865,18.9336 -522.0944,17.5703 -701.3094,-59.936 -91.9616,-39.768 -221.5351,-98.9845 -287.9525,-131.588 -66.4173,-32.6566 -191.8095,-87.0791 -278.6629,-121.008 -174.5301,-68.1607 -225.2628,-105.5506 -283.2782,-208.7914 -21.5055,-38.2533 -71.649,-92.1306 -111.4269,-119.7054 -83.5264,-57.8835 -111.3397,-105.6566 -144.0137,-247.59 -12.9422,-56.1947 -31.6228,-117.8044 -41.4758,-136.897 -26.7591,-51.7264 -127.3636,-328.2619 -143.7176,-394.9988 -7.7575,-31.9826 -6.9501,-104.3011 1.8933,-160.7609 14.1638,-90.3205 10.5422,-114.5327 -30.1603,-201.9374 -25.4262,-54.6422 -46.4023,-116.8654 -46.4023,-138.2603 -0.2651,-56.3159 53.9606,-96.72 138.8956,-103.6724 l 74.018,-5.8997 -5.4725,-74.8177 c -7.5023,-102.1199 21.5395,-168.6448 88.8391,-203.437 71.4839,-36.9053 71.7164,-79.1952 0.9028,-146.0079 -30.6542,-28.938 -55.7358,-67.5321 -55.7358,-85.5416 0,-18.1156 31.0071,-73.5 68.9006,-123.1286 73.2236,-95.9021 81.2256,-141.4638 53.5168,-305.2388 -12.0516,-71.2582 -8.355,-89.7298 25.1165,-125.1885 39.0644,-41.366 57.723,-48.1063 192.56,-69.842 82.1094,-13.2156 147.2794,-69.274 130.73,-112.4046 -7.2303,-18.8578 12.1008,-54.4074 53.2358,-97.9394 131.2389,-138.8888 144.7377,-170.9395 144.7377,-343.8935 0,-148.9311 2.9052,-160.6245 48.9463,-196.8481 29.2114,-23.0308 54.6186,-33.9062 82.9818,-35.8753 z"
       id="path4287"
       inkscape:connector-curvature="0" />
  </g>
</svg>
