<?xml version="1.0" encoding="UTF-8" standalone="no"?>
<!-- Created with Inkscape (http://www.inkscape.org/) -->

<svg
   xmlns:dc="http://purl.org/dc/elements/1.1/"
   xmlns:cc="http://creativecommons.org/ns#"
   xmlns:rdf="http://www.w3.org/1999/02/22-rdf-syntax-ns#"
   xmlns:svg="http://www.w3.org/2000/svg"
   xmlns="http://www.w3.org/2000/svg"
   xmlns:sodipodi="http://sodipodi.sourceforge.net/DTD/sodipodi-0.dtd"
   xmlns:inkscape="http://www.inkscape.org/namespaces/inkscape"
   width="9421.4316mm"
   height="8159.2104mm"
   viewBox="0 0 33383.025 28910.588"
   id="svg2"
   version="1.1"
   inkscape:version="0.91 r13725"
   sodipodi:docname="rocket tile.svg">
  <defs
     id="defs4" />
  <sodipodi:namedview
     id="base"
     pagecolor="#ffffff"
     bordercolor="#666666"
     borderopacity="1.0"
     inkscape:pageopacity="0.0"
     inkscape:pageshadow="2"
     inkscape:zoom="0.011048543"
     inkscape:cx="11934.525"
     inkscape:cy="18688.762"
     inkscape:document-units="px"
     inkscape:current-layer="layer1"
     showgrid="false"
     inkscape:window-width="1440"
     inkscape:window-height="856"
     inkscape:window-x="0"
     inkscape:window-y="0"
     inkscape:window-maximized="1"
     showguides="false"
     fit-margin-top="0"
     fit-margin-left="0"
     fit-margin-right="0"
     fit-margin-bottom="0" />
  <metadata
     id="metadata7">
    <rdf:RDF>
      <cc:Work
         rdf:about="">
        <dc:format>image/svg+xml</dc:format>
        <dc:type
           rdf:resource="http://purl.org/dc/dcmitype/StillImage" />
        <dc:title></dc:title>
      </cc:Work>
    </rdf:RDF>
  </metadata>
  <g
     inkscape:label="Layer 1"
     inkscape:groupmode="layer"
     id="layer1"
     transform="translate(-9997.4896,18635.486)">
    <path
       style="opacity:1;fill:#26a69a;fill-opacity:1;fill-rule:nonzero;stroke:none;stroke-width:20;stroke-linecap:butt;stroke-linejoin:miter;stroke-miterlimit:4;stroke-dasharray:none;stroke-dashoffset:0;stroke-opacity:1"
       d="m 18343.268,-18635.486 -8345.7784,14455.3005 8345.7784,14455.2885 16691.558,0 1123.686,-1946.276 c -44.08,-1.4474 -75.181,-3.158 -83.387,-5.2393 -37.729,-9.5337 -329.147,-267.0754 -647.67,-572.2976 -318.5,-305.2341 -661.845,-633.196 -762.936,-728.8201 -715.327,-676.5942 -883.872,-857.4116 -883.872,-948.3825 0,-51.2213 104.596,-403.3344 232.482,-782.4578 184.872,-547.9907 248.151,-696.4271 308.607,-723.9875 26.173,-11.9141 36.867,-30.0007 59.176,-29.8811 79.631,0.2393 307.268,230.9263 1915.952,1792.624 220.591,214.1435 439.83,426.433 651.139,631.0309 l 445.189,-771.1178 C 36286.409,5059.4953 35915.288,4672.2737 35885.228,4619.8563 c -46.197,-80.4683 10.527,-170.5541 412.342,-654.9549 204.418,-246.429 389.375,-472.4149 411.026,-502.2242 40.443,-55.5993 71.544,-83.698 107.777,-82.0951 41.126,1.9019 88.914,42.0344 164.502,123.687 128.124,138.3882 714.597,759.3591 1218.137,1290.3279 l 330.629,-572.7042 c -943.645,-934.8654 -1926.287,-1916.3827 -1944.469,-1950.0796 -60.085,-111.3661 25.718,-199.5619 459.998,-472.8814 548.182,-344.9838 662.503,-412.0427 739.586,-408.2986 l 0,0 c 11.005,0.5981 21.293,2.512 31.939,5.335 42.154,11.1605 336.897,274.3124 655.05,584.738 217.29,212.0382 546.173,532.2129 865.235,842.6864 l 4043.536,-7003.5781 -8345.786,-14455.3005 -16691.558,0 z m 1912.734,5999.752 c 356.563,0.837 524.39,20.718 935.392,85.122 707.049,110.78 1897.482,410.631 2200.217,554.222 60.132,28.518 120.074,51.88 133.184,51.88 31.173,0 741.476,282.016 1000.513,397.245 773.451,344.075 1765.028,893.788 2591.924,1436.899 376.348,247.2061 1194.967,830.3412 1390.677,990.6678 49.104,40.2042 142.109,112.1556 206.716,159.872 176.188,130.1823 1235.841,1025.5613 1474.028,1245.5183 683.221,630.9592 1263.234,1212.0009 1865.305,1868.6424 l 164.693,179.6452 512.045,92.837 c 605.145,109.7034 1224.704,219.5743 1917.662,340.1273 1005.453,174.9201 959.196,158.6399 1211.259,426.7799 462.702,492.188 1522.523,1603.6484 1847.291,1937.3042 383.92,394.4347 550.837,595.6593 550.837,664.1895 0,87.9924 -128.352,176.2958 -385.726,265.4366 -141.008,48.8288 -389.1,137.9935 -551.352,198.1623 -162.241,60.1688 -396.504,146.1277 -520.574,191.021 -124.07,44.8934 -358.333,130.6011 -520.586,190.4589 -162.252,59.8458 -505.825,184.2505 -763.51,276.4775 -706.786,252.93625 -670.9,229.76587 -644.847,416.63609 12.07,86.67659 31.245,368.41735 42.609,626.114519 20.347,459.567721 -24.917,901.718781 -128.101,1251.128491 -34.989,118.5314 -32.752,122.2516 221.321,362.7115 141.175,133.6155 394.65,367.8671 563.218,520.5739 420.847,381.1928 501.076,471.3742 501.076,563.3141 0,68.8053 -124.979,226.3089 -445.943,562.0102 -31.508,32.9553 -156.272,164.2381 -277.267,291.729 -371.444,391.4562 -404.148,401.3607 -652.79,197.4925 -92.622,-75.9587 -379.087,-312.1721 -636.653,-524.9041 -257.518,-212.7321 -487.044,-394.0161 -510.095,-402.856 -23.003,-8.8279 -132.431,31.4361 -243.211,89.4877 -444.663,233.0674 -898.346,351.6586 -1345.485,351.6586 -160.973,0 -265.437,15.7659 -287.279,43.3622 -31.951,40.4674 -142.348,398.6333 -286.107,928.394 -33.673,124.0698 -119.787,420.7989 -191.32,659.4048 -71.557,238.5938 -157.587,535.323 -191.177,659.4047 -133.962,494.6044 -287.327,993.8979 -331.885,1080.3352 -37.19,72.1906 -129.13,145.7569 -165.195,132.1681 -3.134,-1.2082 -37.047,-15.3951 -75.229,-31.5438 -38.171,-16.1367 -476.781,-370.4629 -974.627,-787.3622 -497.846,-416.8993 -1133.925,-945.4159 -1413.405,-1174.476 -577.98,-473.671 -514.892,-367.2451 -771.429,-1301.4646 -70.767,-257.6972 -172.755,-624.715 -226.62,-815.5925 -151.989,-538.6125 -292.566,-1046.4947 -383.346,-1385.1148 l -82.944,-309.26529 -293.751,-228.67737 C 25853.771,355.34678 24971.06,-382.82767 24742.49,-598.88514 23981.576,-1318.2553 23026.327,-2369.9536 22317.364,-3268.7895 c -611.987,-775.8786 -1489.591,-2104.7601 -1821.728,-2758.4111 -29.115,-57.2621 -78.949,-143.1492 -110.768,-190.8775 -98.327,-147.3718 -574.701,-1175.5049 -742.48,-1602.3685 -365.942,-931.0974 -586.329,-1728.2684 -739.981,-2676.3994 -74.057,-457.08 -91.748,-686.427 -94.177,-1222.085 -2.775,-582.035 4.426,-670.254 59.834,-751.919 34.51,-50.898 89.141,-104.775 121.414,-119.739 32.25,-14.965 406.218,-33.183 831.036,-40.492 176.798,-3.05 316.622,-4.916 435.488,-4.653 z m 6671.728,5900.8859 c -19.94,-0.2392 -40.156,-0.2392 -60.695,0 -46.939,0.5981 -95.54,2.4163 -146.211,5.4427 -849.852,50.6949 -1562.451,631.5214 -1813.641,1478.2389 -78.614,264.9222 -77.849,823.0807 1.375,1090.5747 202.158,681.6899 817.806,1281.7273 1445.14,1408.4766 104.991,21.2086 222.135,45.7546 260.305,54.5107 104.261,23.9121 638.507,-11.7945 797.506,-53.2906 195.292,-50.982 600.361,-263.2117 756.441,-396.3127 224.335,-191.3321 461.972,-518.7557 582.68,-802.7573 104.141,-245.1849 117.168,-313.2127 129.704,-676.6539 10.646,-308.9663 0,-451.4216 -44.546,-605.2767 -169.514,-583.1351 -567.094,-1064.2344 -1075.467,-1301.4168 -297.196,-138.6753 -533.397,-198.0786 -832.591,-201.5834 z"
       id="path4682"
       inkscape:connector-curvature="0" />
  </g>
</svg>
